<svg width="12" height="13" viewBox="0 0 12 13" fill="none" xmlns="http://www.w3.org/2000/svg">
<g clip-path="url(#clip0_9947_2570)">
<path d="M12.1674 6.88958L13.2016 7.93095L8.37835 12.7985L5.81523 10.2132L6.84948 9.17183L8.37835 10.7082L12.1677 6.88958H12.1674ZM3.96835 10.2136L6.18423 12.4295H-1.20215V10.9523C-1.20215 9.31995 1.44235 7.9977 4.7071 7.9977L6.10323 8.07908L3.96873 10.2136H3.96835ZM4.7071 0.611328C6.33873 0.611328 7.66173 1.93395 7.66173 3.56595C7.66173 5.19758 6.3391 6.52058 4.7071 6.52058C3.07548 6.52058 1.75248 5.19795 1.75248 3.56595C1.75248 1.93433 3.0751 0.611328 4.7071 0.611328Z" fill="#0E73A9"/>
</g>
<defs>
<clipPath id="clip0_9947_2570">
<rect width="12" height="12" fill="white" transform="translate(0 0.705078)"/>
</clipPath>
</defs>
</svg>
