<svg width="46" height="45" viewBox="0 0 46 45" fill="none" xmlns="http://www.w3.org/2000/svg">
<rect x="0.5" width="45" height="45" rx="4" fill="#E7F0FA"/>
<g clip-path="url(#clip0_5294_667)">
<path d="M22.6598 24.9882C18.6635 24.9945 14.7366 23.9439 11.2773 21.943V31.6286C11.2773 31.7531 11.3019 31.8765 11.3496 31.9916C11.3972 32.1067 11.4671 32.2113 11.5552 32.2993C11.6433 32.3874 11.7478 32.4573 11.8629 32.505C11.978 32.5526 12.1014 32.5772 12.226 32.5772H33.0955C33.2201 32.5772 33.3435 32.5526 33.4585 32.505C33.5736 32.4573 33.6782 32.3874 33.7663 32.2993C33.8544 32.2113 33.9243 32.1067 33.9719 31.9916C34.0196 31.8765 34.0441 31.7531 34.0441 31.6286V21.9419C30.5844 23.9435 26.6568 24.9945 22.6598 24.9882Z" fill="#0E68A9"/>
<path d="M33.0955 15.502H12.226C11.7021 15.502 11.2773 15.9267 11.2773 16.4506V31.6284C11.2773 32.1523 11.7021 32.5771 12.226 32.5771H33.0955C33.6194 32.5771 34.0441 32.1523 34.0441 31.6284V16.4506C34.0441 15.9267 33.6194 15.502 33.0955 15.502Z" stroke="#0E68A9" stroke-width="2" stroke-linecap="round" stroke-linejoin="round"/>
<path d="M27.4022 15.502V13.6048C27.4022 13.1016 27.2023 12.619 26.8465 12.2632C26.4907 11.9074 26.0081 11.7075 25.5049 11.7075H19.8132C19.3101 11.7075 18.8275 11.9074 18.4717 12.2632C18.1159 12.619 17.916 13.1016 17.916 13.6048V15.502" stroke="#0E68A9" stroke-width="2" stroke-linecap="round" stroke-linejoin="round"/>
<path d="M34.0443 21.9419C30.5846 23.9435 26.657 24.9945 22.66 24.9882C18.6636 24.9945 14.7367 23.9439 11.2773 21.9429" stroke="#0E68A9" stroke-width="2" stroke-linecap="round" stroke-linejoin="round"/>
<path d="M21.2363 21.1938H24.0822" stroke="#0E68A9" stroke-width="2" stroke-linecap="round" stroke-linejoin="round"/>
</g>
<defs>
<clipPath id="clip0_5294_667">
<rect width="27.1304" height="24" fill="white" transform="translate(9 10)"/>
</clipPath>
</defs>
</svg>
