<?xml version="1.0" encoding="UTF-8" standalone="no"?>
<!-- Created with Inkscape (http://www.inkscape.org/) -->

<svg
   width="3.7041626mm"
   height="4.3284664mm"
   viewBox="0 0 3.7041626 4.3284664"
   version="1.1"
   id="svg1"
   xml:space="preserve"
   xmlns="http://www.w3.org/2000/svg"
   xmlns:svg="http://www.w3.org/2000/svg"><defs
     id="defs1" /><g
     id="layer1"
     transform="translate(-64.304315,-182.65089)"><g
       style="fill:#0e73a9"
       id="g1"
       transform="matrix(0.26458333,0,0,0.26458333,64.039731,182.74601)"><path
         d="m 8,16 a 2,2 0 0 0 2,-2 H 6 a 2,2 0 0 0 2,2 z M 8.995,1.099 a 1,1 0 1 0 -1.99,0 A 5.002,5.002 0 0 0 3,6 C 3,7.098 2.5,12 1,13 H 15 C 13.5,12 13,7.098 13,6 13,3.58 11.28,1.56 8.995,1.099 Z"
         id="path1" /></g><circle
       style="fill:#dd0909;fill-opacity:1;stroke-width:0.264583"
       id="path2"
       cx="67.256073"
       cy="183.29369"
       r="0.64280528" /></g></svg>
