<svg width="46" height="45" viewBox="0 0 46 45" fill="none" xmlns="http://www.w3.org/2000/svg">
<rect x="0.5" width="45" height="45" rx="4" fill="#E7F0FA"/>
<path d="M16.026 34.962H21.2752V29.6367H24.432V35H29.6813V11H16.0269V34.962H16.026ZM23.7858 13.8138H26.9426V16.9706H23.7858V13.8138ZM23.7858 18.873H26.9426V22.0298H23.7858V18.873ZM23.7858 23.9313H26.9426V27.0881H23.7858V23.9313ZM18.7266 13.8138H21.8834V16.9706H18.7266V13.8138ZM18.7266 18.873H21.8834V22.0298H18.7266V18.873ZM18.7266 23.9313H21.8834V27.0881H18.7266V23.9313ZM30.8597 13.1296V30.0928H32.8752V34.9611H37.6674V13.1286H30.8587L30.8597 13.1296ZM35.1957 27.8112H32.343V24.9585H35.1957V27.8112ZM35.1957 23.1711H32.343V20.3183H35.1957V23.1711ZM35.1957 18.5689H32.343V15.7162H35.1957V18.5689ZM8.00093 34.962H12.7551V30.0938H14.7707V13.1305H8V34.9629L8.00093 34.962ZM10.4735 15.7162H13.3262V18.5689H10.4735V15.7162ZM10.4735 20.3183H13.3262V23.1711H10.4735V20.3183ZM10.4735 24.9205H13.3262V27.7732H10.4735V24.9205Z" fill="#0E68A9"/>
</svg>
