<svg width="88" height="33" viewBox="0 0 88 33" fill="none" xmlns="http://www.w3.org/2000/svg">
<rect x="0.5" y="0.705078" width="87" height="31" rx="5.5" fill="white"/>
<rect x="0.5" y="0.705078" width="87" height="31" rx="5.5" stroke="#D3DCE3"/>
<path d="M18.5456 17.5687H17.4548V14.8413H18.5456V17.5687ZM18.5456 19.7508H17.4548V18.6599H18.5456V19.7508ZM12 21.3869H24L18 11.0234L12 21.3869Z" fill="#B32D7D"/>
<path d="M40.8913 14.8251H39.451C39.3956 14.5173 39.2925 14.2465 39.1417 14.0126C38.9909 13.7787 38.8062 13.5802 38.5877 13.4171C38.3692 13.254 38.1245 13.1309 37.8537 13.0478C37.5859 12.9647 37.3013 12.9231 36.9996 12.9231C36.4549 12.9231 35.9671 13.0601 35.5362 13.334C35.1084 13.6079 34.7699 14.0095 34.5206 14.5389C34.2744 15.0682 34.1513 15.7145 34.1513 16.4778C34.1513 17.2472 34.2744 17.8966 34.5206 18.426C34.7699 18.9553 35.11 19.3554 35.5408 19.6262C35.9717 19.8971 36.4564 20.0325 36.995 20.0325C37.2936 20.0325 37.5767 19.9925 37.8445 19.9125C38.1153 19.8294 38.36 19.7078 38.5785 19.5478C38.797 19.3877 38.9817 19.1923 39.1325 18.9615C39.2863 18.7276 39.3925 18.4598 39.451 18.1582L40.8913 18.1628C40.8144 18.6275 40.6651 19.0553 40.4435 19.4462C40.225 19.834 39.9434 20.1694 39.5987 20.4526C39.2571 20.7327 38.8662 20.9496 38.4261 21.1035C37.986 21.2574 37.5059 21.3343 36.9858 21.3343C36.1671 21.3343 35.4377 21.1404 34.7976 20.7527C34.1574 20.3618 33.6527 19.8032 33.2834 19.0769C32.9171 18.3506 32.734 17.4842 32.734 16.4778C32.734 15.4683 32.9187 14.602 33.288 13.8787C33.6573 13.1524 34.1621 12.5953 34.8022 12.2076C35.4424 11.8167 36.1702 11.6213 36.9858 11.6213C37.4875 11.6213 37.9553 11.6936 38.3892 11.8382C38.8262 11.9798 39.2186 12.1891 39.5664 12.4661C39.9142 12.74 40.2019 13.0755 40.4297 13.4725C40.6574 13.8664 40.8113 14.3173 40.8913 14.8251ZM43.8678 11.7505V21.2051H42.4875V11.7505H43.8678ZM48.7116 21.3482C48.0469 21.3482 47.4667 21.1958 46.9712 20.8912C46.4757 20.5865 46.091 20.1602 45.8171 19.6124C45.5432 19.0646 45.4062 18.4244 45.4062 17.6919C45.4062 16.9564 45.5432 16.3132 45.8171 15.7623C46.091 15.2114 46.4757 14.7836 46.9712 14.4789C47.4667 14.1742 48.0469 14.0218 48.7116 14.0218C49.3764 14.0218 49.9566 14.1742 50.4521 14.4789C50.9476 14.7836 51.3323 15.2114 51.6062 15.7623C51.8801 16.3132 52.017 16.9564 52.017 17.6919C52.017 18.4244 51.8801 19.0646 51.6062 19.6124C51.3323 20.1602 50.9476 20.5865 50.4521 20.8912C49.9566 21.1958 49.3764 21.3482 48.7116 21.3482ZM48.7163 20.1895C49.1471 20.1895 49.5041 20.0756 49.7873 19.8478C50.0704 19.6201 50.2797 19.3169 50.4151 18.9384C50.5536 18.5598 50.6229 18.1428 50.6229 17.6873C50.6229 17.2349 50.5536 16.8194 50.4151 16.4409C50.2797 16.0592 50.0704 15.753 49.7873 15.5222C49.5041 15.2914 49.1471 15.176 48.7163 15.176C48.2823 15.176 47.9222 15.2914 47.636 15.5222C47.3529 15.753 47.142 16.0592 47.0036 16.4409C46.8681 16.8194 46.8004 17.2349 46.8004 17.6873C46.8004 18.1428 46.8681 18.5598 47.0036 18.9384C47.142 19.3169 47.3529 19.6201 47.636 19.8478C47.9222 20.0756 48.2823 20.1895 48.7163 20.1895ZM58.8714 15.8453L57.6203 16.0669C57.568 15.9069 57.4849 15.7546 57.371 15.6099C57.2602 15.4653 57.1094 15.3468 56.9186 15.2544C56.7278 15.1621 56.4893 15.1159 56.203 15.1159C55.8122 15.1159 55.4859 15.2037 55.2243 15.3791C54.9627 15.5514 54.8319 15.7746 54.8319 16.0485C54.8319 16.2855 54.9197 16.4763 55.0951 16.6209C55.2705 16.7656 55.5537 16.8841 55.9445 16.9764L57.0709 17.2349C57.7234 17.3857 58.2097 17.6181 58.5297 17.932C58.8498 18.2459 59.0099 18.6537 59.0099 19.1554C59.0099 19.5801 58.8867 19.9586 58.6405 20.291C58.3974 20.6203 58.0573 20.8788 57.6203 21.0666C57.1863 21.2543 56.6832 21.3482 56.1107 21.3482C55.3167 21.3482 54.6688 21.1789 54.1672 20.8404C53.6655 20.4988 53.3577 20.014 53.2439 19.3862L54.578 19.1831C54.6611 19.5308 54.8319 19.794 55.0905 19.9725C55.349 20.1479 55.686 20.2356 56.1015 20.2356C56.5539 20.2356 56.9155 20.1417 57.1863 19.954C57.4572 19.7632 57.5926 19.5308 57.5926 19.2569C57.5926 19.0353 57.5095 18.8491 57.3433 18.6983C57.1802 18.5475 56.9294 18.4337 56.5908 18.3567L55.3905 18.0936C54.7288 17.9428 54.2395 17.7027 53.9225 17.3734C53.6086 17.0441 53.4516 16.6271 53.4516 16.1223C53.4516 15.7038 53.5686 15.3375 53.8025 15.0236C54.0364 14.7097 54.3595 14.465 54.7719 14.2896C55.1843 14.1111 55.6568 14.0218 56.1892 14.0218C56.9555 14.0218 57.5587 14.188 57.9988 14.5204C58.439 14.8497 58.7298 15.2914 58.8714 15.8453ZM63.5836 21.3482C62.885 21.3482 62.2833 21.1989 61.7786 20.9004C61.2769 20.5988 60.8891 20.1756 60.6152 19.6309C60.3444 19.083 60.209 18.4413 60.209 17.7058C60.209 16.9795 60.3444 16.3393 60.6152 15.7853C60.8891 15.2314 61.2708 14.7989 61.7601 14.4881C62.2525 14.1773 62.8281 14.0218 63.4867 14.0218C63.8868 14.0218 64.2746 14.088 64.65 14.2203C65.0255 14.3527 65.3625 14.5604 65.661 14.8436C65.9596 15.1267 66.195 15.4945 66.3674 15.9469C66.5397 16.3962 66.6259 16.9425 66.6259 17.5858V18.0751H60.9892V17.041H65.2733C65.2733 16.6779 65.1994 16.3562 65.0517 16.0762C64.9039 15.793 64.6962 15.5699 64.4284 15.4068C64.1638 15.2437 63.8529 15.1621 63.4959 15.1621C63.1081 15.1621 62.7696 15.2575 62.4803 15.4483C62.1941 15.6361 61.9725 15.8823 61.8155 16.187C61.6616 16.4886 61.5847 16.8163 61.5847 17.1703V17.9782C61.5847 18.4521 61.6678 18.8553 61.834 19.1877C62.0033 19.5201 62.2387 19.774 62.5403 19.9494C62.8419 20.1217 63.1943 20.2079 63.5975 20.2079C63.8591 20.2079 64.0976 20.171 64.313 20.0971C64.5285 20.0202 64.7147 19.9063 64.8716 19.7555C65.0286 19.6047 65.1486 19.4185 65.2317 19.1969L66.5382 19.4324C66.4335 19.8171 66.2458 20.1541 65.975 20.4434C65.7072 20.7296 65.3702 20.9527 64.964 21.1127C64.5608 21.2697 64.1007 21.3482 63.5836 21.3482ZM70.8119 21.3436C70.2394 21.3436 69.7285 21.1974 69.2792 20.905C68.8329 20.6096 68.4821 20.1895 68.2267 19.6447C67.9743 19.0969 67.8481 18.4398 67.8481 17.6735C67.8481 16.9071 67.9758 16.2516 68.2313 15.7069C68.4898 15.1621 68.8437 14.7451 69.2931 14.4558C69.7424 14.1665 70.2517 14.0218 70.8211 14.0218C71.2612 14.0218 71.6151 14.0957 71.8829 14.2434C72.1537 14.3881 72.363 14.5574 72.5107 14.7512C72.6615 14.9451 72.7785 15.1159 72.8616 15.2637H72.9447V11.7505H74.325V21.2051H72.977V20.1017H72.8616C72.7785 20.2525 72.6585 20.4249 72.5015 20.6188C72.3476 20.8127 72.1353 20.9819 71.8644 21.1266C71.5936 21.2712 71.2427 21.3436 70.8119 21.3436ZM71.1166 20.1664C71.5136 20.1664 71.849 20.0617 72.123 19.8525C72.3999 19.6401 72.6092 19.3462 72.7508 18.9707C72.8954 18.5952 72.9678 18.1582 72.9678 17.6596C72.9678 17.1672 72.897 16.7363 72.7554 16.367C72.6138 15.9977 72.4061 15.7099 72.1322 15.5037C71.8583 15.2975 71.5197 15.1944 71.1166 15.1944C70.7011 15.1944 70.3548 15.3021 70.0779 15.5176C69.8009 15.733 69.5916 16.0269 69.45 16.3993C69.3115 16.7717 69.2423 17.1918 69.2423 17.6596C69.2423 18.1336 69.3131 18.5598 69.4546 18.9384C69.5962 19.3169 69.8055 19.617 70.0825 19.8386C70.3625 20.0571 70.7072 20.1664 71.1166 20.1664Z" fill="#B32D7D"/>
</svg>
