<svg width="228" height="180" viewBox="0 0 228 180" fill="none" xmlns="http://www.w3.org/2000/svg">
<g clip-path="url(#clip0_500_18352)">
<path d="M227.5 154.373H0.5V154.487H227.5V154.373Z" fill="#9FC9E0"/>
<path d="M204.754 161.713H189.717V161.827H204.754V161.713Z" fill="#EBEBEB" fill-opacity="0.8"/>
<path d="M150.874 162.951H146.928V163.065H150.874V162.951Z" fill="#EBEBEB" fill-opacity="0.8"/>
<path d="M189.264 157.479H180.551V157.593H189.264V157.479Z" fill="#EBEBEB" fill-opacity="0.8"/>
<path d="M43.926 158.245H24.3164V158.359H43.926V158.245Z" fill="#EBEBEB" fill-opacity="0.8"/>
<path d="M50.8439 158.245H47.9688V158.359H50.8439V158.245Z" fill="#EBEBEB" fill-opacity="0.8"/>
<path d="M102.716 160.171H60.1875V160.285H102.716V160.171Z" fill="#EBEBEB" fill-opacity="0.8"/>
<path d="M108.104 134.037H20.4371C19.0084 134.037 17.8457 132.869 17.8457 131.434V7.66095C17.8457 6.22592 19.0084 5.05811 20.4371 5.05811H108.104C109.532 5.05811 110.695 6.22592 110.695 7.66095V131.434C110.695 132.869 109.532 134.037 108.104 134.037ZM20.4371 5.17256C19.0706 5.17256 17.9592 6.28885 17.9592 7.66141V131.434C17.9592 132.807 19.0706 133.923 20.4371 133.923H108.104C109.47 133.923 110.582 132.807 110.582 131.434V7.66095C110.582 6.28885 109.47 5.17211 108.104 5.17211L20.4371 5.17256Z" fill="#9FC9E0"/>
<path d="M206.302 134.037H118.636C117.207 134.037 116.045 132.869 116.045 131.434V7.66095C116.045 6.22592 117.208 5.05811 118.636 5.05811H206.302C207.732 5.05811 208.894 6.22592 208.894 7.66095V131.434C208.894 132.869 207.732 134.037 206.302 134.037ZM118.636 5.17256C117.27 5.17256 116.158 6.28885 116.158 7.66141V131.434C116.158 132.807 117.27 133.923 118.636 133.923H206.302C207.669 133.923 208.78 132.807 208.78 131.434V7.66095C208.78 6.28885 207.669 5.17211 206.302 5.17211L118.636 5.17256Z" fill="#9FC9E0"/>
<path d="M163.636 66.7554C176.781 66.7554 187.437 56.0526 187.437 42.85C187.437 29.6475 176.781 18.9447 163.636 18.9447C150.492 18.9447 139.836 29.6475 139.836 42.85C139.836 56.0526 150.492 66.7554 163.636 66.7554Z" fill="#C7DDEC"/>
<path d="M161.828 66.7554C174.972 66.7554 185.628 56.0526 185.628 42.85C185.628 29.6475 174.972 18.9447 161.828 18.9447C148.683 18.9447 138.027 29.6475 138.027 42.85C138.027 56.0526 148.683 66.7554 161.828 66.7554Z" fill="#DDEAF3"/>
<path d="M177.38 58.4715C185.969 49.8444 185.969 35.857 177.38 27.2299C168.79 18.6027 154.864 18.6027 146.275 27.2299C137.686 35.857 137.686 49.8443 146.275 58.4715C154.864 67.0986 168.79 67.0986 177.38 58.4715Z" fill="#E8F1F7"/>
<path d="M165.575 58.9304C165.335 58.9304 165.116 58.7658 165.057 58.5204L161.31 42.9759C161.241 42.6886 161.417 42.399 161.703 42.3292C161.988 42.2586 162.277 42.436 162.346 42.7237L166.093 58.2683C166.162 58.5556 165.987 58.8451 165.701 58.9149C165.659 58.9258 165.617 58.9304 165.575 58.9304Z" fill="#BCD6E8"/>
<path d="M161.828 43.9212C161.555 43.9212 161.282 43.8168 161.074 43.6075L148.203 30.6799C147.787 30.2617 147.787 29.5836 148.203 29.1655C148.62 28.7469 149.294 28.7469 149.711 29.1655L161.828 41.3352L168.894 34.2385C169.311 33.8199 169.985 33.8199 170.402 34.2385C170.818 34.6566 170.818 35.3347 170.402 35.7529L162.582 43.6075C162.374 43.8168 162.101 43.9212 161.828 43.9212Z" fill="#BCD6E8"/>
<path d="M101.063 151.044H104.648V126.376H101.063V151.044Z" fill="#DAE5EC"/>
<path d="M28.5135 154.373H102.281V151.044H28.5135V154.373Z" fill="#DAE5EC"/>
<path d="M101.063 126.376H26.1465V151.045H101.063V126.376Z" fill="#E8F1F7"/>
<path d="M96.2171 130.669H30.9941V144.758H96.2171V130.669Z" fill="#F0F6FA"/>
<path d="M47.7352 132.558H79.4716C80.0632 132.558 80.5467 132.072 80.5467 131.478V131.275C80.5467 130.681 80.0628 130.195 79.4716 130.195H47.7352C47.1441 130.195 46.6602 130.681 46.6602 131.275V131.478C46.6602 132.072 47.1441 132.558 47.7352 132.558Z" fill="#DAE5EC"/>
<path d="M24.5031 126.376L101.062 126.376V124.172L24.5031 124.172V126.376Z" fill="#DDEAF3"/>
<path d="M106.371 124.172H101.062V126.376H106.371V124.172Z" fill="#DAE5EC"/>
<path d="M195.579 100.329H188.588V154.374H195.579V100.329Z" fill="#DAE5EC"/>
<path d="M127.395 154.374H188.588V100.329H127.395V154.374Z" fill="#E8F1F7"/>
<path d="M126.836 149.63H180.562V120.724H126.836V149.63Z" fill="#F0F6FA"/>
<path d="M126.836 117.657H180.562V108.141H126.836V117.657Z" fill="#F0F6FA"/>
<path opacity="0.7" d="M181.042 120.723H180.562V149.629H181.042V120.723Z" fill="#E6E6E6" fill-opacity="0.8"/>
<path opacity="0.7" d="M181.042 108.14H180.562V117.656H181.042V108.14Z" fill="#E6E6E6" fill-opacity="0.8"/>
<path opacity="0.7" d="M195.579 102.61H127.24V103.832H195.579V102.61Z" fill="#A8CAE1"/>
<path d="M196.395 99.5897H188.588V103.124H196.395V99.5897Z" fill="#DAE5EC"/>
<path d="M126.578 103.124L188.588 103.124V99.5897L126.578 99.5897V103.124Z" fill="#DDEAF3"/>
<path d="M149.841 89.1847C149.387 88.544 149.175 87.7592 149.025 86.9872C148.909 86.2083 148.851 85.4103 148.905 84.6242C149.002 83.0501 149.343 81.4947 149.894 80.0391C150.137 79.2954 150.491 78.6036 150.803 77.8936C151.164 77.2092 151.531 76.5284 151.937 75.8731C152.362 75.2301 152.797 74.5949 153.261 73.9834C153.755 73.3911 154.243 72.7992 154.786 72.2506C154.524 72.9853 154.207 73.6766 153.897 74.3674C153.585 75.0569 153.307 75.7591 152.985 76.4335L152.108 78.4887L151.705 79.5229L151.494 80.0355L151.314 80.5571C150.79 81.9356 150.384 83.3415 150.081 84.771C149.927 85.4865 149.82 86.2102 149.763 86.9457C149.706 87.6817 149.702 88.4259 149.841 89.1847Z" fill="#DAE5EC"/>
<path d="M141.029 90.3926C141.069 89.2248 140.998 88.1258 140.744 87.1135C140.494 86.1021 140.048 85.2065 139.413 84.4505C138.769 83.6994 137.944 83.0816 137.014 82.5531C136.087 82.0131 135.061 81.5859 134 81.0875C135.164 80.963 136.348 81.0815 137.489 81.4596C138.06 81.647 138.616 81.906 139.142 82.2361C139.661 82.5749 140.147 82.9849 140.564 83.4687C141.392 84.445 141.867 85.715 141.916 86.9507C141.966 88.1865 141.669 89.4017 141.029 90.3926Z" fill="#DAE5EC"/>
<path d="M141.422 90.2335C141.375 88.9047 141.268 87.6361 141.063 86.4035C140.855 85.1751 140.55 83.9867 140.069 82.8873C139.598 81.7829 138.957 80.771 138.147 79.8604C137.335 78.9488 136.353 78.1627 135.275 77.3793C136.588 77.5758 137.866 78.133 138.955 78.9858C140.039 79.8435 140.913 81.0008 141.455 82.2863C142.013 83.5681 142.248 84.958 142.242 86.3132C142.224 87.6685 141.991 89.0187 141.422 90.2335Z" fill="#DAE5EC"/>
<path d="M149.236 87.9038C148.225 86.6288 147.436 85.207 146.74 83.7487C146.055 82.2836 145.494 80.7582 145.055 79.1964C144.604 77.6378 144.327 76.0254 144.179 74.4062C144.039 72.786 144.099 71.1398 144.402 69.5457C144.733 71.1435 144.986 72.6916 145.353 74.226C145.712 75.7573 146.075 77.279 146.509 78.7883C146.932 80.2991 147.378 81.8066 147.843 83.3182C148.303 84.8331 148.786 86.3429 149.236 87.9038Z" fill="#DAE5EC"/>
<path d="M148.83 87.7893C147.679 86.6999 146.72 85.4427 145.842 84.1395C144.973 82.828 144.212 81.4436 143.558 80.0072C142.897 78.574 142.386 77.0674 141.997 75.5334C141.622 73.9948 141.419 72.4043 141.474 70.8224C142.045 72.3054 142.541 73.7495 143.127 75.1686C143.711 76.5845 144.294 77.9912 144.933 79.3807C145.564 80.7719 146.211 82.1595 146.87 83.5517C147.525 84.9484 148.196 86.3397 148.83 87.7893Z" fill="#DAE5EC"/>
<path d="M150.517 89.2471C149.225 88.5914 148.077 87.7113 147.001 86.761C145.932 85.7998 144.955 84.7341 144.078 83.5872C143.191 82.4482 142.448 81.1905 141.826 79.8832C141.213 78.5699 140.78 77.1622 140.6 75.7281C141.38 76.9547 142.069 78.1536 142.861 79.2981C143.646 80.4413 144.43 81.5736 145.279 82.667C146.118 83.766 146.976 84.8536 147.856 85.9388C148.733 87.0287 149.629 88.1067 150.517 89.2471Z" fill="#DAE5EC"/>
<path d="M148.048 87.7966C146.796 87.31 145.676 86.5535 144.651 85.7008C143.626 84.8426 142.706 83.8545 141.91 82.7738C141.499 82.2425 141.154 81.6625 140.802 81.0911C140.493 80.4924 140.16 79.9092 139.926 79.2753C139.397 78.0418 139.088 76.7131 138.979 75.3824C139.69 76.527 140.276 77.6611 140.982 78.7299C141.303 79.279 141.681 79.7924 142.016 80.3273C142.392 80.838 142.73 81.3711 143.121 81.869C143.869 82.8873 144.656 83.8818 145.483 84.8563C146.307 85.8376 147.16 86.7979 148.048 87.7966Z" fill="#DAE5EC"/>
<path d="M149.986 88.5791C149.39 88.1961 148.964 87.5805 148.633 86.9448C148.33 86.2946 148.084 85.5982 147.977 84.8855C147.742 83.4614 147.801 81.9999 148.094 80.6183C148.224 79.921 148.439 79.2503 148.64 78.5781C148.897 77.9269 149.129 77.2658 149.439 76.6424C149.756 76.0232 150.076 75.4062 150.442 74.8189C150.834 74.2429 151.218 73.6684 151.662 73.1317C151.517 73.8225 151.315 74.475 151.118 75.1267C150.911 75.7733 150.757 76.4349 150.547 77.0697C150.355 77.7113 150.205 78.3597 150.012 78.9935L149.789 79.9562C149.713 80.2758 149.618 80.5927 149.575 80.9156C149.301 82.1965 149.157 83.4829 149.155 84.7697C149.149 85.4154 149.21 86.0565 149.329 86.6981C149.447 87.3406 149.643 87.9735 149.986 88.5791Z" fill="#DAE5EC"/>
<path d="M149.144 87.1235C148.128 86.0939 147.457 84.7496 147.039 83.3456C146.634 81.9347 146.478 80.4281 146.643 78.9525C146.668 78.5822 146.76 78.221 146.817 77.8558L146.924 77.3113L147.083 76.7815C147.199 76.4312 147.3 76.0769 147.431 75.7345C147.581 75.3993 147.738 75.0678 147.896 74.739L148.138 74.2493L148.432 73.7892L149.035 72.8872C149.481 72.3195 149.973 71.7887 150.483 71.293C150.246 71.9843 149.933 72.6068 149.68 73.2543L149.322 74.226L149.136 74.703L148.994 75.1941C148.897 75.5197 148.799 75.8421 148.693 76.1608L148.47 77.1412L148.354 77.6278L148.285 78.1225C148.242 78.4518 148.161 78.7769 148.145 79.1084C147.995 80.4285 148.035 81.7605 148.197 83.0966C148.359 84.4377 148.672 85.771 149.144 87.1235Z" fill="#DAE5EC"/>
<path d="M147.225 86.5681L140.719 80.7527L141.683 88.6456L147.225 86.5681Z" fill="#DAE5EC"/>
<path d="M134.689 85.5066H153.563L151.092 99.5897H137.161L134.689 85.5066Z" fill="#E8F1F7"/>
<path d="M146.48 85.5066H153.563L151.092 99.5897H147.372L146.48 85.5066Z" fill="#DAE5EC"/>
<path d="M170.237 89.2134C170.327 88.5613 170.294 87.9416 170.159 87.3443C170.029 86.7506 169.853 86.181 169.598 85.6397C169.101 84.5572 168.45 83.5481 167.677 82.6055C167.508 82.3547 167.285 82.1381 167.087 81.9056C166.886 81.6744 166.694 81.435 166.484 81.2088C166.044 80.7729 165.641 80.2986 165.193 79.859C164.739 79.4272 164.312 78.9561 163.856 78.5102C163.401 78.0606 162.94 77.6128 162.512 77.103C163.126 77.3319 163.708 77.6228 164.297 77.9119C164.878 78.2124 165.413 78.5891 165.961 78.9498C166.239 79.1258 166.487 79.3424 166.742 79.5517C166.998 79.7596 167.246 79.9776 167.498 80.1924C167.968 80.6598 168.441 81.1308 168.856 81.6584C169.704 82.6944 170.374 83.9265 170.72 85.2617C170.896 85.9266 170.954 86.6311 170.897 87.3146C170.831 87.9932 170.642 88.6813 170.237 89.2134Z" fill="#DAE5EC"/>
<path d="M180.847 87.3028C180.371 86.9125 180.037 86.3525 179.825 85.7424C179.705 85.4364 179.671 85.1099 179.623 84.7784C179.61 84.6133 179.623 84.4473 179.626 84.2795C179.632 84.1122 179.627 83.9398 179.673 83.7797C179.901 82.4446 180.683 81.2913 181.597 80.4231C181.826 80.2029 182.081 80.0227 182.323 79.8226C182.573 79.6347 182.812 79.4281 183.084 79.284C183.351 79.129 183.614 78.9708 183.884 78.8239C184.019 78.751 184.15 78.6712 184.287 78.605L184.708 78.4281C184.988 78.3114 185.27 78.1997 185.553 78.0925C185.834 77.9812 186.119 77.8827 186.415 77.8153C187.005 77.6739 187.588 77.5298 188.189 77.4532C187.711 77.8435 187.215 78.1664 186.724 78.492C186.473 78.6424 186.235 78.8125 185.999 78.9835C185.761 79.1513 185.523 79.3137 185.283 79.4714C184.789 79.7688 184.367 80.1481 183.902 80.4655C183.664 80.6201 183.465 80.8107 183.256 80.9913C183.05 81.1723 182.823 81.3365 182.632 81.5275C181.847 82.2777 181.188 83.1035 180.821 84.0656C180.717 84.3041 180.683 84.5581 180.609 84.8139C180.587 85.072 180.53 85.3402 180.549 85.6119C180.544 86.1596 180.649 86.7259 180.847 87.3028Z" fill="#DAE5EC"/>
<path d="M180.362 87.3028C179.535 86.2781 179.127 84.9233 179.094 83.5604C179.058 82.1887 179.442 80.8043 180.108 79.6082L180.654 78.74C180.863 78.4737 181.086 78.2188 181.306 77.9634L181.641 77.5849L182.017 77.2543C182.269 77.0345 182.524 76.8211 182.779 76.6109C183.319 76.2302 183.884 75.8909 184.451 75.5753C185.054 75.3159 185.649 75.0564 186.268 74.864C185.817 75.3492 185.342 75.7678 184.876 76.1864C184.441 76.6428 183.994 77.0692 183.567 77.5042C183.369 77.7377 183.171 77.9671 182.969 78.1905L182.666 78.5248L182.405 78.8877C182.232 79.1294 182.043 79.3583 181.875 79.6005L181.424 80.3533C180.86 81.3716 180.453 82.4614 180.275 83.6292C180.092 84.7966 180.111 86.0255 180.362 87.3028Z" fill="#DAE5EC"/>
<path d="M170.816 87.9763C171.191 86.5659 171.603 85.2084 171.996 83.8504C172.394 82.4956 172.777 81.1486 173.133 79.7988C173.473 78.4454 173.779 77.0925 174.041 75.7208C174.279 74.3451 174.438 72.9657 174.563 71.5046C175.067 72.8781 175.232 74.3665 175.223 75.8371C175.174 77.3059 174.953 78.7646 174.594 80.1805C174.22 81.5918 173.72 82.9639 173.101 84.2767C172.47 85.5823 171.752 86.8513 170.816 87.9763Z" fill="#DAE5EC"/>
<path d="M171.287 87.7501C171.877 86.3593 172.512 85.0305 173.138 83.7017C173.767 82.3761 174.397 81.0615 175.003 79.7409C175.599 78.4162 176.184 77.0929 176.725 75.7445C177.255 74.3911 177.728 73.025 178.184 71.5794C178.359 73.0851 178.18 74.6178 177.859 76.0989C177.51 77.5749 176.994 79.0027 176.374 80.3748C175.744 81.7428 175 83.0515 174.163 84.2945C173.315 85.5289 172.394 86.7191 171.287 87.7501Z" fill="#DAE5EC"/>
<path d="M169.441 89.4856C170.325 88.2622 171.241 87.1099 172.146 85.9544C173.053 84.8034 173.96 83.6634 174.844 82.512C175.72 81.3543 176.585 80.1955 177.412 79.0027C178.229 77.8025 178.994 76.5767 179.76 75.2703C179.596 76.7774 179.081 78.2311 178.438 79.6028C177.77 80.9635 176.951 82.2393 176.041 83.4377C175.123 84.6297 174.107 85.7387 173.014 86.7624C171.912 87.7752 170.75 88.7287 169.441 89.4856Z" fill="#DAE5EC"/>
<path d="M172.219 87.4993C173.084 86.4067 173.955 85.3762 174.805 84.3333C175.657 83.2959 176.487 82.2553 177.294 81.2015C178.101 80.1477 178.85 79.0615 179.586 77.9539C180.32 76.8403 180.954 75.6771 181.649 74.4586C181.564 75.8517 181.19 77.2306 180.633 78.5179C180.058 79.7956 179.345 81.0159 178.494 82.1212C177.645 83.2284 176.694 84.2503 175.651 85.1641C174.601 86.067 173.48 86.8978 172.219 87.4993Z" fill="#DAE5EC"/>
<path d="M170 88.7692C170.536 87.6985 170.72 86.606 170.689 85.5622C170.649 84.5134 170.346 83.5006 169.898 82.5289L169.746 82.1586L169.549 81.8029L169.169 81.0797C168.866 80.6201 168.59 80.1376 168.278 79.6693C167.945 79.2165 167.646 78.7281 167.311 78.2584C166.973 77.7892 166.629 77.3195 166.324 76.7919C166.854 77.0683 167.344 77.4025 167.841 77.7372C168.325 78.0865 168.752 78.506 169.196 78.9123C169.423 79.1111 169.601 79.3597 169.8 79.5877C169.995 79.8198 170.186 80.0564 170.372 80.2986L170.858 81.0847L171.09 81.4855L171.279 81.9155C171.799 83.0432 172.07 84.3597 171.871 85.6383C171.666 86.9005 171.022 88.1112 170 88.7692Z" fill="#DAE5EC"/>
<path d="M170.843 87.3128C171.224 86.1254 171.49 84.9717 171.605 83.8335C171.721 82.6976 171.652 81.5873 171.365 80.5412C171.227 80.0163 171.031 79.5065 170.778 79.0177C170.534 78.5243 170.237 78.0482 169.897 77.5895C169.226 76.6638 168.4 75.8088 167.525 74.9151C168.724 75.2676 169.836 75.9114 170.782 76.7938C171.259 77.2306 171.676 77.7445 172.025 78.3091C172.379 78.87 172.646 79.4938 172.822 80.1413C173.178 81.4391 173.132 82.8239 172.766 84.0661C172.394 85.3059 171.759 86.451 170.843 87.3128Z" fill="#DAE5EC"/>
<path d="M173.062 86.2339L180.165 79.3848L179.88 86.1012L173.062 86.2339Z" fill="#DAE5EC"/>
<path d="M165.297 85.5066H184.171L181.699 99.5897H167.768L165.297 85.5066Z" fill="#E8F1F7"/>
<path d="M177.088 85.5066H184.171L181.699 99.5897H177.979L177.088 85.5066Z" fill="#DAE5EC"/>
<path d="M47.6593 21.3688V95.2162C47.6593 101.614 42.4951 106.801 36.125 106.801H89.7129C96.083 106.801 101.247 101.614 101.247 95.2162V21.3688H47.6593Z" fill="#E8F1F7"/>
<path d="M92.8262 40.0666H58.2109V74.8343H92.8262V40.0666Z" fill="#DAE5EC"/>
<path d="M91.7598 38.9964H57.1445V73.7641H91.7598V38.9964Z" fill="#F0F6FA"/>
<path d="M65.6482 78.9137H56.8438V87.7569H65.6482V78.9137Z" fill="#F0F6FA"/>
<path d="M91.7615 78.9137H82.957V87.7569H91.7615V78.9137Z" fill="#F0F6FA"/>
<path d="M78.7048 78.9137H69.9004V87.7569H78.7048V78.9137Z" fill="#F0F6FA"/>
<path d="M47.6582 21.3688V30.16H101.246V21.3688H47.6582Z" fill="#DAE5EC"/>
<path d="M50.875 18.5457V24.1923C50.875 25.0605 51.576 25.7646 52.4404 25.7646C53.3048 25.7646 54.0058 25.0605 54.0058 24.1923V18.5457C54.0058 17.6775 53.3048 16.9734 52.4404 16.9734C51.5755 16.9734 50.875 17.677 50.875 18.5457Z" fill="#BCD6E8"/>
<path d="M94.8984 18.5457V24.1923C94.8984 25.0605 95.5994 25.7646 96.4638 25.7646C97.3282 25.7646 98.0292 25.0605 98.0292 24.1923V18.5457C98.0292 17.6775 97.3282 16.9734 96.4638 16.9734C95.5994 16.9734 94.8984 17.677 94.8984 18.5457Z" fill="#BCD6E8"/>
<path d="M86.0938 18.5457V24.1923C86.0938 25.0605 86.7947 25.7646 87.6591 25.7646C88.5236 25.7646 89.2245 25.0605 89.2245 24.1923V18.5457C89.2245 17.6775 88.5236 16.9734 87.6591 16.9734C86.7947 16.9734 86.0938 17.677 86.0938 18.5457Z" fill="#BCD6E8"/>
<path d="M77.2891 18.5457V24.1923C77.2891 25.0605 77.99 25.7646 78.8545 25.7646C79.7189 25.7646 80.4198 25.0605 80.4198 24.1923V18.5457C80.4198 17.6775 79.7189 16.9734 78.8545 16.9734C77.9896 16.9734 77.2891 17.677 77.2891 18.5457Z" fill="#BCD6E8"/>
<path d="M68.4844 18.5457V24.1923C68.4844 25.0605 69.1854 25.7646 70.0498 25.7646C70.9142 25.7646 71.6152 25.0605 71.6152 24.1923V18.5457C71.6152 17.6775 70.9142 16.9734 70.0498 16.9734C69.1849 16.9734 68.4844 17.677 68.4844 18.5457Z" fill="#BCD6E8"/>
<path d="M59.6816 18.5457V24.1923C59.6816 25.0605 60.3826 25.7646 61.247 25.7646C62.1114 25.7646 62.8124 25.0605 62.8124 24.1923V18.5457C62.8124 17.6775 62.1114 16.9734 61.247 16.9734C60.3822 16.9734 59.6816 17.677 59.6816 18.5457Z" fill="#BCD6E8"/>
<path d="M84.8869 101.954C84.8869 104.631 87.0475 106.801 89.7125 106.801H84.8869H29.4154C26.7504 106.801 24.5898 104.631 24.5898 101.954H84.8869Z" fill="#BCD6E8"/>
<path d="M114 174.968C162.615 174.968 202.026 172.656 202.026 169.805C202.026 166.953 162.615 164.641 114 164.641C65.385 164.641 25.9746 166.953 25.9746 169.805C25.9746 172.656 65.385 174.968 114 174.968Z" fill="#EBF4F9"/>
<path opacity="0.2" d="M112.695 100.471C112.695 100.471 68.0039 126.971 68.0039 152.08H157.386C157.386 126.971 112.695 100.471 112.695 100.471Z" fill="#0F6DDB"/>
<path opacity="0.2" d="M112.695 132.091C112.695 132.091 71.4316 142.355 71.4316 152.08H153.959C153.959 142.355 112.695 132.091 112.695 132.091Z" fill="#0F6DDB"/>
<path opacity="0.3" d="M118.121 107.79C126.508 116.075 142.82 134.443 142.82 152.08H131.64C131.64 134.442 122.709 116.074 118.121 107.79Z" fill="white" fill-opacity="0.8"/>
<path opacity="0.2" d="M112.695 100.471C112.695 100.471 68.0039 73.971 68.0039 48.8616H157.386C157.386 73.971 112.695 100.471 112.695 100.471Z" fill="#0F6DDB"/>
<path opacity="0.2" d="M112.695 98.0499C112.695 98.0499 89.877 87.0426 89.877 76.6125H135.513C135.513 87.042 112.695 98.0499 112.695 98.0499Z" fill="#0F6DDB"/>
<path opacity="0.3" d="M107.822 93.1516C99.4345 84.8671 83.123 66.4994 83.123 48.8616H94.304C94.304 66.4994 103.234 84.8671 107.822 93.1516Z" fill="white" fill-opacity="0.8"/>
<path opacity="0.3" d="M118.121 93.1516C126.508 84.8671 142.412 64.3752 142.82 48.8616H139.838C138.44 67.7741 124.759 85.1358 118.121 93.1516Z" fill="white" fill-opacity="0.8"/>
<path d="M151.324 40H146.256V40.6108H151.324V40Z" fill="#0F6DDB"/>
<path d="M168.519 48.3914H167.911C167.911 44.1013 164.435 40.6108 160.165 40.6108H154.82V40H160.165C164.771 40 168.519 43.7642 168.519 48.3914Z" fill="#0F6DDB"/>
<path d="M160.165 55.5856H65.2262C61.8021 55.5856 59 52.7718 59 49.3319V48.3907C59 44.9515 61.8015 42.1371 65.2262 42.1371H160.166C163.59 42.1371 166.392 44.9509 166.392 48.3907V49.3319C166.391 52.7718 163.59 55.5856 160.165 55.5856Z" fill="#0F6DDB"/>
<path d="M160.165 145.356H65.2262C61.8021 145.356 59 148.17 59 151.61V152.551C59 155.991 61.8015 158.805 65.2262 158.805H160.166C163.59 158.805 166.392 155.991 166.392 152.551V151.61C166.391 148.17 163.59 145.356 160.165 145.356Z" fill="#0F6DDB"/>
</g>
<defs>
<clipPath id="clip0_500_18352">
<rect width="227" height="180" fill="white" transform="translate(0.5)"/>
</clipPath>
</defs>
</svg>
