<svg width="45" height="45" viewBox="0 0 45 45" fill="none" xmlns="http://www.w3.org/2000/svg">
<rect width="45" height="45" rx="22.5" fill="#0F6DDB"/>
<g clip-path="url(#clip0_958_7470)">
<path d="M19.9172 34.3124C23.3942 34.3124 26.2141 31.534 26.2141 28.1067C26.2141 24.6793 23.3951 21.9009 19.9172 21.9009C16.4401 21.9009 13.6211 24.6793 13.6211 28.1067C13.6211 31.534 16.4401 34.3124 19.9172 34.3124Z" fill="white"/>
<path d="M30.4376 30.2591C33.2549 29.8499 35.225 28.8796 35.835 27.5963C35.9616 27.3296 35.9734 27.2613 35.9734 26.5289C35.9734 26.0125 35.9506 25.6944 35.9042 25.5974L35.835 25.4438L35.6857 25.6708C34.626 27.2891 31.2155 28.2999 27.6498 28.197C27.638 28.9522 27.5174 29.6845 27.2988 30.3713C28.3873 30.4051 29.7128 30.3654 30.4384 30.2574L30.4376 30.2591Z" fill="white"/>
<path d="M35.8413 21.3501C35.8185 21.3501 35.7375 21.4522 35.6624 21.5712C35.5013 21.8437 35.0752 22.247 34.6314 22.5423C33.6982 23.1667 32.1718 23.6721 30.4489 23.9278C29.6195 24.0526 27.4477 24.0813 26.4453 23.9902C26.8891 24.677 27.2292 25.444 27.4308 26.2557C28.3294 26.2953 29.2567 26.2666 30.173 26.1536C33.0131 25.8127 35.179 24.7909 35.8244 23.4966C35.9628 23.2182 35.9797 23.1329 35.9974 22.5432C36.0143 21.9238 35.94 21.3509 35.8422 21.3509L35.8413 21.3501Z" fill="white"/>
<path d="M25.7367 22.1903C26.6353 22.327 28.7497 22.3777 29.7116 22.2865C32.7651 21.9971 35.1555 20.9408 35.8009 19.6009C35.9739 19.2431 35.9739 19.2372 35.9739 18.4593C35.9739 17.948 35.9511 17.6248 35.9047 17.5278L35.8414 17.3801L35.628 17.6982C34.9428 18.709 33.0933 19.5773 30.8583 19.935C29.3547 20.1738 27.3963 20.2075 25.9848 20.0202C24.7293 19.8498 23.4324 19.5038 22.5338 19.0946C21.7154 18.72 20.9037 18.0956 20.6151 17.6181C20.54 17.4991 20.4768 17.397 20.4649 17.397C20.4531 17.397 20.4135 17.4991 20.3789 17.6181C20.281 17.9471 20.2979 19.1343 20.4076 19.4119C20.5687 19.8321 20.891 20.2295 21.3585 20.5931C22.5279 20.8091 23.6054 21.2858 24.5208 21.9558C24.9064 22.0469 25.3157 22.1262 25.7367 22.1887V22.1903Z" fill="white"/>
<path d="M22.5225 17.37C23.4152 17.7792 24.7576 18.142 25.9844 18.3015C26.8661 18.4205 28.6059 18.4601 29.4927 18.3808C32.7707 18.0973 35.1551 17.0578 35.8411 15.6218C35.9617 15.372 35.9794 15.253 35.9963 14.6793C36.0191 13.9132 35.9449 13.5723 35.6563 13.1462C34.8379 11.9312 32.5918 11.0056 29.7863 10.7331C29.2851 10.6816 27.142 10.6706 26.6408 10.7162C24.6994 10.8807 22.7469 11.4773 21.5944 12.2493C21.1624 12.5387 20.7017 13.0154 20.5228 13.3622C20.2174 13.9528 20.2174 15.1391 20.5169 15.7188C20.8105 16.2976 21.6171 16.9625 22.5216 17.3708L22.5225 17.37Z" fill="white"/>
<path d="M12.2955 29.3672C10.8493 28.9015 9.82411 28.2602 9.30014 27.4764L9.16767 27.2781L9.09848 27.403C9.04702 27.4882 9.0293 27.7548 9.0293 28.3345C9.0293 29.0668 9.04111 29.1639 9.14995 29.3959C9.65114 30.4632 11.0855 31.3205 13.1822 31.82C12.7443 31.0648 12.4448 30.2413 12.2955 29.3672Z" fill="white"/>
<path d="M13.3738 24.0188C14.5897 22.1169 16.64 20.7821 19.0134 20.5096V16.7279L18.7654 16.6992C18.4372 16.6596 15.781 16.6199 15.5102 16.6478C14.0927 16.7954 13.1654 16.9768 12.2035 17.2949C10.6831 17.7944 9.58791 18.5437 9.1905 19.3672C9.02934 19.708 9.02344 19.7249 9.02344 20.491C9.02344 21.2631 9.02344 21.2749 9.19641 21.6267C9.69759 22.6713 11.218 23.5344 13.373 24.0171L13.3738 24.0188Z" fill="white"/>
<path d="M35.9028 29.5039L35.8395 29.3562L35.626 29.6743C34.8827 30.7703 32.8839 31.6504 30.3028 32.0081C29.508 32.1161 27.6298 32.133 26.5237 32.0537C26.0689 32.792 25.4867 33.445 24.8066 33.9901C25.2791 34.0922 25.7744 34.1715 26.2933 34.2289C27.1168 34.32 28.9604 34.3369 29.7839 34.2575C32.5894 33.985 34.8363 33.0594 35.6539 31.8444C35.9416 31.4133 36.0167 31.0783 35.988 30.3113C35.9762 29.9477 35.9365 29.5849 35.902 29.5047L35.9028 29.5039Z" fill="white"/>
<path d="M12.1987 27.619C12.2451 26.8976 12.3885 26.1998 12.6248 25.5408C12.0139 25.3704 11.4613 25.1662 11.0461 24.962C10.2918 24.5874 9.50798 23.9512 9.28354 23.5251C9.24304 23.4399 9.18566 23.3774 9.15698 23.3774C9.12829 23.3774 9.08188 23.5023 9.04729 23.65C9.0127 23.8086 8.99582 24.1891 9.00088 24.5756C9.01776 25.1603 9.03548 25.2514 9.16795 25.5239C9.60585 26.404 10.6833 27.1304 12.1979 27.619H12.1987Z" fill="white"/>
</g>
<defs>
<clipPath id="clip0_958_7470">
<rect width="27" height="27" fill="white" transform="translate(9 9)"/>
</clipPath>
</defs>
</svg>
