<svg width="228" height="181" viewBox="0 0 228 181" fill="none" xmlns="http://www.w3.org/2000/svg">
<g clip-path="url(#clip0_5262_3431)">
<rect width="227" height="180" transform="translate(0.5 0.787354)" fill="white"/>
<path d="M227.5 155.161H0.5V155.275H227.5V155.161Z" fill="#9FC9E0"/>
<path d="M204.756 162.501H189.719V162.615H204.756V162.501Z" fill="#EBEBEB" fill-opacity="0.8"/>
<path d="M150.876 163.738H146.93V163.852H150.876V163.738Z" fill="#EBEBEB" fill-opacity="0.8"/>
<path d="M189.264 158.266H180.551V158.38H189.264V158.266Z" fill="#EBEBEB" fill-opacity="0.8"/>
<path d="M43.926 159.032H24.3164V159.146H43.926V159.032Z" fill="#EBEBEB" fill-opacity="0.8"/>
<path d="M50.8439 159.032H47.9688V159.146H50.8439V159.032Z" fill="#EBEBEB" fill-opacity="0.8"/>
<path d="M102.716 160.958H60.1875V161.072H102.716V160.958Z" fill="#EBEBEB" fill-opacity="0.8"/>
<path d="M108.102 134.824H20.4352C19.0064 134.824 17.8438 133.656 17.8438 132.221V8.44831C17.8438 7.01328 19.0064 5.84546 20.4352 5.84546H108.102C109.53 5.84546 110.693 7.01328 110.693 8.44831V132.221C110.693 133.656 109.53 134.824 108.102 134.824ZM20.4352 5.95991C19.0686 5.95991 17.9572 7.0762 17.9572 8.44876V132.222C17.9572 133.594 19.0686 134.711 20.4352 134.711H108.102C109.468 134.711 110.58 133.594 110.58 132.222V8.44831C110.58 7.0762 109.468 5.95946 108.102 5.95946L20.4352 5.95991Z" fill="#9FC9E0"/>
<path d="M206.304 134.824H118.638C117.209 134.824 116.047 133.656 116.047 132.221V8.44831C116.047 7.01328 117.21 5.84546 118.638 5.84546H206.304C207.734 5.84546 208.896 7.01328 208.896 8.44831V132.221C208.896 133.656 207.734 134.824 206.304 134.824ZM118.638 5.95991C117.272 5.95991 116.16 7.0762 116.16 8.44876V132.222C116.16 133.594 117.272 134.711 118.638 134.711H206.304C207.671 134.711 208.782 133.594 208.782 132.222V8.44831C208.782 7.0762 207.671 5.95946 206.304 5.95946L118.638 5.95991Z" fill="#9FC9E0"/>
<path d="M163.636 67.5428C176.781 67.5428 187.437 56.84 187.437 43.6375C187.437 30.4349 176.781 19.7321 163.636 19.7321C150.492 19.7321 139.836 30.4349 139.836 43.6375C139.836 56.84 150.492 67.5428 163.636 67.5428Z" fill="#C7DDEC"/>
<path d="M161.828 67.5428C174.972 67.5428 185.628 56.84 185.628 43.6375C185.628 30.4349 174.972 19.7321 161.828 19.7321C148.683 19.7321 138.027 30.4349 138.027 43.6375C138.027 56.84 148.683 67.5428 161.828 67.5428Z" fill="#DDEAF3"/>
<path d="M177.38 59.2589C185.969 50.6318 185.969 36.6444 177.38 28.0173C168.79 19.3902 154.864 19.3902 146.275 28.0173C137.686 36.6445 137.686 50.6318 146.275 59.2589C154.864 67.8861 168.79 67.8861 177.38 59.2589Z" fill="#E8F1F7"/>
<path d="M165.577 59.7178C165.337 59.7178 165.118 59.5532 165.059 59.3079L161.312 43.7633C161.243 43.476 161.419 43.1864 161.705 43.1167C161.99 43.046 162.279 43.2234 162.348 43.5111L166.095 59.0557C166.164 59.343 165.989 59.6325 165.703 59.7023C165.661 59.7132 165.619 59.7178 165.577 59.7178Z" fill="#BCD6E8"/>
<path d="M161.828 44.7086C161.555 44.7086 161.282 44.6042 161.074 44.3949L148.203 31.4672C147.787 31.0491 147.787 30.371 148.203 29.9529C148.62 29.5343 149.294 29.5343 149.711 29.9529L161.828 42.1226L168.894 35.0259C169.311 34.6073 169.985 34.6073 170.402 35.0259C170.818 35.444 170.818 36.1221 170.402 36.5402L162.582 44.3949C162.374 44.6042 162.101 44.7086 161.828 44.7086Z" fill="#BCD6E8"/>
<path d="M101.063 151.832H104.648V127.163H101.063V151.832Z" fill="#DAE5EC"/>
<path d="M28.5135 155.161H102.281V151.832H28.5135V155.161Z" fill="#DAE5EC"/>
<path d="M101.065 127.164H26.1484V151.832H101.065V127.164Z" fill="#E8F1F7"/>
<path d="M96.2191 131.457H30.9961V145.546H96.2191V131.457Z" fill="#F0F6FA"/>
<path d="M47.7391 133.346H79.4756C80.0671 133.346 80.5506 132.859 80.5506 132.266V132.062C80.5506 131.469 80.0667 130.983 79.4756 130.983H47.7391C47.148 130.983 46.6641 131.469 46.6641 132.062V132.266C46.6641 132.86 47.148 133.346 47.7391 133.346Z" fill="#DAE5EC"/>
<path d="M24.5031 127.164L101.062 127.164V124.96L24.5031 124.96V127.164Z" fill="#DDEAF3"/>
<path d="M106.371 124.96H101.062V127.164H106.371V124.96Z" fill="#DAE5EC"/>
<path d="M195.581 101.117H188.59V155.161H195.581V101.117Z" fill="#DAE5EC"/>
<path d="M127.397 155.161H188.59V101.116H127.397V155.161Z" fill="#E8F1F7"/>
<path d="M126.836 150.417H180.562V121.512H126.836V150.417Z" fill="#F0F6FA"/>
<path d="M126.836 118.444H180.562V108.928H126.836V118.444Z" fill="#F0F6FA"/>
<path opacity="0.7" d="M181.042 121.511H180.562V150.416H181.042V121.511Z" fill="#E6E6E6" fill-opacity="0.8"/>
<path opacity="0.7" d="M181.042 108.927H180.562V118.444H181.042V108.927Z" fill="#E6E6E6" fill-opacity="0.8"/>
<path opacity="0.7" d="M195.581 103.397H127.242V104.619H195.581V103.397Z" fill="#A8CAE1"/>
<path d="M196.393 100.377H188.586V103.911H196.393V100.377Z" fill="#DAE5EC"/>
<path d="M126.576 103.911L188.586 103.911V100.377L126.576 100.377V103.911Z" fill="#DDEAF3"/>
<path d="M149.839 89.972C149.386 89.3313 149.173 88.5465 149.023 87.7745C148.907 86.9957 148.849 86.1977 148.903 85.4115C149.001 83.8374 149.341 82.282 149.892 80.8264C150.135 80.0827 150.489 79.391 150.802 78.681C151.162 77.9965 151.529 77.3157 151.935 76.6604C152.36 76.0175 152.796 75.3823 153.259 74.7708C153.753 74.1784 154.241 73.5865 154.784 73.038C154.522 73.7726 154.205 74.4639 153.895 75.1547C153.583 75.8442 153.305 76.5464 152.983 77.2209L152.106 79.276L151.703 80.3103L151.492 80.8228L151.312 81.3445C150.788 82.7229 150.382 84.1288 150.079 85.5584C149.925 86.2738 149.818 86.9975 149.761 87.733C149.704 88.469 149.7 89.2132 149.839 89.972Z" fill="#DAE5EC"/>
<path d="M141.029 91.18C141.069 90.0121 140.998 88.9132 140.744 87.9009C140.494 86.8895 140.048 85.9939 139.413 85.2378C138.769 84.4868 137.944 83.8689 137.014 83.3404C136.087 82.8005 135.061 82.3732 134 81.8748C135.164 81.7503 136.348 81.8689 137.489 82.2469C138.06 82.4343 138.616 82.6933 139.142 83.0235C139.661 83.3623 140.147 83.7722 140.564 84.2561C141.392 85.2323 141.867 86.5023 141.916 87.7381C141.966 88.9738 141.669 90.1891 141.029 91.18Z" fill="#DAE5EC"/>
<path d="M141.42 91.0208C141.373 89.692 141.266 88.4234 141.061 87.1909C140.853 85.9624 140.548 84.7741 140.067 83.6747C139.596 82.5702 138.955 81.5584 138.145 80.6477C137.333 79.7362 136.351 78.95 135.273 78.1666C136.586 78.3632 137.864 78.9204 138.953 79.7731C140.037 80.6309 140.911 81.7882 141.453 83.0736C142.011 84.3555 142.246 85.7454 142.241 87.1006C142.222 88.4558 141.989 89.806 141.42 91.0208Z" fill="#DAE5EC"/>
<path d="M149.238 88.6911C148.227 87.4161 147.438 85.9943 146.742 84.536C146.057 83.0709 145.496 81.5456 145.057 79.9838C144.606 78.4252 144.329 76.8128 144.181 75.1935C144.041 73.5733 144.101 71.9272 144.404 70.333C144.735 71.9308 144.987 73.479 145.355 75.0134C145.714 76.5446 146.077 78.0663 146.511 79.5757C146.934 81.0864 147.38 82.5939 147.845 84.1056C148.305 85.6204 148.788 87.1302 149.238 88.6911Z" fill="#DAE5EC"/>
<path d="M148.83 88.5767C147.679 87.4873 146.72 86.2301 145.842 84.9268C144.973 83.6154 144.212 82.231 143.558 80.7946C142.897 79.3613 142.386 77.8547 141.997 76.3207C141.622 74.7822 141.419 73.1917 141.474 71.6098C142.045 73.0927 142.541 74.5369 143.127 75.9559C143.711 77.3718 144.294 78.7786 144.933 80.168C145.564 81.5593 146.211 82.9469 146.87 84.339C147.525 85.7358 148.196 87.127 148.83 88.5767Z" fill="#DAE5EC"/>
<path d="M150.519 90.0345C149.227 89.3787 148.079 88.4987 147.003 87.5484C145.934 86.5871 144.957 85.5214 144.08 84.3746C143.193 83.2355 142.45 81.9779 141.828 80.6705C141.214 79.3572 140.782 77.9496 140.602 76.5154C141.382 77.7421 142.071 78.9409 142.863 80.0855C143.648 81.2287 144.432 82.3609 145.28 83.4544C146.119 84.5534 146.978 85.6409 147.858 86.7262C148.735 87.816 149.631 88.894 150.519 90.0345Z" fill="#DAE5EC"/>
<path d="M148.05 88.5839C146.798 88.0974 145.678 87.3409 144.653 86.4882C143.628 85.63 142.708 84.6418 141.912 83.5611C141.501 83.0299 141.156 82.4498 140.804 81.8785C140.495 81.2797 140.162 80.6965 139.928 80.0627C139.399 78.8292 139.09 77.5004 138.98 76.1698C139.692 77.3144 140.278 78.4484 140.984 79.5173C141.305 80.0663 141.683 80.5798 142.018 81.1147C142.394 81.6254 142.732 82.1585 143.123 82.6564C143.871 83.6747 144.658 84.6692 145.485 85.6437C146.309 86.625 147.162 87.5853 148.05 88.5839Z" fill="#DAE5EC"/>
<path d="M149.986 89.3665C149.39 88.9834 148.964 88.3678 148.633 87.7322C148.33 87.0819 148.084 86.3856 147.977 85.6729C147.742 84.2488 147.801 82.7873 148.094 81.4056C148.224 80.7084 148.439 80.0376 148.64 79.3655C148.897 78.7143 149.129 78.0531 149.439 77.4298C149.756 76.8105 150.076 76.1935 150.442 75.6062C150.834 75.0303 151.218 74.4557 151.662 73.919C151.517 74.6098 151.315 75.2624 151.118 75.914C150.911 76.5606 150.757 77.2223 150.547 77.857C150.355 78.4986 150.205 79.1471 150.012 79.7809L149.789 80.7435C149.713 81.0632 149.618 81.3801 149.575 81.7029C149.301 82.9838 149.157 84.2702 149.155 85.557C149.149 86.2027 149.21 86.8439 149.329 87.4855C149.447 88.128 149.643 88.7609 149.986 89.3665Z" fill="#DAE5EC"/>
<path d="M149.144 87.9109C148.128 86.8812 147.457 85.5369 147.039 84.1329C146.634 82.7221 146.478 81.2154 146.643 79.7398C146.668 79.3695 146.76 79.0084 146.817 78.6431L146.924 78.0987L147.083 77.5688C147.199 77.2186 147.3 76.8643 147.431 76.5218C147.581 76.1867 147.738 75.8552 147.896 75.5264L148.138 75.0366L148.432 74.5765L149.035 73.6746C149.481 73.1068 149.973 72.5761 150.483 72.0804C150.246 72.7717 149.933 73.3941 149.68 74.0416L149.322 75.0134L149.136 75.4904L148.994 75.9815C148.897 76.3071 148.799 76.6294 148.693 76.9482L148.47 77.9286L148.354 78.4151L148.285 78.9099C148.242 79.2391 148.161 79.5643 148.145 79.8958C147.995 81.2159 148.035 82.5479 148.197 83.8839C148.359 85.225 148.672 86.5584 149.144 87.9109Z" fill="#DAE5EC"/>
<path d="M147.225 87.3555L140.719 81.5401L141.683 89.433L147.225 87.3555Z" fill="#DAE5EC"/>
<path d="M134.688 86.2939H153.561L151.09 100.377H137.159L134.688 86.2939Z" fill="#E8F1F7"/>
<path d="M146.477 86.2939H153.559L151.088 100.377H147.368L146.477 86.2939Z" fill="#DAE5EC"/>
<path d="M170.237 90.0008C170.327 89.3487 170.294 88.729 170.159 88.1316C170.029 87.5379 169.853 86.9684 169.598 86.4271C169.101 85.3445 168.45 84.3354 167.677 83.3929C167.508 83.1421 167.285 82.9255 167.087 82.6929C166.886 82.4617 166.694 82.2223 166.484 81.9961C166.044 81.5602 165.641 81.086 165.193 80.6464C164.739 80.2145 164.312 79.7435 163.856 79.2975C163.401 78.8479 162.94 78.4001 162.512 77.8903C163.126 78.1192 163.708 78.4102 164.297 78.6993C164.878 78.9998 165.413 79.3764 165.961 79.7371C166.239 79.9131 166.487 80.1297 166.742 80.339C166.998 80.547 167.246 80.7649 167.498 80.9797C167.968 81.4471 168.441 81.9182 168.856 82.4458C169.704 83.4818 170.374 84.7139 170.72 86.0491C170.896 86.7139 170.954 87.4184 170.897 88.102C170.831 88.7805 170.642 89.4686 170.237 90.0008Z" fill="#DAE5EC"/>
<path d="M180.847 88.0901C180.371 87.6998 180.037 87.1398 179.825 86.5297C179.705 86.2237 179.671 85.8972 179.623 85.5657C179.61 85.4006 179.623 85.2347 179.626 85.0669C179.632 84.8995 179.627 84.7271 179.673 84.5671C179.901 83.2319 180.683 82.0787 181.597 81.2105C181.826 80.9902 182.081 80.8101 182.323 80.6099C182.573 80.422 182.812 80.2155 183.084 80.0714C183.351 79.9163 183.614 79.7581 183.884 79.6113C184.019 79.5383 184.15 79.4585 184.287 79.3924L184.708 79.2155C184.988 79.0987 185.27 78.987 185.553 78.8799C185.834 78.7686 186.119 78.6701 186.415 78.6026C187.005 78.4612 187.588 78.3171 188.189 78.2405C187.711 78.6309 187.215 78.9537 186.724 79.2793C186.473 79.4298 186.235 79.5999 185.999 79.7709C185.761 79.9387 185.523 80.101 185.283 80.2588C184.789 80.5561 184.367 80.9355 183.902 81.2529C183.664 81.4075 183.465 81.5981 183.256 81.7786C183.05 81.9597 182.823 82.1238 182.632 82.3149C181.847 83.065 181.188 83.8908 180.821 84.853C180.717 85.0915 180.683 85.3455 180.609 85.6013C180.587 85.8594 180.53 86.1275 180.549 86.3993C180.544 86.9469 180.649 87.5133 180.847 88.0901Z" fill="#DAE5EC"/>
<path d="M180.364 88.0901C179.536 87.0655 179.129 85.7107 179.096 84.3477C179.06 82.9761 179.444 81.5917 180.11 80.3956L180.656 79.5274C180.865 79.2611 181.088 79.0062 181.308 78.7508L181.643 78.3723L182.019 78.0417C182.27 77.8219 182.526 77.6085 182.781 77.3983C183.321 77.0175 183.886 76.6783 184.453 76.3627C185.056 76.1033 185.651 75.8438 186.27 75.6514C185.818 76.1366 185.344 76.5552 184.878 76.9738C184.443 77.4302 183.996 77.8566 183.568 78.2916C183.371 78.5251 183.173 78.7544 182.971 78.9779L182.668 79.3121L182.407 79.6751C182.234 79.9168 182.045 80.1457 181.877 80.3878L181.426 81.1407C180.862 82.1589 180.455 83.2488 180.277 84.4166C180.094 85.584 180.113 86.8129 180.364 88.0901Z" fill="#DAE5EC"/>
<path d="M170.816 88.7636C171.191 87.3532 171.603 85.9957 171.996 84.6377C172.394 83.283 172.777 81.9359 173.133 80.5862C173.473 79.2328 173.779 77.8798 174.041 76.5082C174.279 75.1324 174.438 73.753 174.563 72.292C175.067 73.6655 175.232 75.1539 175.223 76.6245C175.174 78.0932 174.953 79.552 174.594 80.9678C174.22 82.3792 173.72 83.7513 173.101 85.0641C172.47 86.3696 171.752 87.6387 170.816 88.7636Z" fill="#DAE5EC"/>
<path d="M171.289 88.5375C171.879 87.1467 172.514 85.8179 173.14 84.4891C173.769 83.1635 174.399 81.8489 175.005 80.5283C175.601 79.2036 176.186 77.8803 176.727 76.5319C177.257 75.1785 177.73 73.8123 178.186 72.3668C178.361 73.8725 178.182 75.4051 177.861 76.8862C177.512 78.3623 176.996 79.79 176.376 81.1621C175.746 82.5301 175.002 83.8389 174.165 85.0819C173.317 86.3163 172.396 87.5065 171.289 88.5375Z" fill="#DAE5EC"/>
<path d="M169.441 90.273C170.325 89.0495 171.241 87.8972 172.146 86.7417C173.053 85.5908 173.96 84.4508 174.844 83.2994C175.72 82.1416 176.585 80.9829 177.412 79.79C178.229 78.5898 178.994 77.3641 179.76 76.0576C179.596 77.5647 179.081 79.0184 178.438 80.3901C177.77 81.7508 176.951 83.0267 176.041 84.225C175.123 85.417 174.107 86.526 173.014 87.5497C171.912 88.5625 170.75 89.516 169.441 90.273Z" fill="#DAE5EC"/>
<path d="M172.219 88.2867C173.084 87.1941 173.955 86.1635 174.805 85.1207C175.657 84.0833 176.487 83.0427 177.294 81.9888C178.101 80.935 178.85 79.8488 179.586 78.7412C180.32 77.6277 180.954 76.4644 181.649 75.246C181.564 76.6391 181.19 78.018 180.633 79.3053C180.058 80.583 179.345 81.8033 178.494 82.9086C177.645 84.0158 176.694 85.0377 175.651 85.9515C174.601 86.8544 173.48 87.6852 172.219 88.2867Z" fill="#DAE5EC"/>
<path d="M170 89.5566C170.536 88.4859 170.72 87.3933 170.689 86.3495C170.649 85.3007 170.346 84.288 169.898 83.3162L169.746 82.9459L169.549 82.5903L169.169 81.8671C168.866 81.4074 168.59 80.925 168.278 80.4566C167.945 80.0038 167.646 79.5155 167.311 79.0458C166.973 78.5766 166.629 78.1069 166.324 77.5793C166.854 77.8556 167.344 78.1899 167.841 78.5246C168.325 78.8739 168.752 79.2934 169.196 79.6997C169.423 79.8985 169.601 80.147 169.8 80.375C169.995 80.6071 170.186 80.8438 170.372 81.0859L170.858 81.8721L171.09 82.2729L171.279 82.7029C171.799 83.8306 172.07 85.1471 171.871 86.4257C171.666 87.6879 171.022 88.8986 170 89.5566Z" fill="#DAE5EC"/>
<path d="M170.841 88.1001C171.222 86.9127 171.488 85.759 171.604 84.6208C171.719 83.4849 171.65 82.3746 171.363 81.3285C171.225 80.8037 171.029 80.2939 170.776 79.805C170.532 79.3116 170.235 78.8356 169.895 78.3768C169.224 77.4511 168.398 76.5962 167.523 75.7024C168.722 76.0549 169.834 76.6988 170.78 77.5811C171.257 78.018 171.674 78.5319 172.023 79.0964C172.377 79.6573 172.644 80.2811 172.82 80.9286C173.176 82.2264 173.13 83.6113 172.764 84.8534C172.392 86.0933 171.757 87.2383 170.841 88.1001Z" fill="#DAE5EC"/>
<path d="M173.062 87.0212L180.165 80.1721L179.88 86.8885L173.062 87.0212Z" fill="#DAE5EC"/>
<path d="M165.297 86.2939H184.171L181.699 100.377H167.768L165.297 86.2939Z" fill="#E8F1F7"/>
<path d="M177.086 86.2939H184.169L181.697 100.377H177.977L177.086 86.2939Z" fill="#DAE5EC"/>
<path d="M47.6593 22.1561V96.0035C47.6593 102.402 42.4951 107.589 36.125 107.589H89.7129C96.083 107.589 101.247 102.402 101.247 96.0035V22.1561H47.6593Z" fill="#E8F1F7"/>
<path d="M92.8262 40.8539H58.2109V75.6217H92.8262V40.8539Z" fill="#DAE5EC"/>
<path d="M91.7598 39.7837H57.1445V74.5514H91.7598V39.7837Z" fill="#F0F6FA"/>
<path d="M65.6482 79.701H56.8438V88.5443H65.6482V79.701Z" fill="#F0F6FA"/>
<path d="M91.7615 79.701H82.957V88.5443H91.7615V79.701Z" fill="#F0F6FA"/>
<path d="M78.7029 79.701H69.8984V88.5443H78.7029V79.701Z" fill="#F0F6FA"/>
<path d="M47.6562 22.1561V30.9474H101.244V22.1561H47.6562Z" fill="#DAE5EC"/>
<path d="M50.875 19.333V24.9797C50.875 25.8479 51.576 26.552 52.4404 26.552C53.3048 26.552 54.0058 25.8479 54.0058 24.9797V19.333C54.0058 18.4648 53.3048 17.7607 52.4404 17.7607C51.5755 17.7607 50.875 18.4643 50.875 19.333Z" fill="#BCD6E8"/>
<path d="M94.8984 19.333V24.9797C94.8984 25.8479 95.5994 26.552 96.4638 26.552C97.3282 26.552 98.0292 25.8479 98.0292 24.9797V19.333C98.0292 18.4648 97.3282 17.7607 96.4638 17.7607C95.5994 17.7607 94.8984 18.4643 94.8984 19.333Z" fill="#BCD6E8"/>
<path d="M86.0938 19.333V24.9797C86.0938 25.8479 86.7947 26.552 87.6591 26.552C88.5236 26.552 89.2245 25.8479 89.2245 24.9797V19.333C89.2245 18.4648 88.5236 17.7607 87.6591 17.7607C86.7947 17.7607 86.0938 18.4643 86.0938 19.333Z" fill="#BCD6E8"/>
<path d="M77.2891 19.333V24.9797C77.2891 25.8479 77.99 26.552 78.8545 26.552C79.7189 26.552 80.4198 25.8479 80.4198 24.9797V19.333C80.4198 18.4648 79.7189 17.7607 78.8545 17.7607C77.9896 17.7607 77.2891 18.4643 77.2891 19.333Z" fill="#BCD6E8"/>
<path d="M68.4844 19.333V24.9797C68.4844 25.8479 69.1854 26.552 70.0498 26.552C70.9142 26.552 71.6152 25.8479 71.6152 24.9797V19.333C71.6152 18.4648 70.9142 17.7607 70.0498 17.7607C69.1849 17.7607 68.4844 18.4643 68.4844 19.333Z" fill="#BCD6E8"/>
<path d="M59.6797 19.333V24.9797C59.6797 25.8479 60.3807 26.552 61.2451 26.552C62.1095 26.552 62.8105 25.8479 62.8105 24.9797V19.333C62.8105 18.4648 62.1095 17.7607 61.2451 17.7607C60.3802 17.7607 59.6797 18.4643 59.6797 19.333Z" fill="#BCD6E8"/>
<path d="M84.8869 102.742C84.8869 105.419 87.0475 107.589 89.7125 107.589H84.8869H29.4154C26.7504 107.589 24.5898 105.419 24.5898 102.742H84.8869Z" fill="#BCD6E8"/>
<path d="M114.002 175.755C162.617 175.755 202.028 173.443 202.028 170.592C202.028 167.74 162.617 165.429 114.002 165.429C65.387 165.429 25.9766 167.74 25.9766 170.592C25.9766 173.443 65.387 175.755 114.002 175.755Z" fill="#EBF4F9"/>
<path d="M120.562 44.2874C117.868 39.6207 111.132 39.6207 108.438 44.2873L63.4045 122.287C60.7102 126.954 64.0781 132.787 69.4667 132.787H159.533C164.922 132.787 168.29 126.954 165.596 122.287L120.562 44.2874Z" fill="#0F6DDB" fill-opacity="0.18" stroke="#0F6DDB" stroke-width="6"/>
<rect x="108.5" y="71.7874" width="11" height="29" fill="#0F6DDB"/>
<rect x="108.5" y="105.787" width="11" height="11" fill="#0F6DDB"/>
<path opacity="0.3" d="M138.199 89.0773C129.812 80.7928 113.908 60.3009 113.5 44.7874H116.483C117.88 63.6998 131.561 81.0615 138.199 89.0773Z" fill="white" fill-opacity="0.8"/>
<path opacity="0.3" d="M100.199 85.7874C91.8118 94.0718 75.4998 112.439 75.4998 130.077H86.6808C86.6808 112.439 95.6112 94.0712 100.199 85.7874Z" fill="white" fill-opacity="0.8"/>
</g>
<defs>
<clipPath id="clip0_5262_3431">
<rect width="227" height="180" fill="white" transform="translate(0.5 0.787354)"/>
</clipPath>
</defs>
</svg>
