<svg width="228" height="182" viewBox="0 0 228 182" fill="none" xmlns="http://www.w3.org/2000/svg">
<g clip-path="url(#clip0_5869_2229)">
<rect width="227" height="181.013" transform="translate(0.5)" fill="white"/>
<g opacity="0.7">
<path d="M281.716 -79.4935H-54V226.506H281.716V-79.4935Z" fill="white"/>
<path d="M20.0273 103.247C20.0273 102.786 21.155 102.389 22.7967 102.196C23.3697 102.128 23.8178 101.72 23.8918 101.197C24.1038 99.7011 24.54 98.6732 25.045 98.6732C25.55 98.6732 25.9863 99.7011 26.1983 101.197C26.2723 101.72 26.7203 102.128 27.2934 102.196C28.9351 102.389 30.0627 102.786 30.0627 103.247C30.0627 103.707 28.9351 104.105 27.2934 104.298C26.7203 104.365 26.2722 104.774 26.1983 105.296C25.9863 106.792 25.55 107.82 25.045 107.82C24.54 107.82 24.1038 106.792 23.8918 105.296C23.8177 104.774 23.3697 104.365 22.7967 104.298C21.155 104.105 20.0273 103.707 20.0273 103.247Z" fill="white"/>
<path d="M-0.789062 122.649C-0.789062 122.292 0.0849737 121.984 1.35725 121.834C1.80141 121.782 2.1487 121.466 2.20602 121.061C2.37036 119.901 2.70851 119.104 3.09987 119.104C3.49123 119.104 3.82938 119.901 3.99371 121.061C4.05103 121.466 4.39834 121.782 4.84249 121.834C6.11485 121.984 6.9888 122.292 6.9888 122.649C6.9888 123.006 6.11477 123.314 4.84249 123.464C4.39834 123.516 4.05103 123.833 3.99371 124.237C3.82938 125.397 3.49132 126.194 3.09987 126.194C2.70843 126.194 2.37036 125.397 2.20602 124.237C2.1487 123.833 1.80141 123.516 1.35725 123.464C0.0848898 123.314 -0.789062 123.006 -0.789062 122.649Z" fill="white"/>
<path d="M7.60164 103.379C8.42864 102.626 8.42864 101.404 7.60164 100.65C6.77464 99.8959 5.4338 99.8959 4.6068 100.65C3.77979 101.404 3.77979 102.626 4.60679 103.379C5.4338 104.133 6.77463 104.133 7.60164 103.379Z" fill="white"/>
<path d="M223.495 112.179C224.633 111.934 225.338 110.894 225.069 109.857C224.801 108.819 223.66 108.177 222.522 108.422C221.384 108.667 220.679 109.706 220.948 110.744C221.216 111.781 222.357 112.424 223.495 112.179Z" fill="white"/>
<path d="M169.988 161.515C169.96 161.515 169.931 161.514 169.903 161.514C166.805 161.455 163.856 158.161 160.887 151.443L161.276 151.3C164.176 157.86 167.001 161.076 169.912 161.131C172.86 161.188 175.998 157.877 179.262 151.292L179.645 151.45C176.287 158.22 173.127 161.515 169.988 161.515Z" fill="#BCD6E8"/>
<path d="M170.001 162.662C169.962 162.662 169.924 162.662 169.885 162.661C166.178 162.591 162.95 159.162 159.728 151.871C159.425 151.186 159.789 150.406 160.541 150.13C161.292 149.853 162.149 150.185 162.452 150.871C165.757 158.348 168.352 159.954 169.947 159.984C171.273 160.017 174.141 158.853 178.124 150.82C178.458 150.146 179.328 149.848 180.067 150.151C180.807 150.456 181.135 151.249 180.801 151.922C177.17 159.244 173.735 162.662 170.001 162.662Z" fill="#BCD6E8"/>
<path d="M184.354 151.371H54.3978C49.6584 151.371 45.8164 147.869 45.8164 143.549V25.0963C45.8164 20.7764 49.6584 17.2745 54.3978 17.2745H184.354C189.093 17.2745 192.935 20.7764 192.935 25.0963V143.549C192.936 147.869 189.094 151.371 184.354 151.371Z" fill="#E8F1F7"/>
<path d="M184.349 151.562H54.3928C49.5451 151.562 45.6016 147.968 45.6016 143.549V25.0963C45.6016 20.6779 49.5451 17.0832 54.3928 17.0832H184.349C189.196 17.0832 193.14 20.6779 193.14 25.0963V143.549C193.14 147.968 189.196 151.562 184.349 151.562ZM54.3928 17.4657C49.7767 17.4657 46.0212 20.8888 46.0212 25.0963V143.549C46.0212 147.757 49.7767 151.18 54.3928 151.18H184.349C188.965 151.18 192.72 147.757 192.72 143.549V25.0963C192.72 20.8888 188.965 17.4657 184.349 17.4657H54.3928Z" fill="#BCD6E8"/>
<g opacity="0.3">
<path d="M192.502 25.0973V143.55C192.502 147.868 188.658 151.372 183.92 151.372H53.9647C50.297 151.372 47.1707 149.276 45.9453 146.331C46.9399 146.702 48.0267 146.904 49.164 146.904H148.058V140.658H181.65V146.556C185.158 145.573 187.701 142.601 187.701 139.086V20.6297C187.701 19.6505 187.504 18.7134 187.139 17.8489C190.282 19.0041 192.502 21.8116 192.502 25.0973Z" fill="#BCD6E8"/>
</g>
<g opacity="0.55">
<path d="M191.665 21.0084C190.359 20.2778 188.824 19.857 187.179 19.857H57.2229C52.4809 19.857 48.6412 23.3569 48.6412 27.6791V146.132C48.6412 147.631 49.1028 149.031 49.9043 150.221C47.4452 148.844 45.8086 146.369 45.8086 143.55V25.0973C45.8086 20.775 49.6483 17.2751 54.3903 17.2751H184.346C187.439 17.2751 190.154 18.7669 191.665 21.0084Z" fill="white"/>
</g>
<path d="M173.465 140.131H65.2951C61.3503 140.131 58.1523 137.216 58.1523 133.62V35.0254C58.1523 31.4297 61.3503 28.5148 65.2951 28.5148H173.465C177.41 28.5148 180.608 31.4297 180.608 35.0254V133.62C180.608 137.216 177.41 140.131 173.465 140.131Z" fill="#DAD6FC"/>
<path d="M173.46 140.322H65.2903C61.236 140.322 57.9375 137.316 57.9375 133.62V35.0253C57.9375 31.3299 61.2361 28.3235 65.2903 28.3235H173.46C177.514 28.3235 180.813 31.3299 180.813 35.0253V133.621C180.813 137.316 177.514 140.322 173.46 140.322ZM65.2903 28.706C61.4671 28.706 58.3571 31.5408 58.3571 35.0253V133.621C58.3571 137.105 61.4672 139.94 65.2903 139.94H173.46C177.283 139.94 180.393 137.105 180.393 133.621V35.0253C180.393 31.5408 177.283 28.706 173.46 28.706H65.2903Z" fill="#BCD6E8"/>
<path d="M173.449 140.131H65.2795C61.3347 140.131 58.1367 137.216 58.1367 133.62V35.0252C58.1367 31.4296 61.3347 28.5147 65.2795 28.5147H173.449C177.394 28.5147 180.592 31.4296 180.592 35.0252V133.62C180.592 137.216 177.394 140.131 173.449 140.131Z" fill="#F0F6FA"/>
<path d="M59.2188 151.371C64.4058 163.106 70.2916 166.091 77.5911 151.371Z" fill="#DAEAF3"/>
<path d="M68.1245 161.515C68.0962 161.515 68.068 161.514 68.0397 161.514C64.9419 161.455 61.9929 158.161 59.0234 151.443L59.4128 151.3C62.3126 157.86 65.1374 161.076 68.0483 161.131C71.0043 161.188 74.1344 157.877 77.3989 151.292L77.7817 151.45C74.4241 158.22 71.2641 161.515 68.1245 161.515Z" fill="#BCD6E8"/>
<g opacity="0.3">
<path d="M161.09 151.371C166.277 163.106 172.163 166.091 179.462 151.371Z" fill="#BCD6E8"/>
</g>
<g opacity="0.3">
<path d="M63.6172 151.468C68.8043 163.203 74.69 166.188 81.9896 151.468Z" fill="#E8F1F7"/>
</g>
<path d="M65.4217 81.4486L65.5048 98.278C65.5096 99.2575 64.6423 100.055 63.5676 100.06L59.8347 100.075C58.76 100.079 57.8849 99.2888 57.88 98.3092L57.7969 81.4799C57.792 80.5003 58.6593 79.7026 59.7341 79.6982L63.467 79.6829C64.5417 79.6785 65.4168 80.469 65.4217 81.4486Z" fill="#DAE5EC"/>
<path d="M59.8204 100.266C59.2484 100.266 58.7099 100.064 58.3033 99.6967C57.8944 99.3273 57.6677 98.8346 57.6652 98.3098L57.5821 81.4806C57.5796 80.9558 57.8013 80.4616 58.2066 80.0888C58.6119 79.716 59.152 79.5091 59.7282 79.5069L63.4612 79.4916C63.4641 79.4916 63.4673 79.4916 63.4703 79.4916C64.655 79.4916 65.6214 80.3675 65.6262 81.4477L65.7094 98.2774C65.7118 98.8022 65.4902 99.2964 65.0849 99.6691C64.6796 100.042 64.139 100.248 63.5633 100.251L59.8303 100.266C59.8271 100.266 59.8237 100.266 59.8204 100.266ZM63.4703 79.874C63.4678 79.874 63.4653 79.874 63.4629 79.874L59.7299 79.8893C59.2664 79.8911 58.8312 80.0577 58.5045 80.3581C58.1783 80.658 57.9996 81.0562 58.0017 81.479L58.0849 98.3083C58.0869 98.7311 58.2693 99.1274 58.5988 99.4252C58.9262 99.721 59.3598 99.8835 59.8204 99.8835C59.8229 99.8835 59.8257 99.8835 59.8287 99.8835L63.5617 99.8682C64.0251 99.8663 64.4604 99.7001 64.787 99.3998C65.1133 99.0998 65.2919 98.7016 65.2898 98.2788L65.2067 81.4492C65.2025 80.5792 64.4243 79.874 63.4703 79.874Z" fill="#BCD6E8"/>
<g opacity="0.55">
<path d="M57.884 84.629L57.8984 87.5497L65.2083 87.5197L65.1939 84.599L57.884 84.629Z" fill="white"/>
<path d="M57.6917 87.7428L57.6758 84.4396L65.4052 84.4082L65.4212 87.7114L57.6917 87.7428ZM58.097 84.8206L58.1097 87.3588L64.9998 87.3304L64.9872 84.7922L58.097 84.8206Z" fill="#BCD6E8"/>
</g>
<path d="M57.9304 94.4665L57.957 99.8665L65.2669 99.8365L65.2402 94.4366L57.9304 94.4665Z" fill="#BCD6E8"/>
<path d="M57.747 100.059L57.7188 94.2771L65.4482 94.2458L65.4765 100.028L57.747 100.059ZM58.14 94.6582L58.165 99.6755L65.0551 99.6471L65.0301 94.6298L58.14 94.6582Z" fill="#BCD6E8"/>
<g opacity="0.55">
<path d="M58.0385 81.7079L58.0469 83.406L65.3567 83.376L65.3484 81.678L58.0385 81.7079Z" fill="white"/>
<path d="M57.834 83.5989L57.8242 81.5183L65.5537 81.4869L65.5635 83.5675L57.834 83.5989ZM58.2455 81.8993L58.252 83.2148L65.1422 83.1864L65.1356 81.8709L58.2455 81.8993Z" fill="#BCD6E8"/>
</g>
<path d="M59.8106 101.222C58.9602 101.222 58.1598 100.922 57.5554 100.376C56.9472 99.8267 56.6103 99.0942 56.6067 98.3139L56.5235 81.485C56.5194 80.7047 56.8493 79.9699 57.4517 79.4156C58.0546 78.8613 58.8578 78.5542 59.7139 78.5505L63.4469 78.5352C63.4514 78.5352 63.4563 78.5352 63.4608 78.5352C64.312 78.5352 65.1127 78.8355 65.7172 79.3816C66.3254 79.9311 66.6623 80.6632 66.666 81.4435L66.7491 98.2727C66.7532 99.053 66.4233 99.7878 65.8209 100.342C65.2181 100.896 64.4144 101.203 63.5583 101.207L59.8258 101.222C59.8208 101.222 59.8154 101.222 59.8106 101.222ZM63.4607 80.8302C63.4599 80.8302 63.4586 80.8302 63.4579 80.8302L59.7253 80.8455C59.5416 80.8463 59.3696 80.912 59.2405 81.0312C59.111 81.15 59.0405 81.3072 59.0413 81.4746L59.1245 98.3038C59.1254 98.4715 59.1975 98.6284 59.3278 98.7461C59.4573 98.863 59.6286 98.9272 59.811 98.9272C59.8122 98.9272 59.813 98.9272 59.8142 98.9272L63.5472 98.9119C63.7312 98.9112 63.9034 98.8455 64.0324 98.7267C64.1615 98.6079 64.232 98.4506 64.2312 98.2833L64.148 81.4536V81.4533C64.1472 81.2863 64.0751 81.1294 63.9447 81.0118C63.8151 80.8945 63.6431 80.8302 63.4607 80.8302Z" fill="#BCD6E8"/>
<path d="M65.4217 99.8481L65.5048 116.677C65.5096 117.657 64.6423 118.455 63.5676 118.459L59.8347 118.474C58.76 118.479 57.8849 117.688 57.88 116.709L57.7969 99.8794C57.792 98.8998 58.6593 98.1022 59.7341 98.0977L63.467 98.0824C64.5417 98.0781 65.4168 98.8686 65.4217 99.8481Z" fill="#DAE5EC"/>
<path d="M59.8212 118.666C58.6365 118.666 57.6701 117.79 57.6652 116.71L57.5821 99.8801C57.5796 99.3553 57.8013 98.8611 58.2066 98.4884C58.6119 98.1156 59.152 97.9086 59.7282 97.9064L63.4612 97.8911C63.4641 97.8911 63.4673 97.8911 63.4703 97.8911C64.655 97.8911 65.6214 98.767 65.6262 99.8473L65.7094 116.677C65.7118 117.202 65.4902 117.696 65.0849 118.069C64.6796 118.441 64.1394 118.648 63.5633 118.651L59.8303 118.666C59.8273 118.666 59.8241 118.666 59.8212 118.666ZM63.4702 98.2735C63.4677 98.2735 63.4652 98.2735 63.4628 98.2735L59.7298 98.2888C59.2663 98.2906 58.8311 98.4572 58.5044 98.7576C58.1782 99.0575 57.9995 99.4557 58.0016 99.8785L58.0848 116.708C58.0889 117.578 58.8671 118.283 59.8211 118.283C59.8235 118.283 59.8261 118.283 59.8285 118.283L63.5615 118.268C64.0249 118.266 64.4602 118.1 64.7868 117.799C65.1131 117.499 65.2918 117.101 65.2897 116.678L65.2065 99.8487C65.2024 98.9787 64.4242 98.2735 63.4702 98.2735Z" fill="#BCD6E8"/>
<g opacity="0.55">
<path d="M57.884 103.029L57.8984 105.949L65.2083 105.919L65.1939 102.999L57.884 103.029Z" fill="white"/>
<path d="M57.6917 106.142L57.6758 102.839L65.4052 102.808L65.4212 106.111L57.6917 106.142ZM58.097 103.22L58.1097 105.758L64.9998 105.73L64.9872 103.192L58.097 103.22Z" fill="#BCD6E8"/>
</g>
<path d="M57.9304 112.866L57.957 118.266L65.2669 118.236L65.2402 112.836L57.9304 112.866Z" fill="#BCD6E8"/>
<path d="M57.747 118.459L57.7188 112.677L65.4482 112.645L65.4765 118.428L57.747 118.459ZM58.14 113.058L58.165 118.075L65.0551 118.047L65.0301 113.029L58.14 113.058Z" fill="#BCD6E8"/>
<g opacity="0.55">
<path d="M58.0385 100.107L58.0469 101.806L65.3567 101.776L65.3484 100.077L58.0385 100.107Z" fill="white"/>
<path d="M57.834 101.998L57.8242 99.9179L65.5537 99.8865L65.5635 101.967L57.834 101.998ZM58.2455 100.299L58.252 101.614L65.1422 101.586L65.1356 100.27L58.2455 100.299Z" fill="#BCD6E8"/>
</g>
<path d="M59.8118 119.622C58.9606 119.622 58.1598 119.322 57.5554 118.776C56.9472 118.226 56.6103 117.494 56.6066 116.714L56.5235 99.8847C56.5194 99.1044 56.8493 98.3696 57.4517 97.8153C58.0546 97.2609 58.8578 96.9539 59.7139 96.9501L63.4469 96.9348C63.4514 96.9348 63.4563 96.9348 63.4608 96.9348C64.312 96.9348 65.1127 97.2352 65.7172 97.7812C66.3254 98.3307 66.6623 99.0628 66.666 99.8431L66.7491 116.672C66.7532 117.453 66.4233 118.187 65.8209 118.742C65.2181 119.296 64.4148 119.603 63.5587 119.607L59.8258 119.622C59.8212 119.622 59.8163 119.622 59.8118 119.622ZM63.4608 99.2297C63.46 99.2297 63.4587 99.2297 63.4579 99.2297L59.7254 99.245C59.5417 99.2458 59.3697 99.3115 59.2406 99.4307C59.1111 99.5495 59.0406 99.7067 59.0414 99.8741L59.1246 116.704C59.1254 116.871 59.1975 117.028 59.3279 117.146C59.4574 117.263 59.6295 117.327 59.8119 117.327C59.8127 117.327 59.8139 117.327 59.8147 117.327L63.5473 117.312C63.731 117.311 63.903 117.245 64.0321 117.126C64.1616 117.007 64.2321 116.85 64.2313 116.683L64.1481 99.8531V99.8528C64.1473 99.6858 64.0752 99.5289 63.9448 99.4113C63.8152 99.294 63.6432 99.2297 63.4608 99.2297Z" fill="#BCD6E8"/>
<path d="M65.4217 110.423L65.5048 127.253C65.5096 128.232 64.6423 129.03 63.5676 129.034L59.8347 129.05C58.76 129.054 57.8849 128.264 57.88 127.284L57.7969 110.455C57.792 109.475 58.6593 108.677 59.7341 108.673L63.467 108.658C64.5417 108.653 65.4168 109.444 65.4217 110.423Z" fill="#DAE5EC"/>
<path d="M59.8204 129.241C59.2484 129.241 58.7099 129.039 58.3033 128.672C57.8944 128.302 57.6677 127.81 57.6652 127.285L57.5821 110.455C57.5796 109.93 57.8013 109.436 58.2066 109.063C58.6119 108.691 59.1524 108.484 59.7282 108.482L63.4612 108.467C64.0395 108.481 64.5796 108.666 64.9881 109.036C65.3971 109.405 65.6237 109.898 65.6262 110.423L65.7094 127.252C65.7118 127.777 65.4902 128.271 65.0849 128.644C64.6796 129.017 64.1394 129.223 63.5633 129.226L59.8303 129.241C59.8271 129.241 59.8237 129.241 59.8204 129.241ZM63.471 108.849C63.4686 108.849 63.4657 108.849 63.4628 108.849L59.7298 108.864C59.2663 108.866 58.8311 109.032 58.5044 109.333C58.1782 109.633 57.9995 110.031 58.0016 110.454L58.0848 127.283C58.0868 127.706 58.2692 128.102 58.5987 128.4C58.9261 128.696 59.3597 128.859 59.8204 128.859C59.8228 128.859 59.8256 128.859 59.8286 128.859L63.5616 128.843C64.025 128.841 64.4603 128.675 64.7869 128.374C65.1132 128.074 65.2919 127.676 65.2898 127.253L65.2066 110.424C65.2046 110.001 65.0222 109.605 64.6927 109.307C64.3653 109.012 63.9317 108.849 63.471 108.849Z" fill="#BCD6E8"/>
<g opacity="0.55">
<path d="M57.884 113.604L57.8984 116.525L65.2083 116.495L65.1939 113.574L57.884 113.604Z" fill="white"/>
<path d="M57.6917 116.718L57.6758 113.414L65.4052 113.383L65.4212 116.686L57.6917 116.718ZM58.097 113.795L58.1097 116.334L64.9998 116.305L64.9872 113.767L58.097 113.795Z" fill="#BCD6E8"/>
</g>
<path d="M57.9304 123.441L57.957 128.841L65.2669 128.811L65.2402 123.411L57.9304 123.441Z" fill="#BCD6E8"/>
<path d="M57.747 129.034L57.7188 123.252L65.4482 123.22L65.4765 129.003L57.747 129.034ZM58.14 123.633L58.165 128.65L65.0551 128.622L65.0301 123.604L58.14 123.633Z" fill="#BCD6E8"/>
<g opacity="0.55">
<path d="M58.0385 110.683L58.0469 112.381L65.3567 112.351L65.3484 110.653L58.0385 110.683Z" fill="white"/>
<path d="M57.834 112.573L57.8242 110.493L65.5537 110.461L65.5635 112.542L57.834 112.573ZM58.2455 110.874L58.252 112.189L65.1422 112.161L65.1356 110.845L58.2455 110.874Z" fill="#BCD6E8"/>
</g>
<path d="M59.8106 130.197C58.9602 130.197 58.1598 129.897 57.5554 129.351C56.9472 128.801 56.6103 128.069 56.6067 127.289L56.5235 110.46C56.5194 109.679 56.8493 108.945 57.4517 108.39C58.0546 107.836 58.8582 107.529 59.7143 107.526L63.4469 107.51C63.4518 107.51 63.4571 107.51 63.4621 107.51C64.3124 107.51 65.1128 107.811 65.7172 108.356C66.3254 108.906 66.6623 109.638 66.666 110.419L66.7491 127.247C66.7532 128.028 66.4233 128.763 65.8209 129.317C65.2181 129.871 64.4148 130.178 63.5587 130.182L59.8258 130.197C59.8208 130.197 59.8154 130.197 59.8106 130.197ZM63.4615 109.805C63.4602 109.805 63.4594 109.805 63.4582 109.805L59.7252 109.821C59.5412 109.821 59.3691 109.887 59.24 110.006C59.1109 110.125 59.0404 110.282 59.0413 110.449L59.1244 127.279C59.1253 127.446 59.1974 127.603 59.3277 127.721C59.4581 127.839 59.6318 127.916 59.8142 127.902L63.5472 127.887C63.7308 127.886 63.9028 127.82 64.0319 127.701C64.1614 127.582 64.2319 127.425 64.2311 127.258L64.1479 110.429V110.428C64.1471 110.261 64.075 110.104 63.9446 109.986C63.8151 109.869 63.6438 109.805 63.4615 109.805Z" fill="#BCD6E8"/>
<path d="M88.9265 89.879C95.9189 89.879 101.587 84.7123 101.587 78.3388C101.587 71.9654 95.9189 66.7986 88.9265 66.7986C81.9341 66.7986 76.2656 71.9654 76.2656 78.3388C76.2656 84.7123 81.9341 89.879 88.9265 89.879Z" fill="#DAE5EC"/>
<path d="M88.9216 90.07C81.8245 90.07 76.0508 84.8073 76.0508 78.3387C76.0508 71.8698 81.8246 66.6073 88.9216 66.6073C96.0183 66.6073 101.792 71.8699 101.792 78.3387C101.792 84.8073 96.0182 90.07 88.9216 90.07ZM88.9216 66.9898C82.0561 66.9898 76.4704 72.0809 76.4704 78.3387C76.4704 84.5966 82.0562 89.6875 88.9216 89.6875C95.7872 89.6875 101.372 84.5966 101.372 78.3387C101.372 72.0809 95.7871 66.9898 88.9216 66.9898Z" fill="#BCD6E8"/>
<g opacity="0.55">
<path d="M97.8309 86.3365C98.9904 84.5872 99.6634 82.5404 99.6634 80.3477C99.6634 77.9304 98.8437 75.6831 97.4444 73.8306C95.3054 75.1729 92.7199 72.6705 94.1459 70.8241C92.1135 69.5547 89.6546 68.8076 87.0025 68.8076C83.5308 68.8076 80.3989 70.077 78.1133 72.1421C80.3323 68.8258 84.3437 66.6089 88.9216 66.6089C95.9118 66.6089 101.583 71.7777 101.583 78.1491C101.582 81.3499 100.15 84.2531 97.8309 86.3365Z" fill="white"/>
</g>
<path d="M88.9229 84.389C92.5889 84.389 95.5607 81.6802 95.5607 78.3387C95.5607 74.9973 92.5889 72.2885 88.9229 72.2885C85.257 72.2885 82.2852 74.9973 82.2852 78.3387C82.2852 81.6802 85.257 84.389 88.9229 84.389Z" fill="#BCD6E8"/>
<g opacity="0.55">
<path d="M93.5427 82.6693C92.3299 84.0602 90.4575 84.947 88.3584 84.947C86.8525 84.947 85.4598 84.4914 84.3469 83.7201C82.9543 84.54 81.375 82.7968 82.4745 81.7036C81.988 80.8654 81.7148 79.9118 81.7148 78.8975C81.7148 77.1908 82.4945 75.642 83.7473 74.5487C82.8277 75.5812 82.2746 76.9054 82.2746 78.3387C82.2746 81.6793 85.2466 84.3882 88.9182 84.3882C90.7173 84.3882 92.3499 83.7323 93.5427 82.6693Z" fill="white"/>
</g>
<g opacity="0.3">
<path d="M95.557 78.3388C95.557 80.1426 94.6907 81.7644 93.3114 82.8637C94.131 81.8616 94.6107 80.6165 94.6107 79.2741C94.6107 75.9335 91.6387 73.2247 87.9738 73.2247C86.2813 73.2247 84.7353 73.8078 83.5625 74.7613C84.7686 73.2611 86.721 72.2893 88.92 72.2893C92.585 72.2892 95.557 74.9982 95.557 78.3388Z" fill="#BCD6E8"/>
</g>
<path d="M88.9121 91.0263C81.2368 91.0263 74.9922 85.3347 74.9922 78.3387C74.9922 71.3428 81.2368 65.6511 88.9121 65.6511C96.5875 65.6511 102.832 71.3428 102.832 78.3387C102.832 85.3347 96.5875 91.0263 88.9121 91.0263ZM88.9121 67.9461C82.6249 67.9461 77.5101 72.6084 77.5101 78.3387C77.5101 84.0691 82.6249 88.7313 88.9121 88.7313C95.199 88.7313 100.314 84.0692 100.314 78.3387C100.314 72.6084 95.199 67.9461 88.9121 67.9461Z" fill="#BCD6E8"/>
<g opacity="0.3">
<path d="M180.593 35.027V55.6782C180.593 52.0827 177.396 49.1681 173.451 49.1681H65.2791C61.3344 49.1681 58.1367 52.0827 58.1367 55.6782V35.027C58.1367 31.4315 61.3344 28.5131 65.2791 28.5131H173.451C177.396 28.5131 180.593 31.4315 180.593 35.027Z" fill="#A7CAE2" fill-opacity="0.61"/>
</g>
<path d="M184.35 152.71H54.3939C48.8521 152.71 44.3438 148.601 44.3438 143.549V25.0963C44.3438 20.0452 48.8521 15.9357 54.3939 15.9357H184.35C189.892 15.9357 194.4 20.0452 194.4 25.0963V143.549C194.4 148.601 189.892 152.71 184.35 152.71ZM54.3939 18.6132C50.4721 18.6132 47.2813 21.5216 47.2813 25.0963V143.549C47.2813 147.124 50.4721 150.032 54.3939 150.032H184.35C188.272 150.032 191.462 147.124 191.462 143.549V25.0963C191.462 21.5215 188.272 18.6132 184.35 18.6132H54.3939Z" fill="#DAE5EC"/>
<path d="M88.5319 102.805C95.5243 102.805 101.193 97.6385 101.193 91.265C101.193 84.8916 95.5243 79.7249 88.5319 79.7249C81.5395 79.7249 75.8711 84.8916 75.8711 91.265C75.8711 97.6385 81.5395 102.805 88.5319 102.805Z" fill="#DAE5EC"/>
<g opacity="0.55">
<path d="M97.4442 99.2629C98.6036 97.5136 99.2767 95.4668 99.2767 93.2741C99.2767 90.8568 98.457 88.6095 97.0577 86.757C94.9187 88.0993 92.3331 85.5969 93.7592 83.7505C91.7268 82.481 89.268 81.734 86.6158 81.734C83.1441 81.734 80.0122 83.0035 77.7266 85.0685C79.9456 81.7522 83.957 79.5353 88.5349 79.5353C95.525 79.5353 101.196 84.7041 101.196 91.0755C101.196 94.2763 99.763 97.1795 97.4442 99.2629Z" fill="white"/>
</g>
<path d="M88.5323 97.3152C92.1982 97.3152 95.1701 94.6064 95.1701 91.2649C95.1701 87.9235 92.1982 85.2147 88.5323 85.2147C84.8664 85.2147 81.8945 87.9235 81.8945 91.2649C81.8945 94.6064 84.8664 97.3152 88.5323 97.3152Z" fill="#BCD6E8"/>
<g opacity="0.55">
<path d="M93.1677 95.5957C91.9549 96.9865 90.0825 97.8733 87.9834 97.8733C86.4775 97.8733 85.0848 97.4178 83.9719 96.6464C82.5793 97.4663 81 95.7232 82.0995 94.6299C81.613 93.7917 81.3398 92.8381 81.3398 91.8238C81.3398 90.1171 82.1195 88.5682 83.3722 87.475C82.4526 88.5075 81.8995 89.8316 81.8995 91.265C81.8995 94.6055 84.8715 97.3145 88.5431 97.3145C90.3423 97.3146 91.9749 96.6586 93.1677 95.5957Z" fill="white"/>
</g>
<g opacity="0.3">
<path d="M95.1781 91.265C95.1781 93.0689 94.3118 94.6906 92.9324 95.79C93.7521 94.7879 94.2318 93.5428 94.2318 92.2004C94.2318 88.8599 91.2598 86.1509 87.5949 86.1509C85.9024 86.1509 84.3564 86.734 83.1836 87.6876C84.3897 86.1874 86.3422 85.2156 88.5411 85.2156C92.206 85.2156 95.1781 87.9244 95.1781 91.265Z" fill="#BCD6E8"/>
</g>
<path d="M88.5371 103.953C80.8618 103.953 74.6172 98.2609 74.6172 91.265C74.6172 84.269 80.8618 78.5775 88.5371 78.5775C96.2124 78.5775 102.457 84.269 102.457 91.265C102.457 98.261 96.2124 103.953 88.5371 103.953ZM88.5371 80.8725C82.2499 80.8725 77.1351 85.5345 77.1351 91.265C77.1351 96.9957 82.2499 101.658 88.5371 101.658C94.824 101.658 99.9389 96.9957 99.9389 91.265C99.9389 85.5345 94.824 80.8725 88.5371 80.8725Z" fill="#BCD6E8"/>
<path d="M70.9577 109.387C77.9501 109.387 83.6186 104.22 83.6186 97.8468C83.6186 91.4734 77.9501 86.3066 70.9577 86.3066C63.9653 86.3066 58.2969 91.4734 58.2969 97.8468C58.2969 104.22 63.9653 109.387 70.9577 109.387Z" fill="#DAE5EC"/>
<g opacity="0.55">
<path d="M79.8582 105.845C81.0177 104.095 81.6907 102.048 81.6907 99.8558C81.6907 97.4385 80.8711 95.1911 79.4717 93.3387C77.3327 94.6809 74.7472 92.1786 76.1732 90.3322C74.1408 89.0627 71.6819 88.3157 69.0299 88.3157C65.5582 88.3157 62.4263 89.5851 60.1406 91.6502C62.3596 88.3339 66.3711 86.117 70.949 86.117C77.9391 86.117 83.6098 91.2858 83.6098 97.6572C83.6098 100.858 82.1772 103.761 79.8582 105.845Z" fill="white"/>
</g>
<path d="M70.9503 103.897C74.6162 103.897 77.5881 101.188 77.5881 97.8467C77.5881 94.5052 74.6162 91.7964 70.9503 91.7964C67.2843 91.7964 64.3125 94.5052 64.3125 97.8467C64.3125 101.188 67.2843 103.897 70.9503 103.897Z" fill="#BCD6E8"/>
<g opacity="0.55">
<path d="M75.5779 102.177C74.3651 103.568 72.4926 104.455 70.3936 104.455C68.8876 104.455 67.4949 103.999 66.3821 103.228C64.9895 104.048 63.4102 102.305 64.5096 101.212C64.0232 100.373 63.75 99.4199 63.75 98.4056C63.75 96.6989 64.5296 95.15 65.7824 94.0568C64.8628 95.0893 64.3097 96.4134 64.3097 97.8468C64.3097 101.187 67.2817 103.896 70.9534 103.896C72.7525 103.896 74.3851 103.24 75.5779 102.177Z" fill="white"/>
</g>
<g opacity="0.3">
<path d="M77.5921 97.8467C77.5921 99.6506 76.7259 101.272 75.3465 102.372C76.1662 101.37 76.6459 100.124 76.6459 98.7821C76.6459 95.4415 73.6739 92.7326 70.009 92.7326C68.3165 92.7326 66.7705 93.3157 65.5977 94.2693C66.8038 92.769 68.7562 91.7972 70.9552 91.7972C74.6202 91.7972 77.5921 94.5062 77.5921 97.8467Z" fill="#BCD6E8"/>
</g>
<path d="M70.947 110.535C63.2717 110.535 57.0273 104.843 57.0273 97.8467C57.0273 90.8508 63.2716 85.1592 70.947 85.1592C78.6224 85.1592 84.8669 90.8507 84.8669 97.8467C84.8669 104.843 78.6223 110.535 70.947 110.535ZM70.947 87.4542C64.6601 87.4542 59.5452 92.1162 59.5452 97.8467C59.5452 103.577 64.66 108.24 70.947 108.24C77.2343 108.24 82.3491 103.577 82.3491 97.8467C82.3491 92.1162 77.2343 87.4542 70.947 87.4542Z" fill="#BCD6E8"/>
<path d="M71.8874 125.869C78.8798 125.869 84.5483 120.702 84.5483 114.329C84.5483 107.955 78.8798 102.789 71.8874 102.789C64.895 102.789 59.2266 107.955 59.2266 114.329C59.2266 120.702 64.895 125.869 71.8874 125.869Z" fill="#DAE5EC"/>
<g opacity="0.55">
<path d="M80.7957 122.327C81.9552 120.577 82.6282 118.53 82.6282 116.338C82.6282 113.921 81.8086 111.673 80.4092 109.821C78.2702 111.163 75.6847 108.661 77.1107 106.814C75.0784 105.545 72.6195 104.798 69.9674 104.798C66.4957 104.798 63.3638 106.067 61.0781 108.132C63.2971 104.816 67.3086 102.599 71.8865 102.599C78.8766 102.599 84.5473 107.768 84.5473 114.139C84.5473 117.34 83.1147 120.243 80.7957 122.327Z" fill="white"/>
</g>
<path d="M71.88 120.379C75.5459 120.379 78.5177 117.67 78.5177 114.329C78.5177 110.987 75.5459 108.279 71.88 108.279C68.214 108.279 65.2422 110.987 65.2422 114.329C65.2422 117.67 68.214 120.379 71.88 120.379Z" fill="#BCD6E8"/>
<g opacity="0.55">
<path d="M76.5115 118.659C75.2987 120.05 73.4262 120.937 71.3272 120.937C69.8212 120.937 68.4285 120.481 67.3157 119.71C65.9231 120.53 64.3438 118.787 65.4432 117.694C64.9568 116.855 64.6836 115.902 64.6836 114.888C64.6836 113.181 65.4632 111.632 66.716 110.539C65.7964 111.571 65.2433 112.895 65.2433 114.329C65.2433 117.669 68.2153 120.378 71.887 120.378C73.6861 120.378 75.3187 119.722 76.5115 118.659Z" fill="white"/>
</g>
<g opacity="0.3">
<path d="M78.5296 114.329C78.5296 116.133 77.6634 117.755 76.284 118.854C77.1037 117.852 77.5834 116.607 77.5834 115.264C77.5834 111.924 74.6114 109.215 70.9465 109.215C69.254 109.215 67.708 109.798 66.5352 110.751C67.7413 109.251 69.6937 108.279 71.8927 108.279C75.5577 108.279 78.5296 110.988 78.5296 114.329Z" fill="#BCD6E8"/>
</g>
<path d="M71.8845 127.016C64.2092 127.016 57.9648 121.325 57.9648 114.329C57.9648 107.333 64.2091 101.641 71.8845 101.641C79.5599 101.641 85.8044 107.333 85.8044 114.329C85.8044 121.325 79.5598 127.016 71.8845 127.016ZM71.8845 103.936C65.5976 103.936 60.4827 108.598 60.4827 114.329C60.4827 120.059 65.5975 124.721 71.8845 124.721C78.1718 124.721 83.2866 120.059 83.2866 114.329C83.2866 108.598 78.1718 103.936 71.8845 103.936Z" fill="#BCD6E8"/>
<path d="M173.445 141.47H65.2758C60.5273 141.47 56.6641 137.949 56.6641 133.62V35.0253C56.6641 30.6972 60.5273 27.176 65.2758 27.176H173.445C178.194 27.176 182.057 30.6972 182.057 35.0253V133.621C182.057 137.949 178.194 141.47 173.445 141.47ZM65.2758 29.8535C62.1469 29.8535 59.6016 32.1735 59.6016 35.0253V133.621C59.6016 136.472 62.1469 138.792 65.2758 138.792H173.445C176.574 138.792 179.12 136.472 179.12 133.621V35.0253C179.12 32.1735 176.574 29.8535 173.445 29.8535H65.2758Z" fill="#DAE5EC"/>
<path d="M77.3943 138.358C83.4976 134.691 85.5633 127.733 82.0081 122.816C78.4529 117.899 70.6231 116.885 64.5198 120.552C58.4165 124.218 56.3508 131.176 59.906 136.093C63.4612 141.01 71.291 142.024 77.3943 138.358Z" fill="#DAE5EC"/>
<g opacity="0.55">
<path d="M74.0804 118.579C71.8158 118.77 69.5136 119.474 67.4141 120.735C65.0993 122.126 63.3642 123.995 62.3018 126.045C64.6747 126.777 63.5931 130.034 61.1 130.094C60.9178 132.253 61.4527 134.412 62.8012 136.277C64.5663 138.718 67.3744 140.19 70.5139 140.609C66.2101 140.956 62.0476 139.411 59.72 136.192C56.1658 131.277 58.2319 124.316 64.3329 120.651C67.3979 118.809 70.9064 118.147 74.0804 118.579Z" fill="white"/>
</g>
<path d="M74.3367 134.122C77.5365 132.2 78.6194 128.552 76.7555 125.974C74.8916 123.396 70.7866 122.865 67.5867 124.787C64.3869 126.709 63.304 130.357 65.1679 132.935C67.0319 135.513 71.1368 136.044 74.3367 134.122Z" fill="#BCD6E8"/>
<g opacity="0.55">
<path d="M72.7485 123.699C74.697 123.752 76.4982 124.558 77.5656 126.034C78.3313 127.093 78.6032 128.335 78.4304 129.561C79.9236 130.068 79.0574 132.182 77.4515 132.037C76.8962 132.862 76.122 133.602 75.1508 134.186C73.5164 135.168 71.637 135.51 69.9531 135.258C71.4094 135.311 72.9585 134.938 74.3311 134.114C77.5299 132.192 78.6128 128.544 76.7458 125.962C75.8311 124.697 74.3728 123.926 72.7485 123.699Z" fill="white"/>
</g>
<g opacity="0.3">
<path d="M67.5764 124.775C69.3037 123.737 71.2971 123.414 73.0512 123.751C71.6747 123.751 70.2385 124.13 68.9532 124.902C65.7544 126.824 64.6715 130.472 66.535 133.049C67.3956 134.239 68.74 134.991 70.2495 135.267C68.1997 135.282 66.2763 134.468 65.1582 132.922C63.2948 130.345 64.3776 126.697 67.5764 124.775Z" fill="#BCD6E8"/>
</g>
<path d="M69.5368 141.691C65.2461 141.691 61.2119 139.968 58.8592 136.714C54.9278 131.277 57.158 123.592 63.8305 119.583C70.5043 115.575 79.1304 116.737 83.0625 122.174C84.9833 124.83 85.509 128.087 84.5419 131.345C83.5903 134.551 81.2995 137.377 78.0916 139.305C75.4118 140.915 72.4161 141.691 69.5368 141.691ZM65.2165 121.5C59.703 124.812 57.794 131.071 60.9615 135.452C64.1293 139.832 71.1916 140.7 76.706 137.389C79.4009 135.77 81.3205 133.411 82.1118 130.745C82.8871 128.132 82.4785 125.536 80.9602 123.437C77.7928 119.057 70.7306 118.187 65.2165 121.5Z" fill="#BCD6E8"/>
<path d="M80.3913 126.536C87.3837 126.536 93.0522 121.37 93.0522 114.996C93.0522 108.623 87.3837 103.456 80.3913 103.456C73.3989 103.456 67.7305 108.623 67.7305 114.996C67.7305 121.37 73.3989 126.536 80.3913 126.536Z" fill="#DAE5EC"/>
<g opacity="0.55">
<path d="M89.2918 122.994C90.4513 121.245 91.1243 119.198 91.1243 117.005C91.1243 114.588 90.3047 112.341 88.9053 110.488C86.7663 111.83 84.1808 109.328 85.6068 107.482C83.5744 106.212 81.1156 105.465 78.4635 105.465C74.9918 105.465 71.8599 106.734 69.5742 108.8C71.7932 105.483 75.8047 103.266 80.3826 103.266C87.3727 103.266 93.0435 108.435 93.0435 114.807C93.0435 118.007 91.6108 120.911 89.2918 122.994Z" fill="white"/>
</g>
<path d="M85.0846 119.274C87.6768 116.911 87.6768 113.08 85.0846 110.718C82.4924 108.355 78.2897 108.355 75.6975 110.718C73.1053 113.08 73.1053 116.911 75.6975 119.274C78.2897 121.637 82.4924 121.637 85.0846 119.274Z" fill="#BCD6E8"/>
<g opacity="0.55">
<path d="M85.0154 119.327C83.8026 120.718 81.9301 121.604 79.8311 121.604C78.3251 121.604 76.9324 121.149 75.8196 120.377C74.427 121.197 72.8477 119.454 73.9471 118.361C73.4607 117.523 73.1875 116.569 73.1875 115.555C73.1875 113.848 73.9671 112.299 75.2198 111.206C74.3002 112.239 73.7471 113.563 73.7471 114.996C73.7471 118.337 76.7191 121.046 80.3908 121.046C82.19 121.046 83.8226 120.39 85.0154 119.327Z" fill="white"/>
</g>
<g opacity="0.3">
<path d="M87.0413 114.996C87.0413 116.8 86.1751 118.422 84.7957 119.521C85.6154 118.519 86.0951 117.274 86.0951 115.931C86.0951 112.591 83.1231 109.882 79.4582 109.882C77.7657 109.882 76.2197 110.465 75.0469 111.419C76.253 109.919 78.2054 108.947 80.4044 108.947C84.0694 108.947 87.0413 111.656 87.0413 114.996Z" fill="#BCD6E8"/>
</g>
<path d="M80.3962 127.684C72.7209 127.684 66.4766 121.992 66.4766 114.996C66.4766 108 72.7208 102.308 80.3962 102.308C88.0716 102.308 94.3158 108 94.3158 114.996C94.3158 121.992 88.0715 127.684 80.3962 127.684ZM80.3962 104.603C74.1093 104.603 68.9944 109.265 68.9944 114.996C68.9944 120.727 74.1092 125.389 80.3962 125.389C86.6831 125.389 91.7979 120.727 91.7979 114.996C91.7979 109.265 86.6831 104.603 80.3962 104.603Z" fill="#BCD6E8"/>
<g opacity="0.55">
<path d="M93.8828 123.153L107.184 112.866L107.198 107.088L112.199 109.508L114.571 116.44L93.8828 123.153Z" fill="white"/>
</g>
<g opacity="0.55">
<path d="M114.574 116.44L112.563 117.094L110.318 110.525L94.1409 102.697L88.531 104.237L88.3984 103.774L96.0247 101.68L112.202 109.508L114.574 116.44Z" fill="white"/>
</g>
<g opacity="0.3">
<path d="M93.9649 124.213L88.1406 103.644L96.0425 101.474L101.43 104.08L95.9787 107.457L93.9649 124.213ZM88.648 103.904L93.7976 122.092L95.5828 107.239L100.618 104.121L95.9983 101.885L88.648 103.904Z" fill="#BCD6E8"/>
</g>
<path d="M93.1304 124.454L87.082 103.099L96.1429 100.61L113.112 108.822L115.926 117.056L93.1304 124.454ZM89.7179 104.451L94.6459 121.852L113.221 115.825L111.296 110.194L95.9125 102.75L89.7179 104.451Z" fill="#BCD6E8"/>
<path d="M88.9015 102.899L87.8789 104.655L114.051 117.32L115.074 115.564L88.9015 102.899Z" fill="#BCD6E8"/>
<path d="M94.5911 123.911L93.1797 122.395L106.097 112.406L106.11 107.086L108.291 107.09L108.275 113.327L94.5911 123.911Z" fill="#BCD6E8"/>
<path d="M94.9648 123.261L92.7969 123.045L94.7484 106.784L100.408 103.278L101.634 104.922L96.8073 107.912L94.9648 123.261Z" fill="#BCD6E8"/>
<path d="M104.963 120.294L111.964 135.866C112.372 136.773 111.896 137.809 110.901 138.18L107.447 139.47C106.453 139.842 105.316 139.408 104.909 138.502L97.9075 122.929C97.5001 122.022 97.9758 120.987 98.9703 120.615L102.425 119.325C103.419 118.953 104.556 119.387 104.963 120.294Z" fill="#DAE5EC"/>
<path d="M106.708 139.794C105.859 139.794 105.052 139.334 104.71 138.574L97.7088 123.001C97.4908 122.516 97.4929 121.982 97.7154 121.498C97.9379 121.013 98.3538 120.637 98.8866 120.438L102.34 119.148C102.873 118.949 103.459 118.951 103.99 119.154C104.521 119.356 104.935 119.735 105.153 120.221L112.154 135.794C112.605 136.796 112.076 137.946 110.976 138.357L107.523 139.648C107.256 139.747 106.98 139.794 106.708 139.794ZM103.158 119.383C102.935 119.383 102.712 119.423 102.5 119.502L99.0457 120.792C98.1601 121.123 97.7343 122.049 98.0974 122.856L105.099 138.429C105.461 139.236 106.477 139.625 107.364 139.293L110.817 138.003C111.703 137.672 112.128 136.746 111.766 135.939L104.765 120.366C104.589 119.975 104.256 119.67 103.829 119.507C103.613 119.424 103.386 119.383 103.158 119.383Z" fill="#BCD6E8"/>
<g opacity="0.55">
<path d="M99.281 125.817L100.496 128.519L107.26 125.993L106.045 123.29L99.281 125.817Z" fill="white"/>
<path d="M100.39 128.769L99.0156 125.712L106.168 123.041L107.542 126.098L100.39 128.769ZM99.5631 125.922L100.619 128.27L106.995 125.889L105.939 123.54L99.5631 125.922Z" fill="#BCD6E8"/>
</g>
<path d="M103.367 134.92L105.613 139.916L112.377 137.39L110.131 132.393L103.367 134.92Z" fill="#BCD6E8"/>
<path d="M105.511 140.166L103.105 134.816L110.258 132.144L112.663 137.495L105.511 140.166ZM103.653 135.025L105.74 139.667L112.115 137.286L110.028 132.643L103.653 135.025Z" fill="#BCD6E8"/>
<g opacity="0.55">
<path d="M98.2076 123.06L98.9141 124.631L105.678 122.105L104.971 120.533L98.2076 123.06Z" fill="white"/>
<path d="M98.807 124.881L97.9414 122.955L105.094 120.284L105.959 122.209L98.807 124.881ZM98.489 123.165L99.0364 124.382L105.412 122L104.864 120.783L98.489 123.165Z" fill="#BCD6E8"/>
</g>
<path d="M106.708 140.75C105.446 140.75 104.246 140.066 103.739 138.937L96.7369 123.364C96.4124 122.642 96.4161 121.848 96.7467 121.128C97.0771 120.408 97.6955 119.849 98.488 119.553L101.941 118.263C103.576 117.653 105.452 118.368 106.122 119.858H106.123L113.124 135.431C113.794 136.921 113.008 138.631 111.373 139.242L107.919 140.532C107.523 140.68 107.112 140.75 106.708 140.75ZM103.156 120.34C103.069 120.34 102.982 120.355 102.896 120.387L99.4425 121.677C99.0917 121.808 98.9233 122.174 99.0671 122.494L106.068 138.066C106.212 138.386 106.614 138.539 106.965 138.409L110.418 137.118C110.769 136.988 110.938 136.621 110.794 136.301L103.793 120.729H103.793C103.684 120.487 103.427 120.34 103.156 120.34Z" fill="#BCD6E8"/>
<path d="M99.6603 130.246C100.332 124.389 94.9835 119.079 87.7136 118.386C80.4437 117.693 74.0056 121.88 73.3338 127.736C72.6619 133.593 78.0106 138.903 85.2805 139.596C92.5504 140.289 98.9884 136.102 99.6603 130.246Z" fill="#DAE5EC"/>
<path d="M86.8568 139.875C86.3257 139.875 85.7905 139.85 85.2532 139.799C77.8799 139.096 72.4373 133.681 73.1204 127.729C73.4515 124.841 75.1575 122.261 77.9234 120.462C80.681 118.669 84.1643 117.87 87.7309 118.21C91.2979 118.55 94.5239 119.99 96.8147 122.264C99.1121 124.545 100.195 127.391 99.8633 130.279C99.5322 133.167 97.8266 135.748 95.0607 137.546C92.7182 139.069 89.8529 139.875 86.8568 139.875ZM86.1268 118.515C83.218 118.515 80.4379 119.297 78.1667 120.774C75.5004 122.507 73.8564 124.991 73.5375 127.769C72.8785 133.511 78.1536 138.737 85.2966 139.418C88.7603 139.748 92.1425 138.973 94.8169 137.234C97.4835 135.501 99.1272 133.017 99.446 130.24C99.7649 127.462 98.7207 124.721 96.5057 122.522C94.2841 120.317 91.1523 118.92 87.6874 118.59C87.1649 118.54 86.6437 118.515 86.1268 118.515Z" fill="#BCD6E8"/>
<g opacity="0.55">
<path d="M96.4698 122.412C94.5861 121.25 92.3161 120.464 89.8151 120.225C87.0579 119.963 84.4157 120.405 82.1683 121.375C83.4937 123.313 80.3908 125.206 78.4218 123.811C76.7785 125.375 75.69 127.354 75.4351 129.575C75.1013 132.483 76.2482 135.244 78.3839 137.383C74.8146 135.164 72.6716 131.563 73.1116 127.728C73.7836 121.874 80.2244 117.686 87.4917 118.379C91.1427 118.727 94.3166 120.243 96.4698 122.412Z" fill="white"/>
</g>
<path d="M93.3974 129.649C93.7497 126.578 90.9454 123.794 87.134 123.431C83.3225 123.068 79.9471 125.263 79.5949 128.333C79.2426 131.404 82.0468 134.188 85.8583 134.551C89.6698 134.914 93.0452 132.72 93.3974 129.649Z" fill="#BCD6E8"/>
<g opacity="0.55">
<path d="M91.8799 125.599C93.3498 126.766 94.1813 128.431 93.9795 130.189C93.8347 131.45 93.1813 132.567 92.1944 133.416C92.9958 134.671 90.8557 135.804 89.7144 134.765C88.7116 135.081 87.5976 135.206 86.4408 135.096C84.494 134.91 82.8024 134.089 81.6758 132.92C82.7651 133.803 84.2222 134.41 85.8572 134.566C89.6675 134.929 93.043 132.735 93.396 129.659C93.5688 128.152 92.9777 126.714 91.8799 125.599Z" fill="white"/>
</g>
<g opacity="0.3">
<path d="M87.1268 123.442C89.1843 123.639 90.9508 124.541 92.0721 125.815C91.0078 125.02 89.6337 124.483 88.1027 124.337C84.2924 123.973 80.9169 126.168 80.5645 129.238C80.4018 130.655 80.9183 132.014 81.8932 133.1C80.298 131.926 79.3772 130.185 79.5886 128.343C79.9408 125.274 83.3164 123.079 87.1268 123.442Z" fill="#BCD6E8"/>
</g>
<path d="M86.8589 140.832C86.2913 140.832 85.7197 140.805 85.146 140.75C77.1977 139.992 71.3358 134.106 72.0792 127.629C72.4423 124.465 74.302 121.643 77.3162 119.684C80.2829 117.755 84.0236 116.894 87.8426 117.259C91.664 117.623 95.1257 119.171 97.5899 121.617C100.093 124.103 101.272 127.214 100.909 130.379C100.546 133.543 98.6862 136.365 95.6724 138.324C93.1511 139.963 90.0727 140.832 86.8589 140.832ZM86.129 119.472C83.4378 119.472 80.8708 120.192 78.7783 121.552C76.36 123.124 74.8703 125.368 74.5831 127.868C73.9843 133.086 78.8406 137.841 85.4081 138.467C88.6169 138.773 91.7438 138.059 94.21 136.456C96.6279 134.884 98.1176 132.641 98.4048 130.14C98.6917 127.639 97.7438 125.164 95.7349 123.169C93.6867 121.136 90.7906 119.847 87.5801 119.541C87.0941 119.494 86.6093 119.472 86.129 119.472Z" fill="#BCD6E8"/>
<path d="M180.416 36.0734V132.819C180.416 136.365 177.889 139.498 174.175 140.553L121.04 155.67C120.532 155.815 120.02 155.88 119.525 155.88C116.856 155.872 114.531 153.903 114.531 151.309V17.2735C114.531 14.6802 116.852 12.7141 119.512 12.7026H119.58C120.071 12.7065 120.566 12.7753 121.065 12.9207L174.222 28.3507C177.91 29.4217 180.416 32.543 180.416 36.0734Z" fill="#E8F1F7"/>
<path d="M119.52 156.071C116.65 156.063 114.316 153.927 114.316 151.309V17.2735C114.316 14.66 116.645 12.5239 119.507 12.5115H119.575C120.099 12.5154 120.62 12.5918 121.124 12.7386L174.28 28.1684C178.073 29.2696 180.62 32.4463 180.62 36.0734V132.819C180.62 136.468 178.053 139.65 174.233 140.736L121.098 155.853C120.59 155.998 120.059 156.071 119.52 156.071ZM119.573 12.894H119.507C116.877 12.9053 114.736 14.8699 114.736 17.2736V151.309C114.736 153.716 116.882 155.681 119.521 155.689C120.016 155.689 120.505 155.621 120.972 155.487L174.108 140.371C177.752 139.335 180.201 136.3 180.201 132.819V36.0734C180.201 32.6137 177.77 29.5834 174.153 28.533L120.996 13.103C120.532 12.9679 120.054 12.8977 119.573 12.894Z" fill="#BCD6E8"/>
<g opacity="0.3">
<path d="M180.408 128.384V132.821C180.408 136.367 177.881 139.499 174.168 140.555L121.032 155.671C120.524 155.817 120.012 155.882 119.517 155.882C116.848 155.874 114.523 153.904 114.523 151.311V146.878C114.523 149.467 116.848 151.437 119.517 151.445C120.012 151.445 120.524 151.38 121.032 151.234L174.168 136.122C177.881 135.062 180.408 131.93 180.408 128.384Z" fill="#BCD6E8"/>
</g>
<g opacity="0.55">
<path d="M180.408 36.075V39.6438C180.408 36.1133 177.902 32.9921 174.214 31.9211L121.057 16.491C120.558 16.3457 120.063 16.2768 119.572 16.273H119.505C116.844 16.2845 114.523 18.2505 114.523 20.8439V17.2752C114.523 14.6818 116.844 12.7158 119.505 12.7043H119.572C120.063 12.7081 120.558 12.777 121.057 12.9223L174.214 28.3524C177.902 29.4234 180.408 32.5446 180.408 36.075Z" fill="white"/>
</g>
<path d="M119.526 155.882L112.471 155.801L110.528 155.778C108.317 155.35 106.559 153.568 106.559 151.311V17.2752C106.559 17.2331 106.559 17.1949 106.563 17.1528C106.626 14.8502 108.531 13.0677 110.843 12.7541L112.22 12.7464L119.513 12.7043C116.894 12.7158 114.607 14.6207 114.536 17.1528C114.532 17.1949 114.532 17.2331 114.532 17.2752V151.311C114.532 153.904 116.857 155.874 119.526 155.882Z" fill="#E8F1F7"/>
<path d="M119.52 156.073C119.487 156.073 119.454 156.072 119.421 156.072L110.521 155.97C108.083 155.501 106.344 153.544 106.344 151.311V17.2753C106.344 17.2273 106.344 17.1835 106.349 17.1357C106.411 14.8344 108.286 12.907 110.807 12.5648L119.494 12.5131C119.497 12.5131 119.501 12.5131 119.504 12.5131H119.506C119.506 12.5131 119.506 12.5131 119.507 12.5131L119.509 12.8956H119.508C116.945 12.9067 114.807 14.8187 114.741 17.1576C114.736 17.206 114.737 17.2389 114.737 17.2753V151.311C114.737 153.69 116.833 155.637 119.429 155.689L119.523 155.69L119.52 156.073ZM117.473 12.9073L110.839 12.9453C108.55 13.2577 106.825 15.0302 106.768 17.1575C106.763 17.206 106.763 17.2389 106.763 17.2753V151.311C106.763 153.364 108.363 155.164 110.567 155.591L117.429 155.666C115.598 154.925 114.317 153.25 114.317 151.311V17.2753C114.317 17.2273 114.318 17.1835 114.322 17.1357C114.374 15.2573 115.669 13.6279 117.473 12.9073Z" fill="#BCD6E8"/>
<path d="M99.7519 143.219H106.548V27.0886H99.7519C97.943 27.0886 96.4766 28.4252 96.4766 30.074V140.234C96.4766 141.883 97.943 143.219 99.7519 143.219Z" fill="#E8F1F7"/>
<path d="M106.753 143.411H99.7468C97.8251 143.411 96.2617 141.986 96.2617 140.234V30.0739C96.2617 28.3223 97.8251 26.8973 99.7468 26.8973H106.753V143.411ZM99.7468 27.2798C98.0567 27.2798 96.6814 28.5332 96.6814 30.0739V140.234C96.6814 141.775 98.0567 143.028 99.7468 143.028H106.333V27.2798H99.7468Z" fill="#BCD6E8"/>
<g opacity="0.3">
<path d="M106.544 134.856V143.221H99.7459C97.9372 143.221 96.4727 141.882 96.4727 140.234V131.872C96.4727 133.521 97.9372 134.856 99.7459 134.856H106.544Z" fill="#BCD6E8"/>
</g>
<g opacity="0.55">
<path d="M106.544 27.0901V33.1986H99.7459C97.9372 33.1986 96.4727 34.5374 96.4727 36.1859V30.0736C96.4727 28.425 97.9372 27.0901 99.7459 27.0901H106.544Z" fill="white"/>
</g>
<path d="M119.529 157.219C115.963 157.208 113.066 154.557 113.066 151.309V17.2736C113.066 14.0303 115.957 11.3794 119.509 11.364H119.584C120.246 11.3691 120.891 11.4638 121.516 11.6455L174.672 27.075C178.988 28.3284 181.888 31.9446 181.888 36.0734V132.819C181.888 136.973 178.966 140.595 174.617 141.832L121.481 156.948C120.854 157.127 120.196 157.219 119.529 157.219ZM119.571 14.0416H119.516C117.583 14.0498 116.004 15.4997 116.004 17.2736V151.309C116.004 153.086 117.587 154.536 119.534 154.541C119.897 154.541 120.259 154.491 120.604 154.393L173.742 139.276C176.857 138.39 178.951 135.795 178.951 132.819V36.0734C178.951 33.1154 176.872 30.5244 173.78 29.6264L120.623 14.1964C120.274 14.0948 119.93 14.0442 119.571 14.0416Z" fill="#DAE5EC"/>
<path d="M173.128 43.2203V125.615C173.128 128.498 171.277 131.045 168.555 131.904L129.61 143.048C129.238 143.167 128.863 143.22 128.5 143.22C126.544 143.213 124.84 141.612 124.84 139.503V29.0805C124.84 26.9717 126.541 25.3729 128.491 25.3636H128.54C128.9 25.3667 129.263 25.4227 129.629 25.5409L168.589 36.9405C171.292 37.8114 173.128 40.3495 173.128 43.2203Z" fill="#E8F1F7"/>
<path d="M128.495 143.411C126.36 143.404 124.625 141.651 124.625 139.503V29.0803C124.625 26.9355 126.356 25.1825 128.484 25.1722H128.535C128.928 25.1755 129.317 25.2389 129.694 25.3605L168.648 36.7583C171.452 37.6617 173.333 40.2578 173.333 43.2203V125.615C173.333 128.595 171.438 131.195 168.618 132.085L129.668 143.231C129.294 143.35 128.897 143.411 128.495 143.411ZM128.485 25.5548C126.589 25.5639 125.045 27.1454 125.045 29.0804V139.503C125.045 141.441 126.593 143.022 128.496 143.028C128.85 143.028 129.2 142.974 129.536 142.868L168.487 131.722C171.132 130.887 172.913 128.432 172.913 125.615V43.2203C172.913 40.4197 171.145 37.9684 168.513 37.1206L129.559 25.7228C129.221 25.6137 128.877 25.5577 128.532 25.5547L128.485 25.5548Z" fill="#BCD6E8"/>
<g opacity="0.3">
<path d="M173.128 120.409V125.614C173.128 128.498 171.278 131.046 168.558 131.903L129.611 143.049C129.242 143.167 128.864 143.221 128.503 143.221C126.548 143.213 124.84 141.611 124.84 139.503V134.297C124.84 136.405 126.548 138.007 128.503 138.015C128.864 138.015 129.242 137.961 129.611 137.843L168.558 126.701C171.278 125.84 173.128 123.293 173.128 120.409Z" fill="#BCD6E8"/>
</g>
<g opacity="0.55">
<path d="M173.128 43.2202V46.372C173.128 43.4994 171.295 40.9634 168.592 40.0913L129.632 28.6928C129.263 28.5742 128.902 28.5169 128.541 28.513H128.491C126.544 28.5245 124.84 30.1234 124.84 32.2309V29.0791C124.84 26.9716 126.544 25.3727 128.491 25.3651H128.541C128.902 25.3651 129.263 25.4224 129.632 25.541L168.592 36.9395C171.295 37.8116 173.128 40.3476 173.128 43.2202Z" fill="white"/>
</g>
<path d="M128.509 144.367C125.795 144.358 123.59 142.176 123.59 139.503V29.0803C123.59 26.411 125.789 24.2288 128.493 24.2159H128.549C129.068 24.2204 129.571 24.3022 130.057 24.4588L168.982 35.8478C172.234 36.8948 174.396 39.8534 174.396 43.2202V125.614C174.396 129.002 172.217 131.966 168.975 132.988L129.996 144.143C129.541 144.288 129.029 144.367 128.509 144.367ZM128.536 26.511H128.499C127.183 26.5173 126.108 27.6699 126.108 29.0804V139.503C126.108 140.915 127.187 142.068 128.513 142.072C128.746 142.072 128.98 142.036 129.205 141.965L168.187 130.809C170.381 130.116 171.878 128.025 171.878 125.615V43.2202C171.878 40.824 170.391 38.7352 168.178 38.0223L129.253 26.6332C128.991 26.5494 128.768 26.5129 128.536 26.511Z" fill="#DAE5EC"/>
<path d="M111.541 157.216C111.091 157.216 110.644 157.172 110.203 157.085L110.824 154.468C111.268 154.556 111.727 154.561 112.191 154.483L112.722 157.117C112.328 157.183 111.933 157.216 111.541 157.216Z" fill="#BCD6E8"/>
<path d="M152.948 100.454C159.003 100.454 163.911 92.7897 163.911 83.3351C163.911 73.8805 159.003 66.2161 152.948 66.2161C146.893 66.2161 141.984 73.8805 141.984 83.3351C141.984 92.7897 146.893 100.454 152.948 100.454Z" fill="#E9F1F6"/>
<g opacity="0.3">
<path d="M163.93 83.3366C163.93 92.7882 159.02 100.453 152.965 100.453C146.91 100.453 142.004 92.7882 142.004 83.3366C142.004 82.0208 142.1 80.7394 142.281 79.5078C143.393 87.1195 147.753 92.7996 152.965 92.7996C158.177 92.7996 162.541 87.1195 163.653 79.5078C163.834 80.7394 163.93 82.0208 163.93 83.3366Z" fill="#9BB8CA"/>
<path d="M152.96 100.645C146.8 100.645 141.789 92.8804 141.789 83.3366C141.789 82.0404 141.883 80.7435 142.068 79.4824L142.276 78.0619L142.484 79.4824C143.595 87.0883 148.001 92.6084 152.96 92.6084C157.922 92.6084 162.329 87.0883 163.44 79.4824L163.648 78.0607L163.856 79.4824C164.041 80.7464 164.135 82.043 164.135 83.3366C164.135 92.8803 159.122 100.645 152.96 100.645ZM142.316 80.9537C142.245 81.7423 142.209 82.5394 142.209 83.3365C142.209 92.6693 147.032 100.262 152.96 100.262C158.891 100.262 163.716 92.6693 163.716 83.3365C163.716 82.5409 163.679 81.7438 163.608 80.954C162.15 88.111 157.898 92.9909 152.96 92.9909C148.024 92.9909 143.774 88.1107 142.316 80.9537Z" fill="#BBCBD5"/>
</g>
<g opacity="0.55">
<path d="M161.777 93.4998C162.545 91.1666 162.973 88.5235 162.973 85.7274C162.973 76.272 158.064 68.6067 152.008 68.6067C148.395 68.6067 145.185 71.3416 143.191 75.5605C145 70.0143 148.693 66.2161 152.957 66.2161C159.012 66.2161 163.922 73.8814 163.922 83.3368C163.922 87.1426 163.129 90.6578 161.777 93.4998Z" fill="white"/>
</g>
<g opacity="0.55">
<path d="M119.501 12.7043C116.882 12.7158 114.595 14.6206 114.524 17.1528H106.551C106.614 14.8501 108.519 13.0677 110.831 12.754L112.208 12.7464L119.501 12.7043Z" fill="white"/>
</g>
<path d="M152.953 101.602C146.099 101.602 140.73 93.5782 140.73 83.3352C140.73 73.0922 146.099 65.0686 152.953 65.0686C159.806 65.0686 165.175 73.0922 165.175 83.3352C165.175 93.5782 159.806 101.602 152.953 101.602ZM152.953 67.3636C147.692 67.3636 143.248 74.6778 143.248 83.3352C143.248 91.9926 147.692 99.3068 152.953 99.3068C158.213 99.3068 162.657 91.9926 162.657 83.3352C162.657 74.6778 158.213 67.3636 152.953 67.3636Z" fill="#DAE5EC"/>
<path d="M111.053 14.0761L110.613 11.4289C111.221 11.3451 111.828 11.3425 112.419 11.4197L112 14.07C111.694 14.0295 111.375 14.0321 111.053 14.0761Z" fill="#BCD6E8"/>
<path d="M119.505 157.219C119.468 157.219 119.43 157.219 119.393 157.218L110.349 157.114L110.208 157.086C107.233 156.511 105.074 154.081 105.074 151.309V17.2735C105.074 14.3668 107.455 11.8539 110.612 11.4281L110.818 11.4137L119.488 11.3641C119.489 11.3641 119.49 11.3641 119.49 11.3641L119.507 14.0416L119.487 14.0417C117.554 14.0586 115.985 15.5051 115.985 17.2735V151.309C115.985 153.064 117.529 154.5 119.443 154.541L119.528 154.541L119.505 157.219ZM110.689 154.44L114.062 154.479C113.42 153.562 113.047 152.474 113.047 151.309V17.2736C113.047 16.0961 113.429 14.9964 114.084 14.0728L110.949 14.0907C109.241 14.3619 108.012 15.687 108.012 17.2735V151.309C108.012 152.808 109.106 154.079 110.689 154.44Z" fill="#DAE5EC"/>
<path d="M169.064 83.3352C169.064 88.5831 166.341 92.8365 162.979 92.8365C161.175 92.8365 159.551 91.6086 158.443 89.6617C157.478 87.9825 156.895 85.764 156.895 83.3352C156.895 80.9063 157.478 78.6878 158.443 77.0086C159.551 75.0617 161.175 73.8339 162.979 73.8339C166.341 73.8339 169.064 78.0873 169.064 83.3352Z" fill="#DDE6ED"/>
<path d="M162.974 93.0277C161.158 93.0277 159.437 91.8332 158.252 89.7499C157.238 87.9861 156.68 85.7079 156.68 83.3352C156.68 80.9621 157.238 78.6839 158.252 76.9197C159.437 74.8372 161.158 73.6427 162.974 73.6427C166.445 73.6427 169.269 77.9907 169.269 83.3352C169.269 88.6797 166.445 93.0277 162.974 93.0277ZM162.974 74.0253C161.321 74.0253 159.735 75.1448 158.624 77.0968C157.641 78.8076 157.099 81.0226 157.099 83.3352C157.099 85.6475 157.641 87.8625 158.624 89.5729C159.735 91.5257 161.321 92.6452 162.974 92.6452C166.214 92.6452 168.849 88.4687 168.849 83.3352C168.849 78.2018 166.214 74.0253 162.974 74.0253Z" fill="#DAE5EC"/>
<g opacity="0.55">
<path d="M167.755 89.2311C168.049 88.1219 168.208 86.9055 168.208 85.628C168.208 80.3801 165.485 76.1267 162.123 76.1267C160.319 76.1267 158.699 77.3545 157.587 79.3014C157.503 79.4468 157.423 79.596 157.348 79.749C157.612 78.7353 157.986 77.8135 158.447 77.0103C159.555 75.0633 161.179 73.8355 162.983 73.8355C166.345 73.8355 169.068 78.0889 169.068 83.3368C169.068 85.563 168.577 87.6132 167.755 89.2311Z" fill="white"/>
</g>
<path d="M162.99 92.838H153.913C151.16 92.838 148.835 89.9808 148.084 86.064C147.916 85.1995 147.828 84.2853 147.828 83.3367C147.828 81.145 148.307 79.1292 149.104 77.5227C150.216 75.2775 151.957 73.8354 153.913 73.8354H162.99C161.185 73.8354 159.561 75.0633 158.454 77.0102C158.357 77.1747 158.269 77.3468 158.181 77.5227C157.379 79.1292 156.905 81.145 156.905 83.3367C156.905 84.2853 156.993 85.1995 157.161 86.064C157.417 87.4142 157.866 88.6382 158.454 89.6633C159.561 91.6102 161.185 92.838 162.99 92.838Z" fill="#DAEAF3"/>
<path d="M162.985 93.0291H153.908C151.093 93.0291 148.668 90.2433 147.873 86.0967C147.701 85.2095 147.613 84.281 147.613 83.3366C147.613 81.1881 148.061 79.1504 148.908 77.4441C150.104 75.0292 151.927 73.6442 153.908 73.6442H162.985V74.0267C161.332 74.0267 159.746 75.1462 158.635 77.0982C158.54 77.2615 158.453 77.4295 158.367 77.6021C157.545 79.2498 157.11 81.2329 157.11 83.3366C157.11 84.26 157.195 85.1666 157.363 86.0306C157.609 87.326 158.048 88.5512 158.635 89.5747C159.746 91.5271 161.332 92.6466 162.985 92.6466V93.0291ZM153.908 74.0266C152.099 74.0266 150.416 75.3295 149.29 77.6017C148.468 79.259 148.033 81.2421 148.033 83.3366C148.033 84.2585 148.118 85.165 148.286 86.0305C149.033 89.9261 151.345 92.6465 153.908 92.6465H161.227C160.087 92.1396 159.055 91.1438 158.263 89.7512C157.656 88.6934 157.202 87.4293 156.949 86.0962C156.778 85.211 156.691 84.2823 156.691 83.3366C156.691 81.1783 157.138 79.1406 157.985 77.4437C158.075 77.2636 158.165 77.0881 158.263 76.92C159.056 75.5286 160.087 74.5335 161.227 74.0266H153.908Z" fill="#DAE5EC"/>
<g opacity="0.55">
<path d="M162.98 73.8355C161.175 73.8355 159.551 75.0633 158.443 77.0103C158.347 77.1747 158.259 77.3469 158.171 77.5228H149.094C150.206 75.2775 151.947 73.8355 153.903 73.8355H162.98Z" fill="white"/>
</g>
<path d="M119.567 11.3642H119.5V14.0417H119.567V11.3642Z" fill="#BCD6E8"/>
<path d="M162.981 93.9839C160.76 93.9839 158.699 92.6011 157.326 90.1903C156.237 88.2953 155.637 85.8595 155.637 83.3352C155.637 80.8105 156.237 78.3742 157.329 76.476C158.699 74.0693 160.76 72.6865 162.981 72.6865C167.099 72.6865 170.324 77.3639 170.324 83.3352C170.324 89.3065 167.099 93.9839 162.981 93.9839ZM162.981 74.9815C161.732 74.9815 160.486 75.9131 159.561 77.5372C158.653 79.1168 158.155 81.1747 158.155 83.3352C158.155 85.4953 158.653 87.5532 159.559 89.1294C160.486 90.7573 161.732 91.6889 162.981 91.6889C165.311 91.6889 167.806 88.3323 167.806 83.3352C167.806 78.3381 165.311 74.9815 162.981 74.9815Z" fill="#DAE5EC"/>
<path d="M162.987 93.9839H153.91C149.792 93.9839 146.566 89.3065 146.566 83.3352C146.566 77.3639 149.792 72.6865 153.91 72.6865H162.987V74.9815C161.739 74.9815 160.493 75.9131 159.568 77.5372C158.66 79.1168 158.162 81.1747 158.162 83.3352C158.162 85.4953 158.66 87.5532 159.566 89.1294C160.493 90.7573 161.739 91.6889 162.987 91.6889V93.9839ZM153.91 74.9815C151.339 74.9815 149.084 78.8849 149.084 83.3352C149.084 87.7854 151.339 91.6889 153.91 91.6889H158.385C158.002 91.2467 157.65 90.7457 157.333 90.1903C156.244 88.2953 155.644 85.8595 155.644 83.3352C155.644 80.8105 156.244 78.3742 157.336 76.476C157.651 75.922 158.003 75.4226 158.385 74.9815H153.91Z" fill="#DAE5EC"/>
<path d="M108.021 144.558H99.7557C97.1399 144.558 95.0117 142.619 95.0117 140.234V30.074C95.0117 27.6897 97.1399 25.7499 99.7557 25.7499H108.021V144.558ZM99.7557 28.4274C98.7595 28.4274 97.9492 29.1661 97.9492 30.074V140.234C97.9492 141.142 98.7594 141.881 99.7557 141.881H105.083V28.4274H99.7557Z" fill="#DAE5EC"/>
<path d="M103.06 53.8637C104.991 53.8637 106.557 52.4366 106.557 50.6762C106.557 48.9158 104.991 47.4886 103.06 47.4886C101.128 47.4886 99.5625 48.9158 99.5625 50.6762C99.5625 52.4366 101.128 53.8637 103.06 53.8637Z" fill="#DAE5EC"/>
<path d="M103.06 126.316C104.991 126.316 106.557 124.889 106.557 123.129C106.557 121.368 104.991 119.941 103.06 119.941C101.128 119.941 99.5625 121.368 99.5625 123.129C99.5625 124.889 101.128 126.316 103.06 126.316Z" fill="#DAE5EC"/>
<g opacity="0.3">
<path d="M160.925 92.997H153.763C151.591 92.997 149.757 90.1197 149.164 86.1754H156.326C156.528 87.5351 156.882 88.7677 157.346 89.8C158.22 91.7606 159.501 92.997 160.925 92.997Z" fill="#9BC6DF"/>
</g>
<path d="M68.1381 162.662C68.0992 162.662 68.0611 162.662 68.0222 162.661C64.3146 162.591 61.0869 159.162 57.8647 151.871C57.5614 151.186 57.9258 150.406 58.6781 150.13C59.4314 149.853 60.2857 150.185 60.5891 150.871C63.8942 158.348 66.4887 159.954 68.0833 159.984C69.4262 160.017 72.2773 158.853 76.2606 150.82C76.595 150.146 77.4651 149.848 78.2039 150.151C78.9432 150.456 79.2715 151.249 78.9375 151.922C75.3069 159.244 71.8716 162.662 68.1381 162.662Z" fill="#DAE5EC"/>
<path d="M183.231 63.5034C181.671 63.5034 180.406 62.3507 180.406 60.9289V44.7855C180.406 43.3636 181.671 42.2109 183.231 42.2109C184.791 42.2109 186.055 43.3636 186.055 44.7855V60.9289C186.055 62.3508 184.791 63.5034 183.231 63.5034Z" fill="#F7F7F7"/>
<g opacity="0.55">
<path d="M186.055 44.7846V48.9461C186.055 48.2347 185.74 47.5921 185.228 47.1255C184.716 46.6588 184.011 46.3719 183.23 46.3719C181.669 46.3719 180.406 47.5232 180.406 48.9461V44.7846C180.406 43.3655 181.669 42.2103 183.23 42.2103C184.011 42.2103 184.716 42.501 185.228 42.9639C185.74 43.4305 186.055 44.0769 186.055 44.7846Z" fill="white"/>
</g>
<path d="M183.231 127.741C181.671 127.741 180.406 126.588 180.406 125.166V109.023C180.406 107.601 181.671 106.448 183.231 106.448C184.791 106.448 186.055 107.601 186.055 109.023V125.166C186.055 126.588 184.791 127.741 183.231 127.741Z" fill="#F7F7F7"/>
<g opacity="0.55">
<path d="M186.055 109.022V114.855C186.055 114.143 185.74 113.501 185.228 113.034C184.716 112.567 184.011 112.281 183.23 112.281C181.669 112.281 180.406 113.436 180.406 114.855V109.022C180.406 107.603 181.669 106.447 183.23 106.447C184.011 106.447 184.716 106.738 185.228 107.201C185.74 107.668 186.055 108.314 186.055 109.022Z" fill="white"/>
</g>
<path d="M183.235 64.8423C180.867 64.8423 178.941 63.0868 178.941 60.9291V44.7857C178.941 42.6278 180.867 40.8724 183.235 40.8724C185.602 40.8724 187.528 42.6278 187.528 44.7857V60.9291C187.528 63.0868 185.602 64.8423 183.235 64.8423ZM183.235 43.5498C182.487 43.5498 181.879 44.1041 181.879 44.7857V60.9291C181.879 61.6104 182.487 62.1647 183.235 62.1647C183.982 62.1647 184.591 61.6104 184.591 60.9291V44.7857C184.591 44.1041 183.982 43.5498 183.235 43.5498Z" fill="#DAE5EC"/>
<path d="M183.235 129.079C180.867 129.079 178.941 127.324 178.941 125.166V109.022C178.941 106.865 180.867 105.109 183.235 105.109C185.602 105.109 187.528 106.865 187.528 109.022V125.166C187.528 127.324 185.602 129.079 183.235 129.079ZM183.235 107.787C182.487 107.787 181.879 108.341 181.879 109.022V125.166C181.879 125.847 182.487 126.402 183.235 126.402C183.982 126.402 184.591 125.847 184.591 125.166V109.022C184.591 108.341 183.982 107.787 183.235 107.787Z" fill="#DAE5EC"/>
<path d="M226.6 161.47C221.908 162.19 217.215 162.362 212.523 162.45C207.831 162.55 203.139 162.497 198.447 162.443L191.408 162.399L184.37 162.397H170.293H113.987H57.6798H29.5264L22.4881 162.399L18.969 162.433L15.4498 162.49C13.1038 162.52 10.7576 162.474 8.41145 162.357C6.06526 162.207 3.71931 161.995 1.37313 161.47C1.11541 161.412 0.953808 161.158 1.01178 160.902C1.05376 160.717 1.19897 160.582 1.37313 160.543C3.71931 160.018 6.06526 159.806 8.41145 159.656C10.7576 159.539 13.1038 159.493 15.4498 159.523L18.969 159.58L22.4881 159.614L29.5264 159.616H57.6799H113.987H170.293H184.37L191.408 159.613L198.447 159.57C203.139 159.516 207.831 159.463 212.523 159.563C217.216 159.651 221.908 159.823 226.6 160.543C226.857 160.583 227.034 160.822 226.994 161.078C226.962 161.285 226.798 161.439 226.6 161.47Z" fill="#E8EEF1"/>
<path d="M189.122 161.524C196.114 161.524 201.783 156.357 201.783 149.984C201.783 143.61 196.114 138.444 189.122 138.444C182.129 138.444 176.461 143.61 176.461 149.984C176.461 156.357 182.129 161.524 189.122 161.524Z" fill="#DAE5EC"/>
<path d="M189.117 161.715C182.02 161.715 176.246 156.453 176.246 149.984C176.246 143.515 182.02 138.253 189.117 138.253C196.214 138.253 201.987 143.515 201.987 149.984C201.987 156.453 196.214 161.715 189.117 161.715ZM189.117 138.635C182.251 138.635 176.666 143.726 176.666 149.984C176.666 156.242 182.251 161.333 189.117 161.333C195.982 161.333 201.568 156.242 201.568 149.984C201.568 143.726 195.982 138.635 189.117 138.635Z" fill="#BCD6E8"/>
<g opacity="0.55">
<path d="M198.007 157.982C199.166 156.232 199.839 154.186 199.839 151.993C199.839 149.576 199.02 147.328 197.62 145.476C195.481 146.818 192.896 144.316 194.322 142.469C192.289 141.2 189.83 140.453 187.178 140.453C183.707 140.453 180.575 141.722 178.289 143.787C180.508 140.471 184.52 138.254 189.097 138.254C196.088 138.254 201.758 143.423 201.758 149.794C201.758 152.995 200.326 155.898 198.007 157.982Z" fill="white"/>
</g>
<path d="M189.11 156.034C192.776 156.034 195.748 153.325 195.748 149.984C195.748 146.643 192.776 143.934 189.11 143.934C185.445 143.934 182.473 146.643 182.473 149.984C182.473 153.325 185.445 156.034 189.11 156.034Z" fill="#BCD6E8"/>
<g opacity="0.55">
<path d="M193.734 154.315C192.521 155.705 190.649 156.592 188.55 156.592C187.044 156.592 185.651 156.137 184.538 155.365C183.146 156.185 181.566 154.442 182.666 153.349C182.179 152.511 181.906 151.557 181.906 150.543C181.906 148.836 182.686 147.287 183.939 146.194C183.019 147.226 182.466 148.551 182.466 149.984C182.466 153.325 185.438 156.033 189.11 156.033C190.909 156.033 192.541 155.377 193.734 154.315Z" fill="white"/>
</g>
<g opacity="0.3">
<path d="M195.756 149.984C195.756 151.788 194.89 153.41 193.511 154.509C194.33 153.507 194.81 152.262 194.81 150.919C194.81 147.579 191.838 144.87 188.173 144.87C186.481 144.87 184.935 145.453 183.762 146.406C184.968 144.906 186.92 143.934 189.119 143.934C192.784 143.934 195.756 146.643 195.756 149.984Z" fill="#BCD6E8"/>
</g>
<path d="M189.111 162.672C181.436 162.672 175.191 156.98 175.191 149.984C175.191 142.988 181.436 137.296 189.111 137.296C196.786 137.296 203.031 142.988 203.031 149.984C203.031 156.98 196.786 162.672 189.111 162.672ZM189.111 139.591C182.824 139.591 177.709 144.253 177.709 149.984C177.709 155.715 182.824 160.377 189.111 160.377C195.398 160.377 200.513 155.715 200.513 149.984C200.513 144.253 195.398 139.591 189.111 139.591Z" fill="#BCD6E8"/>
<path d="M219.073 161.323H198.539C197.344 161.323 196.375 160.44 196.375 159.351V155.567C196.375 154.477 197.344 153.594 198.539 153.594H219.073C220.268 153.594 221.237 154.477 221.237 155.567V159.351C221.237 160.44 220.268 161.323 219.073 161.323Z" fill="#DAE5EC"/>
<g opacity="0.55">
<path d="M215.232 153.674H211.668V161.084H215.232V153.674Z" fill="white"/>
</g>
<path d="M203.229 153.674H196.641V161.084H203.229V153.674Z" fill="#BCD6E8"/>
<g opacity="0.55">
<path d="M218.795 153.834H216.723V161.243H218.795V153.834Z" fill="white"/>
</g>
<path d="M219.079 162.471H198.544C196.657 162.471 195.121 161.071 195.121 159.351V155.567C195.121 153.846 196.657 152.447 198.544 152.447H219.079C220.966 152.447 222.502 153.846 222.502 155.567V159.351C222.502 161.071 220.966 162.471 219.079 162.471ZM198.544 154.742C198.045 154.742 197.639 155.112 197.639 155.567V159.351C197.639 159.806 198.045 160.176 198.544 160.176H219.079C219.578 160.176 219.984 159.806 219.984 159.351V155.567C219.984 155.112 219.578 154.742 219.079 154.742H198.544Z" fill="#BCD6E8"/>
<path d="M47.8116 161.323H27.2774C26.0822 161.323 25.1133 160.44 25.1133 159.351V155.567C25.1133 154.477 26.0822 153.594 27.2774 153.594H47.8115C49.0068 153.594 49.9756 154.477 49.9756 155.567V159.351C49.9757 160.44 49.0068 161.323 47.8116 161.323Z" fill="#DAE5EC"/>
<g opacity="0.55">
<path d="M43.9816 153.674H40.418V161.084H43.9816V153.674Z" fill="white"/>
</g>
<path d="M31.9558 153.674H25.3672V161.084H31.9558V153.674Z" fill="#BCD6E8"/>
<g opacity="0.55">
<path d="M47.5445 153.834H45.4727V161.243H47.5445V153.834Z" fill="white"/>
</g>
<path d="M47.8125 162.471H27.2786C25.391 162.471 23.8555 161.071 23.8555 159.351V155.567C23.8555 153.846 25.391 152.447 27.2786 152.447H47.8125C49.7001 152.447 51.2356 153.846 51.2356 155.567V159.351C51.2356 161.071 49.7001 162.471 47.8125 162.471ZM27.2786 154.742C26.7795 154.742 26.3733 155.112 26.3733 155.567V159.351C26.3733 159.806 26.7795 160.176 27.2786 160.176H47.8125C48.3116 160.176 48.7177 159.806 48.7177 159.351V155.567C48.7177 155.112 48.3116 154.742 47.8125 154.742H27.2786Z" fill="#BCD6E8"/>
<path d="M31.1966 152.029L12.9744 160.657C11.9138 161.159 10.6073 160.782 10.0563 159.816L8.14256 156.458C7.59156 155.491 8.00475 154.3 9.06536 153.798L27.2875 145.17C28.3481 144.668 29.6547 145.044 30.2056 146.011L32.1194 149.369C32.6704 150.336 32.2572 151.526 31.1966 152.029Z" fill="#DAE5EC"/>
<g opacity="0.55">
<path d="M23.9124 146.854L20.75 148.351L24.4977 154.927L27.66 153.429L23.9124 146.854Z" fill="white"/>
</g>
<path d="M13.2685 151.897L7.42188 154.666L11.1696 161.241L17.0162 158.473L13.2685 151.897Z" fill="#BCD6E8"/>
<g opacity="0.55">
<path d="M27.155 145.498L25.3164 146.368L29.0641 152.944L30.9027 152.073L27.155 145.498Z" fill="white"/>
</g>
<path d="M11.9695 162.026C10.7319 162.026 9.5348 161.413 8.92581 160.345L7.01198 156.987C6.59074 156.247 6.51034 155.402 6.78579 154.608C7.06159 153.813 7.66034 153.164 8.47176 152.78L26.6939 144.152C28.3692 143.359 30.4396 143.956 31.3096 145.482L33.2234 148.84C33.6447 149.58 33.7251 150.425 33.4496 151.219C33.1738 152.014 32.5751 152.663 31.7636 153.047L13.5415 161.675C13.0387 161.913 12.5002 162.026 11.9695 162.026ZM28.27 146.095C28.1299 146.095 27.9873 146.125 27.8545 146.188L9.63233 154.816C9.18935 155.026 9.01637 155.525 9.24626 155.929L11.1601 159.287C11.3904 159.69 11.9387 159.849 12.3809 159.639L30.6031 151.01C31.0461 150.801 31.219 150.302 30.9891 149.898L29.0753 146.54C28.9143 146.258 28.5975 146.095 28.27 146.095Z" fill="#BCD6E8"/>
<path d="M212.659 153.594H192.125C190.93 153.594 189.961 152.711 189.961 151.622V147.838C189.961 146.748 190.93 145.865 192.125 145.865H212.659C213.854 145.865 214.823 146.748 214.823 147.838V151.622C214.823 152.711 213.854 153.594 212.659 153.594Z" fill="#DAE5EC"/>
<g opacity="0.55">
<path d="M208.818 145.945H205.254V153.355H208.818V145.945Z" fill="white"/>
</g>
<path d="M196.8 145.945H190.211V153.355H196.8V145.945Z" fill="#BCD6E8"/>
<g opacity="0.55">
<path d="M212.388 146.104H210.316V153.514H212.388V146.104Z" fill="white"/>
</g>
<path d="M212.66 154.742H192.126C190.239 154.742 188.703 153.342 188.703 151.621V147.838C188.703 146.117 190.239 144.717 192.126 144.717H212.66C214.548 144.717 216.083 146.117 216.083 147.838V151.621C216.083 153.342 214.548 154.742 212.66 154.742ZM192.126 147.012C191.627 147.012 191.221 147.383 191.221 147.838V151.621C191.221 152.076 191.627 152.447 192.126 152.447H212.66C213.159 152.447 213.565 152.076 213.565 151.621V147.838C213.565 147.383 213.159 147.012 212.66 147.012H192.126Z" fill="#BCD6E8"/>
<path d="M219.073 145.744H198.539C197.344 145.744 196.375 144.861 196.375 143.771V139.987C196.375 138.898 197.344 138.015 198.539 138.015H219.073C220.268 138.015 221.237 138.898 221.237 139.987V143.771C221.237 144.861 220.268 145.744 219.073 145.744Z" fill="#DAE5EC"/>
<g opacity="0.55">
<path d="M215.232 138.094H211.668V145.504H215.232V138.094Z" fill="white"/>
</g>
<path d="M203.229 138.094H196.641V145.504H203.229V138.094Z" fill="#BCD6E8"/>
<g opacity="0.55">
<path d="M218.795 138.254H216.723V145.664H218.795V138.254Z" fill="white"/>
</g>
<path d="M219.079 146.891H198.544C196.657 146.891 195.121 145.492 195.121 143.771V139.987C195.121 138.267 196.657 136.867 198.544 136.867H219.079C220.966 136.867 222.502 138.267 222.502 139.987V143.771C222.502 145.492 220.966 146.891 219.079 146.891ZM198.544 139.162C198.045 139.162 197.639 139.532 197.639 139.987V143.771C197.639 144.226 198.045 144.596 198.544 144.596H219.079C219.578 144.596 219.984 144.226 219.984 143.771V139.987C219.984 139.532 219.578 139.162 219.079 139.162H198.544Z" fill="#BCD6E8"/>
<g opacity="0.3">
<path d="M227 165.35C227 169.303 176.408 172.506 114 172.506C51.5919 172.506 1 169.303 1 165.35C1 163.936 7.48845 162.617 18.6882 161.506H209.312C220.512 162.617 227 163.936 227 165.35Z" fill="#D2DDE4"/>
</g>
</g>
<circle cx="114" cy="90.5065" r="55" fill="#0F6DDB" fill-opacity="0.15" stroke="#0F6DDB" stroke-width="10"/>
<path d="M104.193 116.506L84.5 95.327L93.4753 85.674L104.194 97.2367L135.525 63.5065L144.5 73.1595L104.193 116.506Z" fill="#0F6DDB"/>
<path opacity="0.3" d="M130.699 95.5065C122.312 103.791 106 122.159 106 139.796H117.181C117.181 122.158 126.111 103.79 130.699 95.5065Z" fill="white"/>
<path opacity="0.3" d="M126 73.5065C119.208 67.5208 106.331 52.7152 106 41.5065H108.415C109.547 55.171 120.625 67.715 126 73.5065Z" fill="white"/>
</g>
<defs>
<clipPath id="clip0_5869_2229">
<rect width="227" height="181.013" fill="white" transform="translate(0.5)"/>
</clipPath>
</defs>
</svg>
