<svg width="46" height="45" viewBox="0 0 46 45" fill="none" xmlns="http://www.w3.org/2000/svg">
<g id="Frame 814699">
<rect x="0.5" width="45" height="45" rx="4" fill="#E7F0FA"/>
<path id="Vector" d="M23.4952 14.4626L27.2655 15.1826L26.6827 10.9668C26.58 10.3495 26.0317 9.93854 25.4145 10.0075L13.9679 11.6523C13.6596 11.6868 13.4196 11.8578 13.2141 12.0978C13.0431 12.3378 12.9741 12.6461 13.0086 12.9206L15.2706 28.7202C15.3051 29.0284 15.4761 29.2684 15.7161 29.4739C15.9562 29.6449 16.2644 29.7139 16.5389 29.6794L17.9099 29.4739L20.3774 16.6218C20.6174 15.1481 22.0567 14.1888 23.4959 14.4626H23.4952ZM30.1095 16.6218L23.3234 15.3198C22.3297 15.1143 21.3697 15.7998 21.1987 16.7591L18.6629 30.0567C18.4574 31.0504 19.1429 32.0104 20.1022 32.1814L29.3557 33.9634C30.3495 34.1689 31.3095 33.4834 31.4805 32.5242L33.5708 21.6596L30.1095 16.6218ZM30.4177 32.2842C30.3495 32.6614 29.9722 32.9352 29.595 32.8324L20.3414 31.0504C19.9642 30.9822 19.6904 30.6049 19.7932 30.2277L22.3289 16.9301C22.3972 16.5528 22.7744 16.2791 23.1517 16.3818L29.4577 17.6156L29.4922 17.6838L29.0467 19.9804C28.9095 20.6659 29.355 21.3169 30.0405 21.4541L32.3708 21.8996V21.9341L30.417 32.2842H30.4177ZM30.2812 22.9969L23.2897 21.6604C23.0152 21.5921 22.7414 21.7976 22.7069 22.0714C22.6387 22.3459 22.8442 22.6196 23.1179 22.6541L30.1095 23.9906C30.384 24.0589 30.6577 23.8534 30.6922 23.5796C30.7267 23.3059 30.555 23.0314 30.2812 22.9969ZM29.7322 25.9436L22.7407 24.6071C22.4662 24.5389 22.1924 24.7444 22.1579 25.0181C22.1234 25.2919 22.2952 25.5664 22.5689 25.6009L29.5605 26.9374C29.835 27.0057 30.1087 26.8001 30.1432 26.5264C30.1777 26.2526 29.9722 25.9781 29.7322 25.9436ZM29.1502 28.8912L22.1587 27.5547C21.8842 27.4864 21.6104 27.6919 21.5759 27.9657C21.5077 28.2402 21.7132 28.5139 21.9869 28.5484L28.9785 29.8849C29.253 29.9532 29.5267 29.7477 29.5612 29.4739C29.5957 29.2002 29.424 28.9602 29.1502 28.8912Z" fill="#0E68A9"/>
</g>
</svg>
