<svg width="45" height="45" viewBox="0 0 45 45" fill="none" xmlns="http://www.w3.org/2000/svg">
<rect width="45" height="45" rx="22.5" fill="#0F6DDB"/>
<g clip-path="url(#clip0_5238_1121)">
<path d="M19.9172 34.3125C23.3942 34.3125 26.2141 31.534 26.2141 28.1067C26.2141 24.6794 23.3951 21.9009 19.9172 21.9009C16.4401 21.9009 13.6211 24.6794 13.6211 28.1067C13.6211 31.534 16.4401 34.3125 19.9172 34.3125Z" fill="white"/>
<path d="M30.4356 30.2591C33.2529 29.8499 35.2231 28.8796 35.8331 27.5963C35.9597 27.3296 35.9715 27.2613 35.9715 26.5289C35.9715 26.0125 35.9487 25.6944 35.9023 25.5974L35.8331 25.4438L35.6838 25.6708C34.624 27.2891 31.2136 28.2999 27.6479 28.197C27.6361 28.9522 27.5154 29.6845 27.2969 30.3713C28.3853 30.4051 29.7108 30.3654 30.4365 30.2574L30.4356 30.2591Z" fill="white"/>
<path d="M35.8413 21.35C35.8185 21.35 35.7375 21.4521 35.6624 21.571C35.5013 21.8436 35.0752 22.2469 34.6314 22.5422C33.6982 23.1666 32.1718 23.672 30.4489 23.9276C29.6195 24.0525 27.4477 24.0812 26.4453 23.9901C26.8891 24.6769 27.2292 25.4439 27.4308 26.2555C28.3294 26.2952 29.2567 26.2665 30.173 26.1534C33.0131 25.8126 35.179 24.7908 35.8244 23.4965C35.9628 23.218 35.9797 23.1328 35.9974 22.543C36.0143 21.9237 35.94 21.3508 35.8422 21.3508L35.8413 21.35Z" fill="white"/>
<path d="M25.7347 22.1903C26.6333 22.327 28.7478 22.3777 29.7096 22.2865C32.7632 21.9971 35.1535 20.9408 35.799 19.6009C35.972 19.2431 35.972 19.2372 35.972 18.4593C35.972 17.948 35.9492 17.6248 35.9028 17.5278L35.8395 17.3801L35.626 17.6982C34.9409 18.709 33.0914 19.5773 30.8563 19.935C29.3527 20.1738 27.3944 20.2075 25.9828 20.0202C24.7273 19.8498 23.4305 19.5038 22.5319 19.0946C21.7134 18.72 20.9017 18.0956 20.6132 17.6181C20.5381 17.4991 20.4748 17.397 20.463 17.397C20.4512 17.397 20.4115 17.4991 20.3769 17.6181C20.2791 17.9471 20.2959 19.1343 20.4056 19.4119C20.5668 19.8321 20.8891 20.2295 21.3565 20.5931C22.526 20.8091 23.6034 21.2858 24.5189 21.9558C24.9045 22.0469 25.3137 22.1262 25.7347 22.1887V22.1903Z" fill="white"/>
<path d="M22.5225 17.37C23.4152 17.7792 24.7576 18.142 25.9844 18.3015C26.8661 18.4205 28.6059 18.4601 29.4927 18.3808C32.7707 18.0973 35.1551 17.0578 35.8411 15.6218C35.9617 15.372 35.9794 15.253 35.9963 14.6793C36.0191 13.9132 35.9449 13.5723 35.6563 13.1462C34.8379 11.9312 32.5918 11.0056 29.7863 10.7331C29.2851 10.6816 27.142 10.6706 26.6408 10.7162C24.6994 10.8807 22.7469 11.4773 21.5944 12.2493C21.1624 12.5387 20.7017 13.0154 20.5228 13.3622C20.2174 13.9528 20.2174 15.1391 20.5169 15.7188C20.8105 16.2976 21.6171 16.9625 22.5216 17.3708L22.5225 17.37Z" fill="white"/>
<path d="M12.2974 29.3673C10.8512 28.9015 9.82606 28.2603 9.30209 27.4764L9.16962 27.2781L9.10044 27.403C9.04897 27.4882 9.03125 27.7549 9.03125 28.3345C9.03125 29.0669 9.04306 29.1639 9.15191 29.3959C9.65309 30.4633 11.0875 31.3205 13.1842 31.82C12.7463 31.0649 12.4467 30.2414 12.2974 29.3673Z" fill="white"/>
<path d="M13.3738 24.0188C14.5897 22.1169 16.64 20.7821 19.0134 20.5096V16.7279L18.7654 16.6992C18.4372 16.6596 15.781 16.6199 15.5102 16.6478C14.0927 16.7954 13.1654 16.9768 12.2035 17.2949C10.6831 17.7944 9.58791 18.5437 9.1905 19.3672C9.02934 19.708 9.02344 19.7249 9.02344 20.491C9.02344 21.2631 9.02344 21.2749 9.19641 21.6267C9.69759 22.6713 11.218 23.5344 13.373 24.0171L13.3738 24.0188Z" fill="white"/>
<path d="M35.9047 29.504L35.8415 29.3563L35.628 29.6744C34.8847 30.7704 32.8858 31.6505 30.3048 32.0082C29.51 32.1162 27.6318 32.1331 26.5256 32.0538C26.0708 32.7921 25.4887 33.4451 24.8086 33.9902C25.2811 34.0923 25.7764 34.1716 26.2953 34.229C27.1188 34.3201 28.9624 34.337 29.7859 34.2577C32.5913 33.9851 34.8382 33.0595 35.6558 31.8445C35.9436 31.4134 36.0187 31.0784 35.99 30.3114C35.9782 29.9478 35.9385 29.585 35.9039 29.5048L35.9047 29.504Z" fill="white"/>
<path d="M12.1987 27.619C12.2451 26.8976 12.3885 26.1998 12.6248 25.5409C12.0139 25.3704 11.4613 25.1663 11.0461 24.9621C10.2918 24.5874 9.50798 23.9513 9.28354 23.5252C9.24304 23.4399 9.18566 23.3775 9.15698 23.3775C9.12829 23.3775 9.08188 23.5024 9.04729 23.65C9.0127 23.8087 8.99582 24.1892 9.00088 24.5756C9.01776 25.1603 9.03548 25.2515 9.16795 25.524C9.60585 26.404 10.6833 27.1305 12.1979 27.619H12.1987Z" fill="white"/>
</g>
<line x1="39.1213" y1="7.12132" x2="7.12132" y2="39.1213" stroke="white" stroke-width="6"/>
<defs>
<clipPath id="clip0_5238_1121">
<rect width="27" height="27" fill="white" transform="translate(9 9)"/>
</clipPath>
</defs>
</svg>
