<?xml version="1.0" encoding="utf-8"?>
<!-- Generator: Adobe Illustrator 24.1.3, SVG Export Plug-In . SVG Version: 6.00 Build 0)  -->
<svg version="1.1" id="Layer_1" xmlns="http://www.w3.org/2000/svg" xmlns:xlink="http://www.w3.org/1999/xlink" x="0px" y="0px"
	 width="120px" height="30px" viewBox="0 0 120 30" style="enable-background:new 0 0 120 30;" xml:space="preserve">
<style type="text/css">
	.st0{fill:#636466;}
	.st1{fill:#B43583;}
	.st2{fill:#FFFFFF;}
</style>
<g>
	<path class="st0" d="M114.4,29H4.7c-1.7,0-3-1.4-3-3V4.3c0-1.7,1.4-3,3-3h109.7c1.7,0,3,1.4,3,3V26C117.4,27.7,116.1,29,114.4,29z
		 M4.7,2c-1.2,0-2.3,1-2.3,2.3V26c0,1.2,1,2.3,2.3,2.3h109.7c1.2,0,2.3-1,2.3-2.3V4.3c0-1.2-1-2.3-2.3-2.3H4.7z"/>
</g>
<g>
	<g>
		<path class="st1" d="M37.2,15.3H33v3.3h5v1.8h-7.3V8.9H38v1.8h-5v2.9h4.2V15.3z"/>
		<path class="st1" d="M42.6,14.5L42.6,14.5l1.3-2.7h2.6L44,16l2.6,4.3H44l-1.4-2.8l-1.4,2.8h-2.6l2.6-4.3l-2.6-4.2h2.6L42.6,14.5z"
			/>
		<path class="st1" d="M55.2,16.3c0,1.3-0.3,2.3-0.9,3c-0.6,0.8-1.4,1.1-2.4,1.1c-0.4,0-0.8-0.1-1.2-0.2s-0.6-0.4-0.9-0.7v4.1h-2.3
			V11.8h2.1l0.1,1c0.3-0.4,0.6-0.7,0.9-0.9c0.4-0.2,0.8-0.3,1.2-0.3c1,0,1.9,0.4,2.4,1.2c0.6,0.8,0.9,1.9,0.9,3.2V16.3z M52.9,16.1
			c0-0.8-0.1-1.4-0.4-1.9c-0.3-0.5-0.7-0.7-1.2-0.7c-0.3,0-0.6,0.1-0.9,0.2S50,14,49.9,14.2v3.7c0.1,0.2,0.3,0.4,0.6,0.5
			s0.5,0.2,0.9,0.2c0.6,0,1-0.2,1.2-0.6c0.3-0.4,0.4-1,0.4-1.8V16.1z"/>
		<path class="st1" d="M59,9.8h-2.3V8.1H59V9.8z M59,20.3h-2.3v-8.5H59V20.3z"/>
		<path class="st1" d="M65.4,13.8l-0.8,0c-0.3,0-0.6,0.1-0.8,0.2s-0.4,0.3-0.5,0.6v5.7h-2.3v-8.5H63l0.1,1.3c0.2-0.4,0.5-0.8,0.8-1
			c0.3-0.2,0.7-0.4,1.1-0.4c0.1,0,0.2,0,0.3,0c0.1,0,0.2,0,0.3,0.1L65.4,13.8z"/>
		<path class="st1" d="M70.1,20.4c-1.3,0-2.2-0.4-3-1.2s-1.1-1.8-1.1-3V16c0-1.3,0.3-2.3,1-3.1c0.7-0.8,1.6-1.2,2.8-1.2
			c1.1,0,2,0.3,2.6,1s0.9,1.6,0.9,2.8v1.2h-5l0,0c0,0.6,0.2,1,0.5,1.4s0.8,0.5,1.4,0.5c0.5,0,0.9-0.1,1.3-0.2
			c0.4-0.1,0.7-0.3,1.1-0.5l0.6,1.4c-0.3,0.3-0.8,0.5-1.4,0.7S70.7,20.4,70.1,20.4z M69.9,13.4c-0.5,0-0.8,0.2-1.1,0.5
			c-0.2,0.3-0.4,0.7-0.4,1.3l0,0h2.8V15c0-0.5-0.1-0.9-0.3-1.2C70.7,13.5,70.4,13.4,69.9,13.4z"/>
		<path class="st1" d="M74.4,16.1c0-1.3,0.3-2.4,0.9-3.2c0.6-0.8,1.4-1.2,2.4-1.2c0.4,0,0.8,0.1,1.1,0.3c0.3,0.2,0.6,0.4,0.9,0.8
			V8.1H82v12.2h-1.9l-0.2-1c-0.3,0.4-0.6,0.7-0.9,0.9c-0.4,0.2-0.8,0.3-1.3,0.3c-1,0-1.8-0.4-2.4-1.1c-0.6-0.8-0.9-1.8-0.9-3V16.1z
			 M76.7,16.3c0,0.7,0.1,1.3,0.4,1.7c0.3,0.4,0.7,0.6,1.2,0.6c0.3,0,0.6-0.1,0.9-0.2s0.4-0.3,0.6-0.6v-3.6c-0.2-0.3-0.4-0.5-0.6-0.6
			s-0.5-0.2-0.8-0.2c-0.6,0-1,0.2-1.2,0.7c-0.3,0.5-0.4,1.1-0.4,1.9V16.3z"/>
	</g>
</g>
<polygon class="st1" points="16.6,8 9.5,20.2 23.6,20.2 "/>
<g>
	<path class="st2" d="M17.2,16.6h-1.3v-4.1h1.3V16.6z M17.2,18.7h-1.3v-1.1h1.3V18.7z"/>
</g>
</svg>
