<svg width="91" height="32" viewBox="0 0 91 32" fill="none" xmlns="http://www.w3.org/2000/svg">
<rect width="91" height="32" rx="6" fill="white"/>
<g clip-path="url(#clip0_10487_22329)">
<path d="M18.5456 17.3636H17.4548V14.6362H18.5456V17.3636ZM18.5456 19.5457H17.4548V18.4549H18.5456V19.5457ZM12 21.1819H24L18 10.8184L12 21.1819Z" fill="#B32D7D"/>
</g>
<path d="M33.0387 21V11.5455H38.9663V12.7734H34.4652V15.6541H38.657V16.8775H34.4652V19.772H39.0217V21H33.0387ZM41.8504 13.9091L43.4154 16.6697L44.9942 13.9091H46.5038L44.2925 17.4545L46.5223 21H45.0127L43.4154 18.3501L41.8227 21H40.3085L42.5152 17.4545L40.3362 13.9091H41.8504ZM47.9211 23.6591V13.9091H49.2691V15.0586H49.3845C49.4645 14.9109 49.5799 14.7401 49.7307 14.5462C49.8815 14.3523 50.0908 14.183 50.3586 14.0384C50.6263 13.8906 50.9803 13.8168 51.4204 13.8168C51.9928 13.8168 52.5037 13.9614 52.953 14.2507C53.4024 14.54 53.7548 14.957 54.0102 15.5018C54.2687 16.0465 54.398 16.7021 54.398 17.4684C54.398 18.2347 54.2703 18.8918 54.0148 19.4396C53.7594 19.9844 53.4085 20.4045 52.9623 20.6999C52.516 20.9923 52.0067 21.1385 51.4342 21.1385C51.0033 21.1385 50.651 21.0662 50.377 20.9215C50.1062 20.7769 49.8939 20.6076 49.74 20.4137C49.5861 20.2198 49.4676 20.0475 49.3845 19.8967H49.3014V23.6591H47.9211ZM49.2737 17.4545C49.2737 17.9531 49.346 18.3902 49.4907 18.7656C49.6353 19.1411 49.8446 19.435 50.1185 19.6474C50.3924 19.8567 50.7279 19.9613 51.1249 19.9613C51.5373 19.9613 51.882 19.852 52.159 19.6335C52.436 19.4119 52.6453 19.1119 52.7868 18.7333C52.9315 18.3548 53.0038 17.9285 53.0038 17.4545C53.0038 16.9867 52.933 16.5666 52.7915 16.1942C52.653 15.8219 52.4437 15.5279 52.1636 15.3125C51.8866 15.0971 51.5404 14.9893 51.1249 14.9893C50.7248 14.9893 50.3863 15.0924 50.1093 15.2987C49.8354 15.5049 49.6276 15.7926 49.4861 16.1619C49.3445 16.5312 49.2737 16.9621 49.2737 17.4545ZM55.9445 21V13.9091H57.3248V21H55.9445ZM56.6416 12.815C56.4015 12.815 56.1953 12.735 56.023 12.5749C55.8537 12.4118 55.7691 12.2179 55.7691 11.9933C55.7691 11.7655 55.8537 11.5716 56.023 11.4116C56.1953 11.2485 56.4015 11.1669 56.6416 11.1669C56.8817 11.1669 57.0863 11.2485 57.2556 11.4116C57.4279 11.5716 57.5141 11.7655 57.5141 11.9933C57.5141 12.2179 57.4279 12.4118 57.2556 12.5749C57.0863 12.735 56.8817 12.815 56.6416 12.815ZM59.1818 21V13.9091H60.516V15.0355H60.5898C60.7191 14.6539 60.9469 14.3538 61.2731 14.1353C61.6024 13.9137 61.9748 13.8029 62.3903 13.8029C62.4764 13.8029 62.578 13.806 62.695 13.8121C62.815 13.8183 62.9089 13.826 62.9766 13.8352V15.1555C62.9212 15.1402 62.8227 15.1232 62.6811 15.1048C62.5395 15.0832 62.398 15.0724 62.2564 15.0724C61.9302 15.0724 61.6393 15.1417 61.3839 15.2802C61.1315 15.4156 60.9315 15.6049 60.7837 15.848C60.636 16.0881 60.5621 16.362 60.5621 16.6697V21H59.1818ZM66.9733 21.1431C66.2747 21.1431 65.673 20.9938 65.1682 20.6953C64.6666 20.3937 64.2788 19.9705 64.0049 19.4258C63.734 18.878 63.5986 18.2363 63.5986 17.5007C63.5986 16.7744 63.734 16.1342 64.0049 15.5803C64.2788 15.0263 64.6604 14.5939 65.1498 14.283C65.6422 13.9722 66.2177 13.8168 66.8763 13.8168C67.2764 13.8168 67.6642 13.8829 68.0397 14.0153C68.4152 14.1476 68.7522 14.3554 69.0507 14.6385C69.3492 14.9216 69.5847 15.2894 69.757 15.7418C69.9294 16.1912 70.0155 16.7375 70.0155 17.3807V17.87H64.3788V16.8359H68.6629C68.6629 16.4728 68.589 16.1512 68.4413 15.8711C68.2936 15.5879 68.0858 15.3648 67.8181 15.2017C67.5534 15.0386 67.2426 14.957 66.8856 14.957C66.4978 14.957 66.1592 15.0524 65.8699 15.2433C65.5837 15.431 65.3621 15.6772 65.2052 15.9819C65.0513 16.2835 64.9743 16.6113 64.9743 16.9652V17.7731C64.9743 18.247 65.0574 18.6502 65.2236 18.9826C65.3929 19.315 65.6283 19.5689 65.93 19.7443C66.2316 19.9167 66.584 20.0028 66.9871 20.0028C67.2487 20.0028 67.4872 19.9659 67.7027 19.892C67.9181 19.8151 68.1043 19.7012 68.2613 19.5504C68.4182 19.3996 68.5383 19.2134 68.6214 18.9918L69.9278 19.2273C69.8232 19.612 69.6354 19.949 69.3646 20.2383C69.0969 20.5245 68.7599 20.7476 68.3536 20.9077C67.9504 21.0646 67.4903 21.1431 66.9733 21.1431ZM74.2015 21.1385C73.6291 21.1385 73.1182 20.9923 72.6689 20.6999C72.2226 20.4045 71.8717 19.9844 71.6163 19.4396C71.3639 18.8918 71.2377 18.2347 71.2377 17.4684C71.2377 16.7021 71.3655 16.0465 71.6209 15.5018C71.8794 14.957 72.2334 14.54 72.6827 14.2507C73.132 13.9614 73.6414 13.8168 74.2108 13.8168C74.6509 13.8168 75.0048 13.8906 75.2725 14.0384C75.5434 14.183 75.7527 14.3523 75.9004 14.5462C76.0512 14.7401 76.1681 14.9109 76.2512 15.0586H76.3343V11.5455H77.7147V21H76.3667V19.8967H76.2512C76.1681 20.0475 76.0481 20.2198 75.8912 20.4137C75.7373 20.6076 75.5249 20.7769 75.2541 20.9215C74.9833 21.0662 74.6324 21.1385 74.2015 21.1385ZM74.5062 19.9613C74.9032 19.9613 75.2387 19.8567 75.5126 19.6474C75.7896 19.435 75.9989 19.1411 76.1404 18.7656C76.2851 18.3902 76.3574 17.9531 76.3574 17.4545C76.3574 16.9621 76.2866 16.5312 76.1451 16.1619C76.0035 15.7926 75.7958 15.5049 75.5218 15.2987C75.2479 15.0924 74.9094 14.9893 74.5062 14.9893C74.0907 14.9893 73.7445 15.0971 73.4675 15.3125C73.1905 15.5279 72.9812 15.8219 72.8397 16.1942C72.7012 16.5666 72.6319 16.9867 72.6319 17.4545C72.6319 17.9285 72.7027 18.3548 72.8443 18.7333C72.9859 19.1119 73.1951 19.4119 73.4721 19.6335C73.7522 19.852 74.0969 19.9613 74.5062 19.9613Z" fill="#B32D7D"/>
<defs>
<clipPath id="clip0_10487_22329">
<rect width="12" height="12" fill="white" transform="translate(12 10)"/>
</clipPath>
</defs>
</svg>
