<svg width="12" height="13" viewBox="0 0 12 13" fill="none" xmlns="http://www.w3.org/2000/svg">
<g clip-path="url(#clip0_9925_1304)">
<path d="M5.907 3.88346L7.63613 5.60697C7.63613 5.57959 7.63613 5.54697 7.63613 5.51959C7.63613 4.61584 6.90337 3.88309 5.99962 3.88309C5.967 3.88309 5.93962 3.88309 5.907 3.88309V3.88346ZM3.56137 4.31996L4.407 5.16559C4.37962 5.27996 4.3635 5.39471 4.3635 5.51996C4.3635 6.42371 5.09625 7.15646 6 7.15646C6.12 7.15646 6.24 7.13997 6.35437 7.11297L7.2 7.95859C6.83438 8.13859 6.43087 8.24772 6 8.24772C4.49362 8.24772 3.27262 7.02671 3.27262 5.52034C3.27262 5.08946 3.38175 4.68597 3.56175 4.32034L3.56137 4.31996ZM0.54525 1.30346L2.03438 2.79259C1.13438 3.50171 0.42525 4.42909 0 5.51996C0.9435 7.91434 3.27262 9.61084 6 9.61084C6.84562 9.61084 7.65263 9.44734 8.38912 9.15259L8.6235 9.38171L10.2161 10.9743L10.9088 10.2817L1.23787 0.61084L0.54525 1.30346ZM5.99962 2.79259C7.506 2.79259 8.727 4.01359 8.727 5.51996C8.727 5.86909 8.65613 6.20734 8.5305 6.51259L10.1287 8.11084C10.947 7.42909 11.6014 6.53434 11.9996 5.51996C11.0561 3.12559 8.727 1.42909 5.99962 1.42909C5.23612 1.42909 4.50525 1.56559 3.81787 1.81084L5.00138 2.98346C5.31225 2.86346 5.64488 2.79259 5.99962 2.79259Z" fill="#0E73A9"/>
</g>
<defs>
<clipPath id="clip0_9925_1304">
<rect width="12" height="12" fill="white" transform="translate(0 0.705078)"/>
</clipPath>
</defs>
</svg>
