<svg width="12" height="13" viewBox="0 0 12 13" fill="none" xmlns="http://www.w3.org/2000/svg">
<path d="M6 4.15603C5.09625 4.15603 4.3635 4.88879 4.3635 5.79254C4.3635 6.69629 5.09625 7.42904 6 7.42904C6.90375 7.42904 7.6365 6.69629 7.6365 5.79254C7.6365 4.88879 6.90375 4.15603 6 4.15603ZM6 8.51991C4.49362 8.51991 3.27262 7.29891 3.27262 5.79254C3.27262 4.28616 4.49362 3.06516 6 3.06516C7.50638 3.06516 8.72738 4.28616 8.72738 5.79254C8.72738 7.29891 7.50638 8.51991 6 8.51991ZM6 1.70166C3.27262 1.70166 0.9435 3.39816 0 5.79254C0.9435 8.18691 3.27262 9.88341 6 9.88341C8.72738 9.88341 11.0565 8.18691 12 5.79254C11.0565 3.39816 8.72738 1.70166 6 1.70166Z" fill="#0E73A9"/>
</svg>
