<svg width="15" height="5" viewBox="0 0 81 17" fill="none" xmlns="http://www.w3.org/2000/svg">
<circle cx="6" cy="8.20508" r="4" fill="#E02424"/>
<path d="M29.2514 8.47781C29.2514 9.48728 29.0668 10.3552 28.6974 11.0815C28.3281 11.8047 27.8219 12.3618 27.1786 12.7527C26.5385 13.1404 25.8106 13.3343 24.995 13.3343C24.1764 13.3343 23.4454 13.1404 22.8022 12.7527C22.1621 12.3618 21.6573 11.8032 21.288 11.0769C20.9187 10.3506 20.734 9.4842 20.734 8.47781C20.734 7.46834 20.9187 6.60198 21.288 5.87873C21.6573 5.1524 22.1621 4.59535 22.8022 4.20756C23.4454 3.8167 24.1764 3.62127 24.995 3.62127C25.8106 3.62127 26.5385 3.8167 27.1786 4.20756C27.8219 4.59535 28.3281 5.1524 28.6974 5.87873C29.0668 6.60198 29.2514 7.46834 29.2514 8.47781ZM27.8388 8.47781C27.8388 7.70839 27.7141 7.06055 27.4648 6.53427C27.2186 6.00491 26.8801 5.60482 26.4492 5.33398C26.0214 5.06007 25.5367 4.92312 24.995 4.92312C24.4503 4.92312 23.964 5.06007 23.5362 5.33398C23.1084 5.60482 22.7699 6.00491 22.5206 6.53427C22.2744 7.06055 22.1513 7.70839 22.1513 8.47781C22.1513 9.24722 22.2744 9.8966 22.5206 10.426C22.7699 10.9522 23.1084 11.3523 23.5362 11.6262C23.964 11.8971 24.4503 12.0325 24.995 12.0325C25.5367 12.0325 26.0214 11.8971 26.4492 11.6262C26.8801 11.3523 27.2186 10.9522 27.4648 10.426C27.7141 9.8966 27.8388 9.24722 27.8388 8.47781ZM32.2994 8.99485V13.2051H30.9191V6.11417H32.2441V7.26829H32.3318C32.4949 6.89281 32.7503 6.5912 33.0981 6.36346C33.449 6.13571 33.8906 6.02184 34.423 6.02184C34.9062 6.02184 35.3294 6.1234 35.6926 6.32653C36.0557 6.52657 36.3373 6.82511 36.5374 7.22212C36.7374 7.61914 36.8374 8.11003 36.8374 8.69478V13.2051H35.4571V8.86097C35.4571 8.34701 35.3232 7.94537 35.0555 7.65607C34.7877 7.3637 34.42 7.21751 33.9521 7.21751C33.6321 7.21751 33.3474 7.28675 33.0981 7.42525C32.8519 7.56374 32.6565 7.76687 32.5118 8.03462C32.3702 8.2993 32.2994 8.61938 32.2994 8.99485ZM42.2399 13.2051V3.75053H43.6664V7.8592H48.3798V3.75053H49.8109V13.2051H48.3798V9.08256H43.6664V13.2051H42.2399ZM54.7644 13.3482C54.0996 13.3482 53.5195 13.1958 53.024 12.8912C52.5285 12.5865 52.1438 12.1602 51.8699 11.6124C51.5959 11.0646 51.459 10.4244 51.459 9.69194C51.459 8.95638 51.5959 8.31315 51.8699 7.76225C52.1438 7.21135 52.5285 6.78356 53.024 6.47887C53.5195 6.17418 54.0996 6.02184 54.7644 6.02184C55.4292 6.02184 56.0093 6.17418 56.5048 6.47887C57.0003 6.78356 57.385 7.21135 57.6589 7.76225C57.9328 8.31315 58.0698 8.95638 58.0698 9.69194C58.0698 10.4244 57.9328 11.0646 57.6589 11.6124C57.385 12.1602 57.0003 12.5865 56.5048 12.8912C56.0093 13.1958 55.4292 13.3482 54.7644 13.3482ZM54.769 12.1895C55.1999 12.1895 55.5569 12.0756 55.84 11.8478C56.1232 11.6201 56.3324 11.3169 56.4679 10.9384C56.6064 10.5598 56.6756 10.1428 56.6756 9.68732C56.6756 9.23491 56.6064 8.81942 56.4679 8.44087C56.3324 8.05924 56.1232 7.75302 55.84 7.52219C55.5569 7.29137 55.1999 7.17596 54.769 7.17596C54.335 7.17596 53.975 7.29137 53.6887 7.52219C53.4056 7.75302 53.1948 8.05924 53.0563 8.44087C52.9209 8.81942 52.8532 9.23491 52.8532 9.68732C52.8532 10.1428 52.9209 10.5598 53.0563 10.9384C53.1948 11.3169 53.4056 11.6201 53.6887 11.8478C53.975 12.0756 54.335 12.1895 54.769 12.1895ZM60.9909 3.75053V13.2051H59.6105V3.75053H60.9909ZM65.5023 13.3436C64.9299 13.3436 64.419 13.1974 63.9696 12.905C63.5234 12.6096 63.1725 12.1895 62.9171 11.6447C62.6647 11.0969 62.5385 10.4398 62.5385 9.67347C62.5385 8.90714 62.6663 8.2516 62.9217 7.70685C63.1802 7.16211 63.5342 6.74509 63.9835 6.45579C64.4328 6.16649 64.9422 6.02184 65.5115 6.02184C65.9516 6.02184 66.3056 6.0957 66.5733 6.24343C66.8442 6.38808 67.0534 6.55735 67.2012 6.75124C67.352 6.94513 67.4689 7.11594 67.552 7.26367H67.6351V3.75053H69.0154V13.2051H67.6674V12.1017H67.552C67.4689 12.2525 67.3489 12.4249 67.1919 12.6188C67.0381 12.8127 66.8257 12.9819 66.5549 13.1266C66.284 13.2712 65.9332 13.3436 65.5023 13.3436ZM65.807 12.1664C66.204 12.1664 66.5395 12.0617 66.8134 11.8525C67.0904 11.6401 67.2997 11.3462 67.4412 10.9707C67.5859 10.5952 67.6582 10.1582 67.6582 9.65962C67.6582 9.1672 67.5874 8.73633 67.4458 8.36701C67.3043 7.99769 67.0965 7.70993 66.8226 7.50373C66.5487 7.29753 66.2102 7.19442 65.807 7.19442C65.3915 7.19442 65.0453 7.30214 64.7683 7.51758C64.4913 7.73301 64.282 8.02693 64.1404 8.39933C64.002 8.77172 63.9327 9.19182 63.9327 9.65962C63.9327 10.1336 64.0035 10.5598 64.1451 10.9384C64.2866 11.3169 64.4959 11.617 64.7729 11.8386C65.053 12.0571 65.3977 12.1664 65.807 12.1664Z" fill="#E02424"/>
</svg>
