<svg width="122" height="106" viewBox="0 0 122 106" fill="none" xmlns="http://www.w3.org/2000/svg">
<circle cx="60.5008" cy="46.9344" r="42.0789" fill="#0E73A9" fill-opacity="0.8"/>
<circle cx="10.9933" cy="20.2296" r="4.04605" fill="#C0E6FA"/>
<circle cx="8.56682" cy="88.2035" r="5.66447" fill="#C0E6FA"/>
<circle cx="115.336" cy="33.1781" r="5.66447" fill="#C0E6FA"/>
<circle cx="106.434" cy="11.3286" r="3.23684" fill="#C0E6FA"/>
<g filter="url(#filter0_dd_10272_1473)">
<path d="M60.5005 29.1824L64.1711 27.645L60.501 29.2085V72.9825L94.3225 58.8097V15.0162L94.4874 14.9471L94.3225 14.874V14.8005L94.2379 14.8365L60.7674 0L26.5137 14.5912L26.6758 14.6608L26.5137 58.2766L60.5005 72.9565L60.5005 29.1824Z" fill="#F9FAFB"/>
<path d="M60.5005 29.1823V72.9563L26.5137 58.2764L26.6758 14.6606L60.5005 29.1823Z" fill="url(#paint0_linear_10272_1473)"/>
<path d="M60.502 29.2093V72.9833L94.3234 58.8105V14.8013L60.502 29.2093Z" fill="url(#paint1_linear_10272_1473)"/>
<path d="M60.5005 29.1824L94.4874 14.9471L60.7674 0L26.5137 14.5912L60.5005 29.1824Z" fill="#0E73A9" fill-opacity="0.5"/>
<path d="M39.3262 9.13363L73.1834 23.8704L73.491 34.6096L82.9638 30.7008L82.6774 19.8939L47.8185 5.51611L39.3262 9.13363Z" fill="#0E73A9"/>
</g>
<g filter="url(#filter1_b_10272_1473)">
<rect x="41.0781" y="55.0254" width="38.8421" height="38.8421" rx="19.4211" fill="white" fill-opacity="0.4"/>
<path d="M69.6275 67.2256C69.8682 66.9788 70.0021 66.6471 70 66.3024C69.9979 65.9576 69.86 65.6276 69.6162 65.3838C69.3724 65.14 69.0424 65.0021 68.6976 65C68.3529 64.9979 68.0212 65.1318 67.7744 65.3725L66.0413 67.1056C64.1948 65.7072 61.9045 65.0242 59.5936 65.183C57.2827 65.3418 55.1074 66.3316 53.4695 67.9695C51.8316 69.6074 50.8418 71.7827 50.683 74.0936C50.5242 76.4045 51.2072 78.6948 52.6056 80.5413L50.8725 82.2744C50.6318 82.5212 50.4979 82.8529 50.5 83.1976C50.5021 83.5424 50.64 83.8724 50.8838 84.1162C51.1276 84.36 51.4576 84.4979 51.8024 84.5C52.1471 84.5021 52.4788 84.3682 52.7256 84.1275L54.4587 82.3944C56.3052 83.7928 58.5955 84.4758 60.9064 84.317C63.2173 84.1582 65.3926 83.1684 67.0305 81.5305C68.6684 79.8926 69.6582 77.7173 69.817 75.4064C69.9758 73.0955 69.2928 70.8052 67.8944 68.9587L69.6275 67.2256ZM53.2809 74.75C53.2809 70.9073 56.4073 67.7809 60.25 67.7809C61.6455 67.7794 63.009 68.1991 64.162 68.9853L54.4853 78.662C53.6991 77.509 53.2794 76.1455 53.2809 74.75ZM67.2191 74.75C67.2191 78.5927 64.0927 81.7191 60.25 81.7191C58.8545 81.7206 57.491 81.3009 56.338 80.5147L66.0147 70.838C66.8009 71.991 67.2206 73.3545 67.2191 74.75Z" fill="white" fill-opacity="0.79"/>
</g>
<defs>
<filter id="filter0_dd_10272_1473" x="10.3295" y="0" width="100.343" height="105.352" filterUnits="userSpaceOnUse" color-interpolation-filters="sRGB">
<feFlood flood-opacity="0" result="BackgroundImageFix"/>
<feColorMatrix in="SourceAlpha" type="matrix" values="0 0 0 0 0 0 0 0 0 0 0 0 0 0 0 0 0 0 127 0" result="hardAlpha"/>
<feMorphology radius="3.23684" operator="erode" in="SourceAlpha" result="effect1_dropShadow_10272_1473"/>
<feOffset dy="6.47368"/>
<feGaussianBlur stdDeviation="3.23684"/>
<feColorMatrix type="matrix" values="0 0 0 0 0.0627451 0 0 0 0 0.0941176 0 0 0 0 0.156863 0 0 0 0.03 0"/>
<feBlend mode="normal" in2="BackgroundImageFix" result="effect1_dropShadow_10272_1473"/>
<feColorMatrix in="SourceAlpha" type="matrix" values="0 0 0 0 0 0 0 0 0 0 0 0 0 0 0 0 0 0 127 0" result="hardAlpha"/>
<feMorphology radius="3.23684" operator="erode" in="SourceAlpha" result="effect2_dropShadow_10272_1473"/>
<feOffset dy="16.1842"/>
<feGaussianBlur stdDeviation="9.71053"/>
<feColorMatrix type="matrix" values="0 0 0 0 0.0627451 0 0 0 0 0.0941176 0 0 0 0 0.156863 0 0 0 0.08 0"/>
<feBlend mode="normal" in2="effect1_dropShadow_10272_1473" result="effect2_dropShadow_10272_1473"/>
<feBlend mode="normal" in="SourceGraphic" in2="effect2_dropShadow_10272_1473" result="shape"/>
</filter>
<filter id="filter1_b_10272_1473" x="34.6044" y="48.5517" width="51.7892" height="51.7897" filterUnits="userSpaceOnUse" color-interpolation-filters="sRGB">
<feFlood flood-opacity="0" result="BackgroundImageFix"/>
<feGaussianBlur in="BackgroundImageFix" stdDeviation="3.23684"/>
<feComposite in2="SourceAlpha" operator="in" result="effect1_backgroundBlur_10272_1473"/>
<feBlend mode="normal" in="SourceGraphic" in2="effect1_backgroundBlur_10272_1473" result="shape"/>
</filter>
<linearGradient id="paint0_linear_10272_1473" x1="60.0005" y1="29.0005" x2="46.6718" y2="65.5407" gradientUnits="userSpaceOnUse">
<stop stop-color="#518FB0"/>
<stop offset="1" stop-color="#DAEDFA"/>
</linearGradient>
<linearGradient id="paint1_linear_10272_1473" x1="60.5015" y1="30.0661" x2="98.8247" y2="37.6959" gradientUnits="userSpaceOnUse">
<stop stop-color="#518FB0"/>
<stop offset="1" stop-color="#D1DFE8"/>
</linearGradient>
</defs>
</svg>
