<svg width="99" height="32" viewBox="0 0 99 32" fill="none" xmlns="http://www.w3.org/2000/svg">
<rect width="99" height="32" rx="6" fill="white"/>
<circle cx="18" cy="15.0874" r="4" fill="#008A22"/>
<path d="M33.0387 21V11.5455H34.4652V19.772H38.7493V21H33.0387ZM40.2658 21V13.9091H41.6461V21H40.2658ZM40.9629 12.815C40.7228 12.815 40.5166 12.735 40.3443 12.5749C40.175 12.4118 40.0904 12.2179 40.0904 11.9933C40.0904 11.7655 40.175 11.5716 40.3443 11.4116C40.5166 11.2485 40.7228 11.1669 40.9629 11.1669C41.2029 11.1669 41.4076 11.2485 41.5769 11.4116C41.7492 11.5716 41.8354 11.7655 41.8354 11.9933C41.8354 12.2179 41.7492 12.4118 41.5769 12.5749C41.4076 12.735 41.2029 12.815 40.9629 12.815ZM49.5692 13.9091L46.9978 21H45.5205L42.9445 13.9091H44.4264L46.2222 19.3658H46.2961L48.0873 13.9091H49.5692ZM53.6813 21.1431C52.9827 21.1431 52.381 20.9938 51.8762 20.6953C51.3746 20.3937 50.9868 19.9705 50.7129 19.4258C50.4421 18.878 50.3066 18.2363 50.3066 17.5007C50.3066 16.7744 50.4421 16.1342 50.7129 15.5803C50.9868 15.0263 51.3684 14.5939 51.8578 14.283C52.3502 13.9722 52.9257 13.8168 53.5843 13.8168C53.9844 13.8168 54.3722 13.8829 54.7477 14.0153C55.1232 14.1476 55.4602 14.3554 55.7587 14.6385C56.0572 14.9216 56.2927 15.2894 56.465 15.7418C56.6374 16.1912 56.7235 16.7375 56.7235 17.3807V17.87H51.0868V16.8359H55.3709C55.3709 16.4728 55.2971 16.1512 55.1493 15.8711C55.0016 15.5879 54.7939 15.3648 54.5261 15.2017C54.2614 15.0386 53.9506 14.957 53.5936 14.957C53.2058 14.957 52.8672 15.0524 52.5779 15.2433C52.2917 15.431 52.0701 15.6772 51.9132 15.9819C51.7593 16.2835 51.6824 16.6113 51.6824 16.9652V17.7731C51.6824 18.247 51.7654 18.6502 51.9316 18.9826C52.1009 19.315 52.3364 19.5689 52.638 19.7443C52.9396 19.9167 53.292 20.0028 53.6951 20.0028C53.9567 20.0028 54.1953 19.9659 54.4107 19.892C54.6261 19.8151 54.8123 19.7012 54.9693 19.5504C55.1262 19.3996 55.2463 19.2134 55.3294 18.9918L56.6358 19.2273C56.5312 19.612 56.3435 19.949 56.0726 20.2383C55.8049 20.5245 55.4679 20.7476 55.0616 20.9077C54.6584 21.0646 54.1983 21.1431 53.6813 21.1431Z" fill="#008A22"/>
<path d="M78.175 12.1655L82 15.9905L85.825 12.1655L87 13.349L82 18.349L77 13.349L78.175 12.1655Z" fill="#595959"/>
</svg>
