<svg width="113" height="32" viewBox="0 0 113 32" fill="none" xmlns="http://www.w3.org/2000/svg">
<rect width="113" height="32" rx="6" fill="white"/>
<g clip-path="url(#clip0_10487_22350)">
<rect x="14" y="12.7949" width="8" height="8" rx="2" fill="#DD0909"/>
<line x1="18" y1="12.7949" x2="18" y2="20.7949" stroke="white" stroke-width="2"/>
</g>
<path d="M33.0387 21V11.5455H36.4087C37.1443 11.5455 37.7537 11.6793 38.2369 11.9471C38.7201 12.2148 39.0817 12.5811 39.3217 13.0458C39.5618 13.5075 39.6818 14.0276 39.6818 14.6062C39.6818 15.1879 39.5603 15.7111 39.3171 16.1758C39.0771 16.6374 38.7139 17.0037 38.2276 17.2745C37.7444 17.5423 37.1366 17.6761 36.4041 17.6761H34.0866V16.4666H36.2749C36.7396 16.4666 37.1166 16.3866 37.4059 16.2266C37.6952 16.0634 37.9076 15.8419 38.043 15.5618C38.1784 15.2817 38.2461 14.9632 38.2461 14.6062C38.2461 14.2492 38.1784 13.9322 38.043 13.6552C37.9076 13.3782 37.6937 13.1612 37.4013 13.0043C37.112 12.8473 36.7304 12.7688 36.2564 12.7688H34.4652V21H33.0387ZM43.2434 21.157C42.7941 21.157 42.3878 21.0739 42.0247 20.9077C41.6615 20.7384 41.3738 20.4937 41.1614 20.1737C40.9521 19.8536 40.8475 19.4612 40.8475 18.9964C40.8475 18.5964 40.9244 18.267 41.0783 18.0085C41.2322 17.75 41.4399 17.5453 41.7015 17.3945C41.9631 17.2437 42.2555 17.1299 42.5787 17.0529C42.9018 16.976 43.2311 16.9175 43.5666 16.8775C43.9913 16.8282 44.336 16.7882 44.6007 16.7575C44.8654 16.7236 45.0577 16.6697 45.1777 16.5959C45.2978 16.522 45.3578 16.402 45.3578 16.2358V16.2035C45.3578 15.8003 45.2439 15.4879 45.0162 15.2663C44.7915 15.0447 44.456 14.9339 44.0098 14.9339C43.545 14.9339 43.1788 15.037 42.911 15.2433C42.6464 15.4464 42.4632 15.6726 42.3617 15.9219L41.0645 15.6264C41.2183 15.1955 41.443 14.8478 41.7385 14.5831C42.037 14.3153 42.3801 14.1214 42.7679 14.0014C43.1557 13.8783 43.5635 13.8168 43.9913 13.8168C44.2744 13.8168 44.5745 13.8506 44.8915 13.9183C45.2116 13.983 45.5101 14.103 45.7871 14.2784C46.0672 14.4538 46.2965 14.7047 46.475 15.0309C46.6535 15.354 46.7427 15.7741 46.7427 16.2912V21H45.3947V20.0305H45.3393C45.2501 20.209 45.1162 20.3845 44.9377 20.5568C44.7592 20.7292 44.5299 20.8723 44.2498 20.9862C43.9698 21.1 43.6343 21.157 43.2434 21.157ZM43.5435 20.049C43.9251 20.049 44.2514 19.9736 44.5222 19.8228C44.7961 19.672 45.0038 19.475 45.1454 19.2319C45.2901 18.9857 45.3624 18.7225 45.3624 18.4425V17.5284C45.3132 17.5777 45.2177 17.6238 45.0762 17.6669C44.9377 17.7069 44.7792 17.7423 44.6007 17.7731C44.4222 17.8008 44.2483 17.8269 44.079 17.8516C43.9097 17.8731 43.7682 17.8916 43.6543 17.907C43.3865 17.9408 43.1419 17.9978 42.9203 18.0778C42.7018 18.1578 42.5263 18.2732 42.394 18.424C42.2647 18.5717 42.2001 18.7687 42.2001 19.0149C42.2001 19.3565 42.3263 19.6151 42.5787 19.7905C42.831 19.9628 43.1526 20.049 43.5435 20.049ZM53.0731 18.0593V13.9091H54.458V21H53.1008V19.772H53.0269C52.8638 20.1506 52.6022 20.466 52.2421 20.7184C51.8851 20.9677 51.4404 21.0923 50.9079 21.0923C50.4524 21.0923 50.0493 20.9923 49.6984 20.7923C49.3506 20.5891 49.0767 20.2891 48.8767 19.892C48.6797 19.495 48.5812 19.0041 48.5812 18.4194V13.9091H49.9616V18.2532C49.9616 18.7364 50.0954 19.1211 50.3632 19.4073C50.6309 19.6935 50.9787 19.8366 51.4065 19.8366C51.665 19.8366 51.922 19.772 52.1775 19.6428C52.436 19.5135 52.6499 19.3181 52.8192 19.0565C52.9915 18.7949 53.0761 18.4625 53.0731 18.0593ZM61.6262 15.6403L60.3752 15.8619C60.3229 15.7018 60.2398 15.5495 60.1259 15.4048C60.0151 15.2602 59.8643 15.1417 59.6735 15.0494C59.4827 14.957 59.2441 14.9109 58.9579 14.9109C58.5671 14.9109 58.2408 14.9986 57.9792 15.174C57.7176 15.3464 57.5868 15.5695 57.5868 15.8434C57.5868 16.0804 57.6745 16.2712 57.85 16.4158C58.0254 16.5605 58.3085 16.679 58.6994 16.7713L59.8258 17.0298C60.4783 17.1806 60.9645 17.413 61.2846 17.7269C61.6047 18.0408 61.7647 18.4486 61.7647 18.9503C61.7647 19.375 61.6416 19.7536 61.3954 20.0859C61.1523 20.4152 60.8122 20.6738 60.3752 20.8615C59.9412 21.0492 59.438 21.1431 58.8656 21.1431C58.0716 21.1431 57.4237 20.9738 56.9221 20.6353C56.4204 20.2937 56.1126 19.8089 55.9988 19.1811L57.3329 18.978C57.416 19.3258 57.5868 19.5889 57.8453 19.7674C58.1039 19.9428 58.4409 20.0305 58.8564 20.0305C59.3088 20.0305 59.6704 19.9367 59.9412 19.7489C60.2121 19.5581 60.3475 19.3258 60.3475 19.0518C60.3475 18.8303 60.2644 18.6441 60.0982 18.4933C59.9351 18.3424 59.6842 18.2286 59.3457 18.1516L58.1454 17.8885C57.4837 17.7377 56.9944 17.4976 56.6774 17.1683C56.3635 16.839 56.2065 16.422 56.2065 15.9173C56.2065 15.4987 56.3234 15.1325 56.5574 14.8185C56.7913 14.5046 57.1144 14.2599 57.5268 14.0845C57.9392 13.906 58.4116 13.8168 58.9441 13.8168C59.7104 13.8168 60.3136 13.983 60.7537 14.3153C61.1938 14.6446 61.4847 15.0863 61.6262 15.6403ZM66.3385 21.1431C65.6399 21.1431 65.0382 20.9938 64.5335 20.6953C64.0318 20.3937 63.644 19.9705 63.3701 19.4258C63.0993 18.878 62.9639 18.2363 62.9639 17.5007C62.9639 16.7744 63.0993 16.1342 63.3701 15.5803C63.644 15.0263 64.0257 14.5939 64.515 14.283C65.0074 13.9722 65.5829 13.8168 66.2416 13.8168C66.6417 13.8168 67.0294 13.8829 67.4049 14.0153C67.7804 14.1476 68.1174 14.3554 68.4159 14.6385C68.7145 14.9216 68.9499 15.2894 69.1222 15.7418C69.2946 16.1912 69.3808 16.7375 69.3808 17.3807V17.87H63.7441V16.8359H68.0281C68.0281 16.4728 67.9543 16.1512 67.8066 15.8711C67.6588 15.5879 67.4511 15.3648 67.1833 15.2017C66.9186 15.0386 66.6078 14.957 66.2508 14.957C65.863 14.957 65.5245 15.0524 65.2352 15.2433C64.949 15.431 64.7274 15.6772 64.5704 15.9819C64.4165 16.2835 64.3396 16.6113 64.3396 16.9652V17.7731C64.3396 18.247 64.4227 18.6502 64.5889 18.9826C64.7581 19.315 64.9936 19.5689 65.2952 19.7443C65.5968 19.9167 65.9492 20.0028 66.3524 20.0028C66.614 20.0028 66.8525 19.9659 67.0679 19.892C67.2834 19.8151 67.4695 19.7012 67.6265 19.5504C67.7835 19.3996 67.9035 19.2134 67.9866 18.9918L69.2931 19.2273C69.1884 19.612 69.0007 19.949 68.7298 20.2383C68.4621 20.5245 68.1251 20.7476 67.7188 20.9077C67.3157 21.0646 66.8556 21.1431 66.3385 21.1431ZM73.5668 21.1385C72.9943 21.1385 72.4834 20.9923 72.0341 20.6999C71.5878 20.4045 71.237 19.9844 70.9815 19.4396C70.7292 18.8918 70.603 18.2347 70.603 17.4684C70.603 16.7021 70.7307 16.0465 70.9862 15.5018C71.2447 14.957 71.5986 14.54 72.0479 14.2507C72.4973 13.9614 73.0066 13.8168 73.576 13.8168C74.0161 13.8168 74.37 13.8906 74.6378 14.0384C74.9086 14.183 75.1179 14.3523 75.2656 14.5462C75.4164 14.7401 75.5334 14.9109 75.6165 15.0586H75.6996V11.5455H77.0799V21H75.7319V19.8967H75.6165C75.5334 20.0475 75.4134 20.2198 75.2564 20.4137C75.1025 20.6076 74.8902 20.7769 74.6193 20.9215C74.3485 21.0662 73.9976 21.1385 73.5668 21.1385ZM73.8714 19.9613C74.2685 19.9613 74.6039 19.8567 74.8778 19.6474C75.1548 19.435 75.3641 19.1411 75.5057 18.7656C75.6503 18.3902 75.7227 17.9531 75.7227 17.4545C75.7227 16.9621 75.6519 16.5312 75.5103 16.1619C75.3687 15.7926 75.161 15.5049 74.8871 15.2987C74.6132 15.0924 74.2746 14.9893 73.8714 14.9893C73.456 14.9893 73.1097 15.0971 72.8327 15.3125C72.5558 15.5279 72.3465 15.8219 72.2049 16.1942C72.0664 16.5666 71.9972 16.9867 71.9972 17.4545C71.9972 17.9285 72.0679 18.3548 72.2095 18.7333C72.3511 19.1119 72.5604 19.4119 72.8374 19.6335C73.1174 19.852 73.4621 19.9613 73.8714 19.9613Z" fill="#DD0909"/>
<path d="M92.175 13.0215L96 16.8465L99.825 13.0215L101 14.2049L96 19.2049L91 14.2049L92.175 13.0215Z" fill="#595959"/>
<defs>
<clipPath id="clip0_10487_22350">
<rect x="14" y="12.7949" width="8" height="8" rx="2" fill="white"/>
</clipPath>
</defs>
</svg>
