<svg width="95" height="32" viewBox="0 0 95 32" fill="none" xmlns="http://www.w3.org/2000/svg">
<rect width="95" height="32" rx="6" fill="white"/>
<circle cx="18" cy="15.0874" r="4" fill="#C25700"/>
<path d="M33.0387 21V11.5455H36.4087C37.1443 11.5455 37.7537 11.6793 38.2369 11.9471C38.7201 12.2148 39.0817 12.5811 39.3217 13.0458C39.5618 13.5075 39.6818 14.0276 39.6818 14.6062C39.6818 15.1879 39.5603 15.7111 39.3171 16.1758C39.0771 16.6374 38.7139 17.0037 38.2276 17.2745C37.7444 17.5423 37.1366 17.6761 36.4041 17.6761H34.0866V16.4666H36.2749C36.7396 16.4666 37.1166 16.3866 37.4059 16.2266C37.6952 16.0634 37.9076 15.8419 38.043 15.5618C38.1784 15.2817 38.2461 14.9632 38.2461 14.6062C38.2461 14.2492 38.1784 13.9322 38.043 13.6552C37.9076 13.3782 37.6937 13.1612 37.4013 13.0043C37.112 12.8473 36.7304 12.7688 36.2564 12.7688H34.4652V21H33.0387ZM44.2106 21.1431C43.512 21.1431 42.9103 20.9938 42.4055 20.6953C41.9039 20.3937 41.5161 19.9705 41.2422 19.4258C40.9714 18.878 40.8359 18.2363 40.8359 17.5007C40.8359 16.7744 40.9714 16.1342 41.2422 15.5803C41.5161 15.0263 41.8977 14.5939 42.3871 14.283C42.8795 13.9722 43.455 13.8168 44.1136 13.8168C44.5137 13.8168 44.9015 13.8829 45.277 14.0153C45.6525 14.1476 45.9895 14.3554 46.288 14.6385C46.5865 14.9216 46.822 15.2894 46.9943 15.7418C47.1667 16.1912 47.2528 16.7375 47.2528 17.3807V17.87H41.6161V16.8359H45.9002C45.9002 16.4728 45.8263 16.1512 45.6786 15.8711C45.5309 15.5879 45.3232 15.3648 45.0554 15.2017C44.7907 15.0386 44.4799 14.957 44.1229 14.957C43.7351 14.957 43.3965 15.0524 43.1072 15.2433C42.821 15.431 42.5994 15.6772 42.4425 15.9819C42.2886 16.2835 42.2116 16.6113 42.2116 16.9652V17.7731C42.2116 18.247 42.2947 18.6502 42.4609 18.9826C42.6302 19.315 42.8656 19.5689 43.1673 19.7443C43.4689 19.9167 43.8213 20.0028 44.2244 20.0028C44.486 20.0028 44.7246 19.9659 44.94 19.892C45.1554 19.8151 45.3416 19.7012 45.4986 19.5504C45.6555 19.3996 45.7756 19.2134 45.8587 18.9918L47.1651 19.2273C47.0605 19.612 46.8728 19.949 46.6019 20.2383C46.3342 20.5245 45.9972 20.7476 45.5909 20.9077C45.1877 21.0646 44.7276 21.1431 44.2106 21.1431ZM50.1647 16.7898V21H48.7844V13.9091H50.1093V15.0632H50.197C50.3601 14.6877 50.6156 14.3861 50.9633 14.1584C51.3142 13.9306 51.7558 13.8168 52.2883 13.8168C52.7715 13.8168 53.1946 13.9183 53.5578 14.1214C53.921 14.3215 54.2026 14.62 54.4026 15.017C54.6027 15.4141 54.7027 15.9049 54.7027 16.4897V21H53.3224V16.6559C53.3224 16.1419 53.1885 15.7403 52.9207 15.451C52.653 15.1586 52.2852 15.0124 51.8174 15.0124C51.4973 15.0124 51.2126 15.0817 50.9633 15.2202C50.7171 15.3587 50.5217 15.5618 50.377 15.8295C50.2355 16.0942 50.1647 16.4143 50.1647 16.7898ZM59.2084 21.1385C58.6359 21.1385 58.125 20.9923 57.6757 20.6999C57.2294 20.4045 56.8786 19.9844 56.6231 19.4396C56.3708 18.8918 56.2446 18.2347 56.2446 17.4684C56.2446 16.7021 56.3723 16.0465 56.6278 15.5018C56.8863 14.957 57.2402 14.54 57.6895 14.2507C58.1389 13.9614 58.6482 13.8168 59.2176 13.8168C59.6577 13.8168 60.0116 13.8906 60.2794 14.0384C60.5502 14.183 60.7595 14.3523 60.9072 14.5462C61.058 14.7401 61.175 14.9109 61.2581 15.0586H61.3412V11.5455H62.7215V21H61.3735V19.8967H61.2581C61.175 20.0475 61.055 20.2198 60.898 20.4137C60.7441 20.6076 60.5318 20.7769 60.2609 20.9215C59.9901 21.0662 59.6392 21.1385 59.2084 21.1385ZM59.5131 19.9613C59.9101 19.9613 60.2455 19.8567 60.5194 19.6474C60.7964 19.435 61.0057 19.1411 61.1473 18.7656C61.2919 18.3902 61.3643 17.9531 61.3643 17.4545C61.3643 16.9621 61.2935 16.5312 61.1519 16.1619C61.0103 15.7926 60.8026 15.5049 60.5287 15.2987C60.2548 15.0924 59.9162 14.9893 59.5131 14.9893C59.0976 14.9893 58.7513 15.0971 58.4743 15.3125C58.1974 15.5279 57.9881 15.8219 57.8465 16.1942C57.708 16.5666 57.6388 16.9867 57.6388 17.4545C57.6388 17.9285 57.7095 18.3548 57.8511 18.7333C57.9927 19.1119 58.202 19.4119 58.479 19.6335C58.759 19.852 59.1037 19.9613 59.5131 19.9613ZM64.6916 21V13.9091H66.0719V21H64.6916ZM65.3887 12.815C65.1486 12.815 64.9424 12.735 64.7701 12.5749C64.6008 12.4118 64.5162 12.2179 64.5162 11.9933C64.5162 11.7655 64.6008 11.5716 64.7701 11.4116C64.9424 11.2485 65.1486 11.1669 65.3887 11.1669C65.6287 11.1669 65.8334 11.2485 66.0027 11.4116C66.175 11.5716 66.2612 11.7655 66.2612 11.9933C66.2612 12.2179 66.175 12.4118 66.0027 12.5749C65.8334 12.735 65.6287 12.815 65.3887 12.815ZM69.3092 16.7898V21H67.9289V13.9091H69.2538V15.0632H69.3415C69.5046 14.6877 69.7601 14.3861 70.1079 14.1584C70.4587 13.9306 70.9004 13.8168 71.4328 13.8168C71.916 13.8168 72.3392 13.9183 72.7023 14.1214C73.0655 14.3215 73.3471 14.62 73.5471 15.017C73.7472 15.4141 73.8472 15.9049 73.8472 16.4897V21H72.4669V16.6559C72.4669 16.1419 72.333 15.7403 72.0653 15.451C71.7975 15.1586 71.4297 15.0124 70.9619 15.0124C70.6418 15.0124 70.3572 15.0817 70.1079 15.2202C69.8617 15.3587 69.6662 15.5618 69.5216 15.8295C69.38 16.0942 69.3092 16.4143 69.3092 16.7898ZM78.6714 23.8068C78.1082 23.8068 77.6235 23.733 77.2172 23.5852C76.8141 23.4375 76.4848 23.2421 76.2293 22.9989C75.9739 22.7558 75.7831 22.4896 75.6569 22.2003L76.8433 21.7109C76.9264 21.8464 77.0372 21.9895 77.1757 22.1403C77.3173 22.2942 77.5081 22.425 77.7481 22.5327C77.9913 22.6404 78.3037 22.6942 78.6853 22.6942C79.2085 22.6942 79.6409 22.5665 79.9825 22.3111C80.3241 22.0587 80.4949 21.6555 80.4949 21.1016V19.7074H80.4072C80.3241 19.8582 80.2041 20.0259 80.0471 20.2106C79.8933 20.3952 79.6809 20.5553 79.4101 20.6907C79.1392 20.8261 78.7868 20.8938 78.3529 20.8938C77.7928 20.8938 77.288 20.763 76.8387 20.5014C76.3924 20.2367 76.0385 19.8474 75.7769 19.3335C75.5184 18.8164 75.3891 18.1809 75.3891 17.4268C75.3891 16.6728 75.5168 16.0265 75.7723 15.4879C76.0308 14.9493 76.3847 14.5369 76.8341 14.2507C77.2834 13.9614 77.7928 13.8168 78.3621 13.8168C78.8022 13.8168 79.1577 13.8906 79.4285 14.0384C79.6994 14.183 79.9102 14.3523 80.061 14.5462C80.2149 14.7401 80.3334 14.9109 80.4165 15.0586H80.518V13.9091H81.8707V21.157C81.8707 21.7663 81.7291 22.2665 81.4459 22.6573C81.1628 23.0482 80.7796 23.3375 80.2964 23.5252C79.8163 23.7129 79.2747 23.8068 78.6714 23.8068ZM78.6576 19.7489C79.0546 19.7489 79.3901 19.6566 79.664 19.4719C79.941 19.2842 80.1502 19.0165 80.2918 18.6687C80.4365 18.3178 80.5088 17.8977 80.5088 17.4084C80.5088 16.9313 80.438 16.5112 80.2964 16.1481C80.1549 15.7849 79.9471 15.5018 79.6732 15.2987C79.3993 15.0924 79.0608 14.9893 78.6576 14.9893C78.2421 14.9893 77.8959 15.0971 77.6189 15.3125C77.3419 15.5249 77.1326 15.8142 76.991 16.1804C76.8525 16.5466 76.7833 16.956 76.7833 17.4084C76.7833 17.8731 76.8541 18.2809 76.9956 18.6317C77.1372 18.9826 77.3465 19.2565 77.6235 19.4535C77.9036 19.6504 78.2483 19.7489 78.6576 19.7489Z" fill="#C25700"/>
</svg>
