<svg width="100" height="100" viewBox="0 0 100 100" fill="none" xmlns="http://www.w3.org/2000/svg">
<circle cx="50" cy="50" r="42" fill="#B7D4F6" stroke="#E4EFFC" stroke-width="16"/>
<g filter="url(#filter0_d_5238_3022)">
<rect x="30" y="30" width="40" height="40" rx="20" fill="#0F6DDB"/>
<g clip-path="url(#clip0_5238_3022)">
<path d="M49.0705 56.4843C51.1632 56.4843 52.8604 54.8121 52.8604 52.7494C52.8604 50.6866 51.1638 49.0144 49.0705 49.0144C46.9779 49.0144 45.2812 50.6866 45.2812 52.7494C45.2812 54.8121 46.9779 56.4843 49.0705 56.4843Z" fill="white"/>
<path d="M55.4047 54.0449C57.1003 53.7986 58.286 53.2146 58.6532 52.4422C58.7293 52.2818 58.7364 52.2406 58.7364 51.7998C58.7364 51.4891 58.7227 51.2976 58.6948 51.2392L58.6532 51.1468L58.5633 51.2834C57.9255 52.2574 55.8729 52.8657 53.7269 52.8038C53.7198 53.2583 53.6471 53.6991 53.5156 54.1124C54.1707 54.1327 54.9685 54.1089 55.4052 54.0439L55.4047 54.0449Z" fill="white"/>
<path d="M58.655 48.6829C58.6413 48.6829 58.5925 48.7443 58.5473 48.8159C58.4504 48.9799 58.1939 49.2227 57.9268 49.4004C57.3652 49.7762 56.4465 50.0804 55.4096 50.2342C54.9104 50.3094 53.6033 50.3267 53 50.2718C53.2671 50.6852 53.4718 51.1468 53.5931 51.6353C54.1339 51.6592 54.692 51.6419 55.2435 51.5738C56.9528 51.3687 58.2564 50.7537 58.6448 49.9747C58.7281 49.8072 58.7383 49.7559 58.7489 49.4009C58.7591 49.0282 58.7144 48.6834 58.6555 48.6834L58.655 48.6829Z" fill="white"/>
<path d="M52.5681 49.1887C53.1089 49.2709 54.3815 49.3014 54.9604 49.2466C56.7982 49.0724 58.2368 48.4366 58.6253 47.6302C58.7294 47.4149 58.7294 47.4113 58.7294 46.9431C58.7294 46.6354 58.7156 46.4409 58.6877 46.3825L58.6496 46.2936L58.5212 46.4851C58.1088 47.0934 56.9957 47.616 55.6505 47.8313C54.7456 47.975 53.5669 47.9953 52.7174 47.8826C51.9617 47.78 51.1812 47.5718 50.6404 47.3255C50.1478 47.1 49.6593 46.7243 49.4856 46.4368C49.4405 46.3652 49.4024 46.3038 49.3953 46.3038C49.3882 46.3038 49.3643 46.3652 49.3435 46.4368C49.2846 46.6349 49.2947 47.3494 49.3607 47.5165C49.4577 47.7693 49.6517 48.0085 49.933 48.2274C50.6369 48.3574 51.2853 48.6443 51.8363 49.0475C52.0684 49.1024 52.3147 49.1501 52.5681 49.1877V49.1887Z" fill="white"/>
<path d="M50.6387 46.2875C51.176 46.5338 51.9839 46.7522 52.7223 46.8481C53.2529 46.9197 54.3 46.9436 54.8337 46.8959C56.8066 46.7252 58.2417 46.0996 58.6545 45.2353C58.7271 45.085 58.7378 45.0134 58.748 44.6681C58.7617 44.207 58.717 44.0018 58.5433 43.7454C58.0507 43.0141 56.6989 42.4571 55.0105 42.293C54.7088 42.2621 53.419 42.2555 53.1173 42.2829C51.9489 42.3819 50.7738 42.7409 50.0801 43.2056C49.8201 43.3798 49.5428 43.6667 49.4352 43.8754C49.2514 44.2309 49.2514 44.9448 49.4316 45.2937C49.6084 45.6421 50.0938 46.0422 50.6382 46.288L50.6387 46.2875Z" fill="white"/>
<path d="M44.4814 53.5082C43.611 53.2279 42.994 52.8419 42.6786 52.3702L42.5989 52.2509L42.5573 52.326C42.5263 52.3773 42.5156 52.5378 42.5156 52.8866C42.5156 53.3274 42.5227 53.3858 42.5882 53.5255C42.8899 54.1678 43.7532 54.6838 45.0151 54.9844C44.7515 54.5299 44.5712 54.0343 44.4814 53.5082V53.5082Z" fill="white"/>
<path d="M45.1339 50.2891C45.8657 49.1445 47.0996 48.3411 48.5281 48.1771V45.9011L48.3788 45.8838C48.1813 45.8599 46.5827 45.8361 46.4197 45.8528C45.5666 45.9417 45.0085 46.0509 44.4296 46.2423C43.5145 46.543 42.8554 46.9939 42.6162 47.4895C42.5192 47.6947 42.5156 47.7048 42.5156 48.1659C42.5156 48.6306 42.5156 48.6377 42.6197 48.8494C42.9214 49.4781 43.8364 49.9976 45.1334 50.2881L45.1339 50.2891Z" fill="white"/>
<path d="M58.69 53.5904L58.6519 53.5015L58.5234 53.693C58.076 54.3526 56.873 54.8823 55.3196 55.0976C54.8412 55.1626 53.7109 55.1727 53.0451 55.125C52.7714 55.5693 52.421 55.9624 52.0117 56.2904C52.2961 56.3519 52.5942 56.3996 52.9065 56.4341C53.4021 56.489 54.5117 56.4991 55.0073 56.4514C56.6958 56.2874 58.0481 55.7303 58.5402 54.9991C58.7133 54.7396 58.7585 54.538 58.7413 54.0764C58.7341 53.8575 58.7103 53.6391 58.6895 53.5909L58.69 53.5904Z" fill="white"/>
<path d="M44.4251 52.4558C44.4531 52.0217 44.5394 51.6017 44.6816 51.2051C44.3139 51.1025 43.9813 50.9796 43.7315 50.8567C43.2775 50.6313 42.8057 50.2484 42.6706 49.9919C42.6463 49.9407 42.6117 49.9031 42.5945 49.9031C42.5772 49.9031 42.5493 49.9782 42.5285 50.0671C42.5076 50.1626 42.4975 50.3916 42.5005 50.6242C42.5107 50.9761 42.5214 51.0309 42.6011 51.195C42.8646 51.7246 43.5131 52.1618 44.4246 52.4558H44.4251Z" fill="white"/>
</g>
<path d="M64.9976 49.6684C64.8538 57.4426 58.6706 63.6033 51.1933 63.75V61.5497C55.9385 61.4031 59.9648 58.6161 61.8341 54.2156C63.8472 49.6684 62.8407 44.5344 59.5334 40.8673C56.0823 37.2003 51.1933 36.1735 46.5919 37.9337C41.8467 39.8406 38.9708 44.0944 38.827 49.0816V49.6684L42.997 49.8151L37.5328 55.0957L32.5 49.5217L36.67 49.6684V49.0816C36.8138 41.1607 43.1408 35 50.7619 35H51.0495C58.8144 35.1467 65.1414 41.7475 64.9976 49.6684Z" fill="white"/>
</g>
<defs>
<filter id="filter0_d_5238_3022" x="22.25" y="22.25" width="55.5" height="55.5" filterUnits="userSpaceOnUse" color-interpolation-filters="sRGB">
<feFlood flood-opacity="0" result="BackgroundImageFix"/>
<feColorMatrix in="SourceAlpha" type="matrix" values="0 0 0 0 0 0 0 0 0 0 0 0 0 0 0 0 0 0 127 0" result="hardAlpha"/>
<feMorphology radius="2.5" operator="dilate" in="SourceAlpha" result="effect1_dropShadow_5238_3022"/>
<feOffset/>
<feGaussianBlur stdDeviation="2.625"/>
<feComposite in2="hardAlpha" operator="out"/>
<feColorMatrix type="matrix" values="0 0 0 0 0.510193 0 0 0 0 0.812726 0 0 0 0 0.974477 0 0 0 0.28 0"/>
<feBlend mode="normal" in2="BackgroundImageFix" result="effect1_dropShadow_5238_3022"/>
<feBlend mode="normal" in="SourceGraphic" in2="effect1_dropShadow_5238_3022" result="shape"/>
</filter>
<clipPath id="clip0_5238_3022">
<rect width="16.25" height="16.25" fill="white" transform="translate(42.5 41.25)"/>
</clipPath>
</defs>
</svg>
