<?xml version="1.0" encoding="utf-8"?>
<!-- Generator: Adobe Illustrator 24.1.3, SVG Export Plug-In . SVG Version: 6.00 Build 0)  -->
<svg version="1.1" id="Layer_1" xmlns="http://www.w3.org/2000/svg" xmlns:xlink="http://www.w3.org/1999/xlink" x="0px" y="0px"
	 width="600px" height="353px" viewBox="0 0 600 353" style="enable-background:new 0 0 600 353;" xml:space="preserve">
<style type="text/css">
	.st0{fill:#AD2070;}
	.st1{fill:#FFFFFF;}
	.st2{fill:#414DA0;}
	.st3{fill:#4993CF;}
	.st4{fill:#EB1274;}
</style>
<g>
	<path class="st0" d="M579.3,336.6H133.6c-6.7,0-12.1-5.4-12.1-12.1v-68.3c0-6.7,5.4-12.1,12.1-12.1h445.7c6.7,0,12.1,5.4,12.1,12.1
		v68.3C591.4,331.2,586,336.6,579.3,336.6z"/>
	<g>
		<path class="st1" d="M178.3,303.1c0-2.4-0.8-4.3-2.5-5.8c-1.7-1.5-4.6-2.9-8.9-4.1c-6.1-1.7-10.8-3.9-14.1-6.6
			c-3.3-2.7-5-6.3-5-10.7c0-4.6,1.8-8.3,5.5-11.3c3.6-3,8.3-4.4,14-4.4c6.1,0,11,1.6,14.7,4.9c3.7,3.3,5.4,7.3,5.3,12.2l-0.1,0.2
			h-9.1c0-3-1-5.4-3-7.1c-2-1.8-4.6-2.6-7.9-2.6c-3.2,0-5.7,0.8-7.4,2.3c-1.7,1.5-2.6,3.5-2.6,5.8c0,2.2,0.9,4,2.8,5.4s5,2.8,9.4,4
			c5.9,1.7,10.5,3.9,13.6,6.8c3.1,2.9,4.7,6.5,4.7,11c0,4.7-1.8,8.5-5.5,11.3c-3.7,2.8-8.5,4.2-14.5,4.2c-5.8,0-10.8-1.5-15.1-4.6
			c-4.3-3.1-6.4-7.4-6.2-13l0.1-0.2h9.1c0,3.4,1.2,6,3.5,7.7c2.4,1.7,5.2,2.6,8.6,2.6c3.4,0,6-0.7,7.8-2.1
			C177.3,307.5,178.3,305.5,178.3,303.1z"/>
		<path class="st1" d="M250.2,318.5c-6.2,0-11-1.9-14.4-5.8c-3.5-3.9-5.2-8.9-5.2-15.1V296c0-6.2,1.7-11.3,5.2-15.3
			c3.5-4,7.9-6,13.4-6c5.7,0,9.9,1.7,12.9,5.2c2.9,3.5,4.4,8.2,4.4,14v5.1h-26.1l-0.1,0.2c0.1,3.5,1,6.3,2.7,8.4
			c1.7,2.2,4.3,3.2,7.8,3.2c2.6,0,4.8-0.3,6.7-0.9c1.9-0.6,3.6-1.5,5.2-2.7l3.1,6.2c-1.6,1.4-3.7,2.6-6.4,3.5
			S253.7,318.5,250.2,318.5z M249.2,282.4c-2.5,0-4.4,0.9-5.9,2.7c-1.5,1.8-2.4,4.1-2.8,7l0.1,0.2h16.5v-0.7c0-2.7-0.6-4.9-1.9-6.6
			C253.9,283.2,252,282.4,249.2,282.4z"/>
		<path class="st1" d="M335.4,317.7c-0.3-1.1-0.6-2.1-0.8-3.1c-0.2-1-0.4-2-0.4-3c-1.3,2-3,3.6-5.1,5c-2.1,1.3-4.5,2-7.1,2
			c-4.4,0-7.8-1.1-10.1-3.4c-2.4-2.3-3.5-5.4-3.5-9.3c0-4.1,1.6-7.3,4.8-9.5c3.2-2.3,7.8-3.4,13.6-3.4h7.4v-3.7
			c0-2.2-0.6-3.9-1.9-5.2c-1.3-1.2-3.2-1.9-5.6-1.9c-2.2,0-3.9,0.5-5.1,1.5c-1.3,1-1.9,2.4-1.9,4l-9.1,0l0-0.2
			c-0.2-3.3,1.3-6.3,4.5-8.8c3.2-2.6,7.3-3.9,12.3-3.9c4.9,0,8.9,1.2,11.9,3.7c3,2.5,4.5,6.1,4.5,10.8V308c0,1.7,0.1,3.4,0.4,5
			c0.2,1.6,0.6,3.2,1.1,4.7H335.4z M323.9,310.9c2.4,0,4.5-0.6,6.4-1.8c1.9-1.2,3.2-2.6,3.8-4.1v-6.2h-7.5c-2.8,0-4.9,0.7-6.5,2
			c-1.6,1.4-2.3,3-2.3,4.8c0,1.6,0.5,2.9,1.6,3.8C320.4,310.4,321.9,310.9,323.9,310.9z"/>
		<path class="st1" d="M410.3,284.1l-4.1-0.2c-1.8,0-3.4,0.4-4.6,1.2c-1.2,0.8-2.2,1.9-2.9,3.3v29.3h-9.5v-42.2h8.6l0.6,6.1
			c1.1-2.2,2.4-3.8,4.1-5.1c1.7-1.2,3.6-1.8,5.8-1.8c0.6,0,1.1,0,1.6,0.1c0.5,0.1,0.9,0.2,1.4,0.3L410.3,284.1z"/>
		<path class="st1" d="M469.7,311c2.2,0,4-0.7,5.5-2c1.5-1.3,2.2-3.1,2.2-5.1h8.6l0.1,0.2c0.1,3.9-1.5,7.4-4.7,10.2
			c-3.2,2.9-7.1,4.3-11.7,4.3c-6.1,0-10.8-2-14.1-6c-3.3-4-4.9-9.1-4.9-15.2V296c0-6.1,1.6-11.1,4.9-15.2c3.3-4,8-6,14-6
			c4.9,0,8.9,1.5,12,4.4c3.1,2.9,4.5,6.7,4.4,11.2l-0.1,0.2h-8.6c0-2.3-0.7-4.3-2.1-5.9c-1.4-1.6-3.3-2.4-5.6-2.4
			c-3.4,0-5.8,1.3-7.3,3.9c-1.5,2.6-2.2,5.8-2.2,9.7v1.4c0,3.9,0.7,7.2,2.2,9.8C463.8,309.7,466.3,311,469.7,311z"/>
		<path class="st1" d="M539.3,281c1.4-2,3.1-3.5,5.1-4.6c2-1.1,4.2-1.6,6.7-1.6c4.5,0,8,1.4,10.5,4.2c2.5,2.8,3.8,7.2,3.8,13v25.7
			h-9.5v-25.8c0-3.3-0.6-5.7-1.9-7.2c-1.3-1.5-3.2-2.2-5.7-2.2c-2,0-3.8,0.4-5.3,1.1c-1.5,0.7-2.7,1.7-3.6,3v31.1h-9.5v-60.8h9.5
			V281z"/>
	</g>
</g>
<g>
	<path class="st2" d="M223.3,123c-12.1-4.7-43.1-6.1-56.2-1.3c-13.1,4.8-9.4,12.4-9.4,12.4s37.3-0.9,48.2,1.6
		c10.8,2.5,13.7,13.1,13,30.1c-22.8-10.5-55.3-5.6-62.9,12.4c-6.8,16.3-6.5,40.9,16.4,44c18.4,2.5,39.6-7.5,47.1-11.5
		c0.5,4.2,1.2,7.3,2.2,8.5c3.6,4.5,18,4,18,4s0-52.9,0-67.8S235.4,127.7,223.3,123z M174.6,185.2c7.2-19.2,32.2-12.9,43.9-8.7
		c-0.2,7.9-0.1,16.7,0.2,24.3C191.8,216.5,165.6,209.3,174.6,185.2z"/>
	<path class="st2" d="M309.9,222.7c0,0-16.8,0-27.3,0s-19.1-10.2-19.1-27.9s0-108.7,0-112.5s2.1-8.5,21.7-7c0,0,0,95.4,0,114
		s9.8,17.3,14.3,17.4C304,206.8,310,209.2,309.9,222.7z"/>
	<path class="st2" d="M345.6,204c10.2,8.1,52.2,3.2,52.2,3.2s2,9.4-8.6,13.6c-10.6,4.2-51,2.6-60-6.7c-9-9.3-13.4-19.9-13.1-52.3
		c0.4-32.4,13.4-42.8,40.8-44.1s43.7,8.3,45.5,25.1s-5.3,33.7-23.5,33.7c-18.3,0-42.1,0-42.1,0S335.4,195.9,345.6,204z M369.5,166.3
		c8.4,0,12-3.2,12.8-13.9s-4.1-20.3-19.3-20.3s-26.3,5.2-26.3,13.5s0,20.1,0,20.1S361.1,166.3,369.5,166.3z"/>
	<path class="st2" d="M581.6,206.7c-4.5-0.1-14.3,1.2-14.3-17.4c0-8.1,0-30.6,0-53.5h23.5c0,0,1.2-16.2-6.4-16.2
		c-2.9,0-9.5-0.2-17.1-0.3c0-23.7,0-43.9,0-43.9c-19.6-1.5-21.7,3.2-21.7,7c0,1.5,0,17.6,0,37.3c-4.5,0.3-8.3,0.8-10.6,1.5
		c-8.9,3-6.7,14.6-6.7,14.6h17.3c0,24.7,0,50.5,0,59c0,17.7,8.6,27.9,19.1,27.9s27.3,0,27.3,0C592.1,209.2,586.1,206.8,581.6,206.7z
		"/>
	<path class="st2" d="M422.2,220.8V119.5c0,0,11.6-1.3,17.4,2.2s6.2,10.1,6.2,10.1s15.4-13.3,39.1-13.5
		c23.7-0.1,28.1,21.6,28.1,29.4s0,73,0,73s-22.2,1-22.2-6.2s0-48,0-59.2c0-11.2-5.2-18.4-23.2-18.4S446,154.8,446,159.6
		c0,4.8,0,48.9,0,54S432.8,221.1,422.2,220.8z"/>
</g>
<g>
	<circle class="st2" cx="96.3" cy="41.4" r="27.6"/>
	<path class="st3" d="M106.1,109.6l1.8,8.7c1.7-0.2,3.4-0.3,5.1-0.6c24.1-3.1,47.6-12.1,68.2-27.1c-6.9-9.6-13.9-19.1-20.8-28.6
		c-15.9,11.5-34,18.3-52.5,20.6c-1.1,0.1-2.3,0.3-3.4,0.4l11.8,14.3L106.1,109.6z"/>
	<path class="st3" d="M71.4,97.3l13-14.2c-1.4-0.1-2.7-0.3-4.1-0.4C61.8,80.3,43.7,73.5,27.8,62C20.9,71.5,13.9,81.1,7,90.6
		c20.6,15,44.1,24,68.2,27.1c1.2,0.1,2.3,0.3,3.5,0.4l1.6-8.8L71.4,97.3z"/>
	<path class="st4" d="M78.7,118.1l-15.1,98.8L94,244.6l31.7-29l-17.8-97.4C98.2,119.2,88.4,119.1,78.7,118.1z"/>
	<path class="st2" d="M107.9,118.3l-1.8-8.7l10.2-12.3L104.5,83c-6.7,0.6-13.4,0.6-20.1,0.1l-13,14.2l8.9,12l-1.6,8.8
		C88.4,119.1,98.2,119.2,107.9,118.3z"/>
</g>
</svg>
