<?xml version="1.0" standalone="no"?>
<!DOCTYPE svg PUBLIC "-//W3C//DTD SVG 1.1//EN" "http://www.w3.org/Graphics/SVG/1.1/DTD/svg11.dtd" >
<svg xmlns="http://www.w3.org/2000/svg">
<metadata>
<json>
<![CDATA[
{
	"fontFamily": "corporate",
	"fontURL": "http://bdjobs.com/",
	"designer": "UI Team",
	"description": "Bdjobs.com Web Icon set Font generated by IcoMoon.",
	"copyright": "bdjobs.com",
	"majorVersion": 2,
	"minorVersion": 0.7,
	"version": "Version 2.0",
	"fontId": "corporate",
	"psName": "corporate",
	"subFamily": "Regular",
	"fullName": "corporate"
}
]]>
</json>
</metadata>
<defs>
<font id="corporate" horiz-adv-x="1024">
<font-face units-per-em="1024" ascent="960" descent="-64" />
<missing-glyph horiz-adv-x="1024" />
<glyph unicode="&#x20;" horiz-adv-x="512" d="" />
<glyph unicode="&#xe601;" glyph-name="graduation-cap" data-tags="graduation-cap" d="M512 866.91l-512-279.273 512-279.273 418.909 228.538v-321.63h93.091v372.364zM186.181 393.077v-186.183l325.819-177.804 325.819 177.804v186.183l-325.819-177.804-325.819 177.804z" />
<glyph unicode="&#xe602;" glyph-name="user-default" data-tags="user-default" d="M511.999 757.334c82.475 0 149.333-66.859 149.333-149.333v0c0-82.475-66.859-149.333-149.333-149.333v0c-82.475 0-149.333 66.859-149.333 149.333v0c0 82.475 66.859 149.333 149.333 149.333v0zM213.332 650.668c23.893 0 46.080-6.4 65.28-17.92-6.4-61.013 11.52-121.6 48.213-168.96-21.333-40.96-64-69.12-113.493-69.12-70.692 0-128 57.308-128 128v0c0 70.692 57.308 128 128 128v0zM810.666 650.668c70.692 0 128-57.308 128-128v0c0-70.692-57.308-128-128-128v0c-49.493 0-92.16 28.16-113.493 69.12 36.693 47.36 54.613 107.947 48.213 168.96 19.2 11.52 41.387 17.92 65.28 17.92zM234.667 213.334c0 88.32 124.16 160 277.333 160s277.333-71.68 277.333-160v-74.667h-554.667v74.667zM0 138.668v64c0 59.307 80.64 109.227 189.867 123.733-25.173-29.013-40.533-69.12-40.533-113.067v-74.667h-149.333zM1023.999 138.668h-149.333v74.667c0 43.947-15.36 84.053-40.533 113.067 109.227-14.507 189.867-64.427 189.867-123.733v-64z" />
<glyph unicode="&#xe603;" glyph-name="angle-top" data-tags="angle-top" d="M120.32 131.84l391.68 390.826 391.68-390.826 120.32 120.32-512 512-512-512 120.32-120.32z" />
<glyph unicode="&#xe604;" glyph-name="circle" data-tags="circle" d="M1024 448c0-282.77-229.23-512-512-512s-512 229.23-512 512c0 282.77 229.23 512 512 512s512-229.23 512-512z" />
<glyph unicode="&#xe605;" glyph-name="share" data-tags="share" d="M820.588 235.844c-39.088 0-74.061-15.429-100.806-39.602l-366.705 213.441c2.571 11.829 4.629 23.659 4.629 36.002s-2.058 24.172-4.629 36.002l362.591 211.383c27.773-25.715 64.289-41.659 104.92-41.659 85.214 0 154.294 69.080 154.294 154.294v0c0 85.214-69.080 154.294-154.294 154.294v0c-85.214 0-154.294-69.080-154.294-154.294v0c0-12.344 2.058-24.172 4.629-36.002l-362.591-211.383c-27.773 25.715-64.289 41.659-104.92 41.659-85.214 0-154.294-69.080-154.294-154.294v0c0-85.214 69.080-154.294 154.294-154.294v0c40.631 0 77.147 15.944 104.92 41.659l366.192-213.441c-2.571-10.801-4.114-22.116-4.114-33.945 0-82.804 67.375-149.665 150.18-149.665s150.18 66.861 150.18 149.665c0 82.942-67.237 150.18-150.18 150.18v0z" />
<glyph unicode="&#xe606;" glyph-name="cv-match" data-tags="cv-match" d="M85.333 832h853.333c44.8 0 85.333-40.533 85.333-85.333v-597.333c0-44.8-40.533-85.333-85.333-85.333h-853.333c-44.8 0-85.333 40.533-85.333 85.333v597.333c0 44.8 40.533 85.333 85.333 85.333zM597.333 704.001v-42.667h341.333v42.667h-341.333zM597.333 618.667v-42.667h341.333v42.667h-341.333zM597.333 533.334v-42.667h298.667v42.667h-298.667zM341.333 366.507c-85.333 0-256-46.507-256-131.84v-42.667h512v42.667c0 85.333-170.667 131.84-256 131.84zM341.333 704.001c-70.692 0-128-57.308-128-128v0c0-70.692 57.308-128 128-128v0c70.692 0 128 57.308 128 128v0c0 70.692-57.308 128-128 128v0z" />
<glyph unicode="&#xe607;" glyph-name="eye-slash" data-tags="eye-slash" d="M504.088 610.909l147.549-147.084c0 2.327 0 5.12 0 7.448 0 77.118-62.518 139.636-139.636 139.636v0c-2.793 0-5.12 0-7.913 0zM303.942 573.673l72.145-72.145c-2.327-9.775-3.723-19.549-3.723-30.254 0-77.118 62.518-139.636 139.636-139.636v0c10.24 0 20.479 1.397 30.254 3.723l72.145-72.145c-31.186-15.36-65.629-24.669-102.401-24.669-128.532 0-232.727 104.196-232.727 232.727v0c0 36.771 9.309 71.215 24.669 102.401zM46.546 831.069l127.069-127.069c-76.8-60.51-137.31-139.636-173.615-232.727 80.523-204.335 279.272-349.090 511.999-349.090 72.145 0 141.033 13.963 203.869 39.099l20.015-19.549 135.913-135.913 59.113 59.113-825.25 825.25zM512.001 703.999c128.532 0 232.727-104.196 232.727-232.727v0c0-29.789-6.052-58.647-16.756-84.712l136.378-136.378c69.818 58.181 125.673 134.517 159.651 221.091-80.523 204.335-279.272 349.090-511.999 349.090-65.163 0-127.535-11.637-186.182-32.582l101.004-100.072c26.531 10.24 54.924 16.291 85.178 16.291z" />
<glyph unicode="&#xe608;" glyph-name="eye" data-tags="eye" d="M512 587.637c-77.118 0-139.637-62.517-139.637-139.637v0c0-77.118 62.517-139.637 139.637-139.637v0c77.118 0 139.637 62.517 139.637 139.637v0c0 77.118-62.517 139.637-139.637 139.637v0zM512 215.273c-128.532 0-232.727 104.196-232.727 232.727v0c0 128.532 104.196 232.727 232.727 232.727v0c128.532 0 232.727-104.196 232.727-232.727v0c0-128.532-104.196-232.727-232.727-232.727v0zM512 797.091c-232.727 0-431.476-144.756-512-349.091 80.524-204.335 279.273-349.091 512-349.091s431.476 144.756 512 349.091c-80.524 204.335-279.273 349.091-512 349.091z" />
<glyph unicode="&#xe609;" glyph-name="heart" data-tags="heart" d="M512-21.76l-74.24 67.584c-263.679 239.103-437.76 397.311-437.76 590.336 0 158.208 123.904 281.6 281.6 281.6 89.088 0 174.591-41.472 230.4-106.496 55.808 65.024 141.312 106.496 230.4 106.496 157.695 0 281.6-123.392 281.6-281.6 0-193.023-174.080-351.231-437.76-590.336l-74.24-67.584z" />
<glyph unicode="&#xe60a;" glyph-name="star" data-tags="star" d="M1008.64 528.213l-223.573-218.453 52.907-307.2c0-5.12 0-8.533 0-11.947 0-15.36-6.827-30.72-25.6-30.72-8.533 0-17.067 3.413-23.893 6.827l-276.48 145.067-276.48-145.067c-8.533-5.12-15.36-6.827-23.893-6.827-17.067 0-25.6 15.36-25.6 30.72 0 5.12 0 8.533 1.707 11.947l52.907 307.2-225.28 218.453c-6.827 8.533-15.36 18.773-15.36 29.013 0 18.773 18.773 25.6 34.133 29.013l308.907 44.373 138.24 279.893c5.12 11.947 15.36 25.6 30.72 25.6s23.893-13.653 30.72-25.6l138.24-279.893 308.907-44.373c15.36-1.707 34.133-10.24 34.133-29.013 0-10.24-8.533-20.48-15.36-29.013z" />
<glyph unicode="&#xe60b;" glyph-name="check-o" data-tags="check-o" d="M336.101 27.468l-336.101 336.101 153.167 153.167 182.934-183.476 534.731 535.272 153.167-153.167-687.897-687.897z" />
<glyph unicode="&#xe60c;" glyph-name="rank" data-tags="rank" d="M728.576 140.8l-216.576 130.56-216.576-130.56 57.344 246.272-190.976 165.375 251.904 21.504 98.304 232.448 98.304-231.936 251.904-21.504-190.976-165.375 57.344-246.783zM512 960c-283.136 0-512-230.4-512-512 0-282.769 229.23-512 512-512v0c282.769 0 512 229.23 512 512v0c0 282.769-229.23 512-512 512v0z" />
<glyph unicode="&#xe60d;" glyph-name="archive" data-tags="archive" d="M0 960h1024v-227.556h-1024v227.556zM56.889 675.556h910.223v-739.556h-910.223v739.556zM369.777 504.889c-15.709 0-28.444-12.735-28.444-28.444v0-85.333h341.333v85.333c0 15.709-12.735 28.444-28.444 28.444v0h-284.444z" />
<glyph unicode="&#xe60e;" glyph-name="exclamation" data-tags="exclamation" d="M558.545 331.637h-93.091v232.727h93.091zM558.545 145.455h-93.091v93.091h93.091zM-0.001 5.819h1024l-511.999 884.364-511.999-884.364z" />
<glyph unicode="&#xe60f;" glyph-name="cv-bank" data-tags="cv-bank" d="M520.956 769.589l160.849-30.707-24.858 179.858c-4.387 26.321-27.783 43.868-54.104 40.943l-488.395-70.189c-13.16-1.462-23.396-8.774-32.17-19.009-7.311-10.236-10.236-23.396-8.774-35.094l96.509-674.103c1.462-13.16 8.774-23.396 19.009-32.17 10.236-7.311 23.396-10.236 35.094-8.774l58.49 8.774 105.283 548.348c10.236 62.877 71.651 103.821 133.066 92.122v0zM803.172 677.466l-289.528 55.566c-42.406 8.774-83.349-20.472-90.66-61.415l-108.207-567.358c-8.774-42.406 20.472-83.349 61.415-90.66l394.811-76.038c42.406-8.774 83.349 20.472 90.66 61.415l89.198 463.537-147.688 214.952zM816.332 9.212c-2.925-16.085-19.009-27.783-35.094-23.396l-394.811 76.038c-16.085 2.925-27.783 19.009-23.396 35.094l108.207 567.358c2.925 16.085 19.009 27.783 35.094 23.396l269.056-52.641 1.462-2.925-19.009-97.972c-5.849-29.245 13.16-57.028 42.406-62.877l99.434-19.009v-1.462l-83.349-441.603zM810.483 405.485l-298.301 57.028c-11.698 2.925-23.396-5.849-24.858-17.547-2.925-11.698 5.849-23.396 17.547-24.858l298.301-57.028c11.698-2.925 23.396 5.849 24.858 17.547s-5.849 23.396-17.547 24.858v0zM787.087 279.731l-298.301 57.028c-11.698 2.925-23.396-5.849-24.858-17.547s5.849-23.396 17.547-24.858l298.301-57.028c11.698-2.925 23.396 5.849 24.858 17.547s-7.311 23.396-17.547 24.858v0zM762.229 153.976l-298.301 57.028c-11.698 2.925-23.396-5.849-24.858-17.547-2.925-11.698 5.849-23.396 17.547-24.858l298.301-57.028c11.698-2.925 23.396 5.849 24.858 17.547s-5.849 21.934-17.547 24.858v0z" />
<glyph unicode="&#xe610;" glyph-name="list" data-tags="list" d="M-0.001 895.999h1024v-127.999h-1024v127.999zM-0.001 639.998h1024v-127.999h-1024v127.999zM-0.001 383.998h1024v-127.999h-1024v127.999zM-0.001 127.999h640v-127.999h-640v127.999z" />
<glyph unicode="&#xe611;" glyph-name="file" data-tags="file" d="M614.4 960h-409.6c-56.554 0-102.4-45.846-102.4-102.4v0-819.201c0-56.554 45.846-102.4 102.4-102.4v0h614.4c56.554 0 102.4 45.846 102.4 102.4v0 614.4l-307.2 307.2zM819.2 38.399h-614.4v819.201h358.401v-256h256v-563.2z" />
<glyph unicode="&#xe612;" glyph-name="sign-off" data-tags="sign-off" d="M630.329 243.768l147.343 147.343h-550.118v113.777h550.118l-147.343 147.343 80.783 80.213 284.444-284.444-284.444-284.444-80.783 80.213zM910.223 960c62.837 0 113.777-50.94 113.777-113.777v0-265.671l-113.777 113.777v151.894h-796.446v-796.446h796.446v151.894l113.777 113.777v-265.671c0-62.837-50.94-113.777-113.777-113.777v0h-796.446c-63.147 0-113.777 51.2-113.777 113.777v796.446c0 63.147 50.631 113.777 113.777 113.777h796.446z" />
<glyph unicode="&#xe613;" glyph-name="service-list" data-tags="service-list" d="M972.8 217.6c0-19.456-10.752-36.352-27.136-45.056l-404.48-227.328c-8.192-6.144-18.432-9.216-29.184-9.216s-20.992 3.072-29.184 9.216l-404.48 227.328c-16.384 8.704-27.136 25.6-27.136 45.056v460.8c0 19.456 10.752 36.352 27.136 45.056l404.48 227.328c8.192 6.144 18.432 9.216 29.184 9.216s20.992-3.072 29.184-9.216l404.48-227.328c16.384-8.704 27.136-25.6 27.136-45.056v-460.8zM512 849.919l-96.768-54.784 301.568-173.568 100.352 56.832-305.151 171.519zM206.849 678.4l305.151-171.519 100.352 56.32-301.056 174.080-104.448-58.88zM153.6 247.808l307.2-173.055v343.551l-307.2 172.544v-343.040zM870.4 247.808v343.040l-307.2-172.544v-343.551l307.2 173.055z" />
<glyph unicode="&#xe614;" glyph-name="package" data-tags="package" d="M120.603 846.223h782.223l-53.476 56.889h-682.667l-46.080-56.889zM997.83 833.137c16.497-19.343 26.169-43.804 26.169-72.249v-711.111c0-62.837-50.94-113.777-113.777-113.777v0h-796.444c-62.837 0-113.777 50.94-113.777 113.777v0 711.111c0 28.444 9.671 52.907 26.169 72.249l78.507 95.573c15.929 19.343 39.253 31.289 65.991 31.289h682.667c26.737 0 50.063-11.947 65.423-31.289l79.076-95.573zM170.666 106.667h341.333v170.667h-341.333v-170.667z" />
<glyph unicode="&#xe615;" glyph-name="briefcase" data-tags="briefcase" d="M921.6 755.2h-204.8v102.4c0 56.554-45.846 102.4-102.4 102.4v0h-204.8c-56.832 0-102.4-45.568-102.4-102.4v-102.4h-204.8c-56.832 0-102.4-45.568-102.4-102.4v-563.2c0-56.554 45.846-102.4 102.4-102.4v0h819.201c56.554 0 102.4 45.846 102.4 102.4v0 563.2c0 56.554-45.846 102.4-102.4 102.4v0zM409.6 857.6h204.8v-102.4h-204.8v102.4zM512 601.6c70.692 0 128-57.307 128-128v0c0-70.692-57.307-128-128-128v0c-70.692 0-128 57.307-128 128v0c0 70.692 57.307 128 128 128v0zM768 89.599h-512.001v64c0 70.656 114.688 128 256 128s256-57.344 256-128v-64z" />
<glyph unicode="&#xe616;" glyph-name="calendar" data-tags="calendar" d="M870.401 38.399h-716.801v563.2h716.801zM716.801 960v-102.4h-409.6v102.4h-102.4v-102.4h-51.2c-56.832 0-102.4-45.568-102.4-102.4v-716.801c0-56.554 45.846-102.4 102.4-102.4v0h716.801c56.554 0 102.4 45.846 102.4 102.4v0 716.801c0 56.832-46.080 102.4-102.4 102.4h-51.2v102.4zM768 396.8h-256v-256h256v256z" />
<glyph unicode="&#xe617;" glyph-name="help" data-tags="help" d="M669.184 486.4l-46.080-47.104c-36.864-36.864-59.904-68.096-59.904-144.896h-102.4v25.6c0 56.832 23.040 108.032 59.904 144.896l63.488 64.512c18.944 18.432 30.208 44.032 30.208 72.192 0 56.832-46.080 102.4-102.4 102.4-56.554 0-102.4-45.846-102.4-102.4v0h-102.4c0 113.108 91.692 204.8 204.8 204.8v0c113.108 0 204.8-91.692 204.8-204.8v0c0-45.056-18.432-85.504-47.616-115.2zM563.2 89.6h-102.4v102.4h102.4zM512 960c-282.769 0-512-229.23-512-512v0c0-282.769 229.23-512 512-512v0c282.769 0 512 229.23 512 512v0c0 283.136-230.4 512-512 512z" />
<glyph unicode="&#xe618;" glyph-name="feedback" data-tags="feedback" d="M358.401-64.001c-30.72 0-51.2 20.48-51.2 51.2v153.6h-204.8c-56.32 0-102.4 46.080-102.4 102.4v614.4c0 56.32 46.080 102.4 102.4 102.4h819.201c56.32 0 102.4-46.080 102.4-102.4v-614.4c0-56.32-46.080-102.4-102.4-102.4h-312.321l-189.44-189.44c-10.24-10.24-20.48-15.36-35.84-15.36h-25.6zM409.602 243.2v-158.72l158.72 158.72h353.28v614.4h-819.201v-614.4h307.2zM732.162 755.2l-71.68-153.6h107.52v-204.8h-204.8v215.040l66.56 143.36h102.4zM424.962 755.2l-71.68-153.6h107.52v-204.8h-204.8v215.040l66.56 143.36h102.4z" />
<glyph unicode="&#xe619;" glyph-name="lock" data-tags="lock" d="M512 179.81c53.861 0 97.524 43.663 97.524 97.524v0c0 54.126-43.886 97.524-97.524 97.524-53.861 0-97.524-43.663-97.524-97.524v0c0-53.861 43.663-97.524 97.524-97.524v0zM804.572 618.668c53.861 0 97.524-43.663 97.524-97.524v0-487.62c0-53.861-43.663-97.524-97.524-97.524v0h-585.143c-53.861 0-97.524 43.663-97.524 97.524v0 487.62c0 54.126 43.886 97.524 97.524 97.524h48.762v97.524c0 134.653 109.158 243.809 243.809 243.809v0c134.653 0 243.809-109.158 243.809-243.809v0-97.524h48.762zM512 862.477c-80.791 0-146.286-65.495-146.286-146.286v0-97.524h292.572v97.524c0 80.791-65.495 146.286-146.286 146.286v0z" />
<glyph unicode="&#xe61a;" glyph-name="not-found" data-tags="not-found" d="M614.4 959.999h-409.6c-56.832 0-102.4-46.080-102.4-102.4v-819.201c0-56.832 45.568-102.4 102.4-102.4h614.4c56.832 0 102.4 45.568 102.4 102.4v614.4l-307.2 307.2zM819.2 38.399h-614.4v819.201h358.401v-256h256v-563.2zM509.44 270.846l109.056-108.544-72.704-72.704-108.544 109.056-108.544-109.056-72.704 72.704 109.056 108.544-109.056 108.544 72.704 72.704 108.544-109.056 108.544 109.056 72.704-72.704-109.056-108.544z" />
<glyph unicode="&#xe61b;" glyph-name="times-o" data-tags="times-o" d="M1024 773.76l-186.24 186.24-325.76-325.76-325.76 325.76-186.24-186.24 325.76-325.76-325.76-325.76 186.24-186.24 325.76 325.76 325.76-325.76 186.24 186.24-325.76 325.76 325.76 325.76z" />
<glyph unicode="&#xe61c;" glyph-name="angle-left" data-tags="angle-left" d="M828.16 57.174l-390.826 390.826 390.826 391.68-120.32 120.32-512-512 512-512 120.32 121.174z" />
<glyph unicode="&#xe61d;" glyph-name="check" data-tags="check" d="M336.101 27.468l-336.101 336.101 153.168 153.168 182.934-183.475 534.731 535.272 153.168-153.168-687.897-687.897z" />
<glyph unicode="&#xe61e;" glyph-name="copy" data-tags="copy" d="M884.364 866.909h-148.945c-18.619 55.855-69.818 93.091-130.328 93.091s-111.709-37.236-130.328-93.091h-148.945c-51.2 0-93.091-41.891-93.091-93.091v-558.546c0-51.2 41.891-93.091 93.091-93.091h558.546c51.2 0 93.091 41.891 93.091 93.091v558.546c0 51.2-41.891 93.091-93.091 93.091zM605.091 866.909c27.927 0 46.546-23.272 46.546-46.546s-23.272-46.546-46.546-46.546c-23.272 0-46.546 23.272-46.546 46.546s18.619 46.546 46.546 46.546zM698.182 354.909h-325.819v93.091h325.819zM837.819 541.091h-465.455v93.091h465.455zM139.636 29.091h651.636v-93.091h-651.636c-51.2 0-93.091 41.891-93.091 93.091v651.636h93.091z" />
<glyph unicode="&#xe61f;" glyph-name="history" data-tags="history" d="M609.523 643.048h-73.143v-243.809l208.701-123.855 35.109 59.002-170.666 101.425v207.238zM585.143 886.857c-242.374 0-438.857-196.483-438.857-438.857v0h-146.286l193.097-196.511 196.998 196.511h-146.286c0 188.513 152.821 341.334 341.334 341.334v0c188.513 0 341.334-152.821 341.334-341.334v0c0-188.513-152.821-341.334-341.334-341.334v0c-94.111 0-179.443 38.522-240.883 100.449l-69.242-69.242c79.482-79.969 188.221-128.731 310.126-128.731 242.374 0 438.857 196.483 438.857 438.857v0c0 242.374-196.483 438.857-438.857 438.857v0z" />
<glyph unicode="&#xe620;" glyph-name="edit" data-tags="edit" d="M113.777 960c-63.147 0-113.777-50.631-113.777-113.777v-796.445c0-62.837 50.94-113.777 113.777-113.777v0h796.445c62.837 0 113.777 50.94 113.777 113.777v0 398.223h-113.777v-398.223h-796.445v796.445h398.223v113.777h-398.223zM840.818 903.11c-9.671 0-19.911-3.983-27.307-11.377l-69.404-68.836 142.223-142.223 69.404 68.836c14.791 14.791 14.791 39.823 0 54.044l-88.177 88.177c-7.396 7.396-17.067 11.377-26.737 11.377zM703.716 782.506l-419.271-419.84v-142.223h142.223l419.271 419.84-142.223 142.223z" />
<glyph unicode="&#xe621;" glyph-name="repost" data-tags="repost" d="M843.824 493.044c-92.59 80.079-212.707 130.127-345.337 130.127-232.727 0-429.419-151.648-498.487-361.353l118.115-39.038c52.551 159.656 202.698 275.269 380.372 275.269 97.595 0 186.683-36.035 256.25-94.091l-181.177-181.177h450.44v450.44l-180.176-180.176z" />
<glyph unicode="&#xe622;" glyph-name="restore" data-tags="restore" d="M0 448.001c0-242.346 196.511-438.857 438.857-438.857 116.54 0 228.205 45.837 312.076 126.78l-73.143 73.143c-61.928-65.828-148.236-102.4-238.933-102.4-304.274 0-456.411 367.665-241.371 582.704s582.704 62.415 582.704-241.371h-146.286l195.048-195.048h4.877l190.171 195.048h-146.286c0 242.346-196.511 438.857-438.857 438.857s-438.857-196.511-438.857-438.857z" />
<glyph unicode="&#xe623;" glyph-name="repost-2" data-tags="repost-2" d="M843.824 493.044c-92.59 80.079-212.707 130.127-345.337 130.127-232.727 0-429.419-151.648-498.487-361.353l118.115-39.038c52.551 159.656 202.698 275.269 380.372 275.269 97.595 0 186.683-36.035 256.25-94.091l-181.177-181.177h450.44v450.44l-180.176-180.176z" />
<glyph unicode="&#xe624;" glyph-name="envelope" data-tags="envelope" d="M1024 755.2c0 56.32-46.080 102.4-102.4 102.4h-819.201c-56.32 0-102.4-46.080-102.4-102.4v-614.4c0-56.32 46.080-102.4 102.4-102.4h819.201c56.32 0 102.4 46.080 102.4 102.4v614.4zM921.599 755.2l-409.6-256-409.6 256h819.201zM921.599 140.8h-819.201v512.001l409.6-256 409.6 256v-512.001z" />
<glyph unicode="&#xe625;" glyph-name="angle-bottom" data-tags="angle-bottom" d="M120.32 764.586l391.68-391.68 391.68 391.68 120.32-121.174-512-512-512 512 120.32 121.174z" />
<glyph unicode="&#xe626;" glyph-name="angle-right" data-tags="angle-right" d="M195.84 57.174l390.826 390.826-390.826 391.68 120.32 120.32 512-512-512-512-120.32 121.174z" />
<glyph unicode="&#xe627;" glyph-name="calendar-o" data-tags="calendar-o" d="M870.401 38.399h-716.801v563.2h716.801zM716.801 960v-102.4h-409.6v102.4h-102.4v-102.4h-51.2c-56.832 0-102.4-45.568-102.4-102.4v-716.801c0-56.554 45.846-102.4 102.4-102.4v0h716.801c56.554 0 102.4 45.846 102.4 102.4v0 716.801c0 56.832-46.080 102.4-102.4 102.4h-51.2v102.4zM768 396.8h-256v-256h256v256z" />
<glyph unicode="&#xe628;" glyph-name="folder" data-tags="folder" d="M820.745 61.768h-724.187c-53.59 0-96.558 43.451-96.558 96.558v579.349c0 53.59 42.968 96.558 96.558 96.558h289.675l96.558-96.558h337.954c53.327 0 96.558-43.231 96.558-96.558v0 0h-820.745v-482.791l103.318 386.233h824.124l-110.076-410.373c-11.104-42.003-48.762-72.419-93.179-72.419z" />
<glyph unicode="&#xe629;" glyph-name="filter" data-tags="filter" d="M625.762 448.071v-448.222c2.276-17.064-3.413-35.266-16.495-47.211-22.184-22.184-58.019-22.184-80.202 0l-114.331 114.331c-13.082 13.082-18.771 30.716-16.495 47.211v333.891h-1.706l-327.635 419.782c-19.34 24.459-14.789 60.294 9.669 79.633 10.808 7.963 22.753 12.514 35.266 12.514v0h796.334c12.514 0 24.459-4.55 35.266-12.514 24.459-19.34 29.009-55.175 9.669-79.633l-327.635-419.782h-1.706z" />
<glyph unicode="&#xe62a;" glyph-name="cv" data-tags="cv" d="M563.2 601.599h281.6l-281.6 281.6v-281.6zM204.8 960h409.6l307.2-307.2v-614.4c0-56.554-45.846-102.4-102.4-102.4v0h-614.4c-56.832 0-102.4 46.080-102.4 102.4v819.201c0 56.832 45.568 102.4 102.4 102.4zM614.4 38.399v51.2c0 68.096-136.704 102.4-204.8 102.4s-204.8-34.304-204.8-102.4v-51.2h409.6zM409.6 447.999c-56.554 0-102.4-45.846-102.4-102.4v0c0-56.554 45.846-102.4 102.4-102.4v0c56.554 0 102.4 45.846 102.4 102.4v0c0 56.554-45.846 102.4-102.4 102.4v0z" />
<glyph unicode="&#xe62b;" glyph-name="invite" data-tags="invite" d="M512 396.8l-512 319.488v38.912c0 56.832 45.568 102.4 102.4 102.4h819.2c56.554 0 102.4-45.846 102.4-102.4v0-38.4l-512-320zM1024 140.8c0-56.554-45.846-102.4-102.4-102.4v0h-819.2c-56.832 0-102.4 46.080-102.4 102.4v455.168l102.4-64v-391.167h819.2v391.167l102.4 64v-455.168z" />
<glyph unicode="&#xe62c;" glyph-name="check-double" data-tags="check-double" d="M0 398.672l246.2-246.2 62.101 62.541-245.76 245.76zM961.458 743.529l-465.974-466.415-183.218 183.659-62.981-62.101 246.2-246.2 528.515 528.515zM774.716 680.987l-62.101 62.541-279.672-279.672 62.541-62.101 279.232 279.232z" />
<glyph unicode="&#xe62d;" glyph-name="home" data-tags="home" d="M409.6 12.801v307.2h204.8v-307.2h255.999v409.599h153.6l-512 460.8-512-460.8h153.6v-409.599h255.999z" />
<glyph unicode="&#xe62e;" glyph-name="home1" data-tags="home" d="M409.601 12.801v307.2h204.8v-307.2h255.999v409.599h153.6l-512 460.8-512-460.8h153.6v-409.599h255.999z" />
<glyph unicode="&#xe62f;" glyph-name="keyword" data-tags="keyword" d="M179.201 704c-42.415 0-76.8 34.385-76.8 76.8v0c0 42.415 34.385 76.8 76.8 76.8v0c42.415 0 76.8-34.385 76.8-76.8v0c0-42.415-34.385-76.8-76.8-76.8v0zM993.793 469.504l-460.8 460.8c-18.432 18.432-44.032 29.696-72.192 29.696h-358.401c-56.832 0-102.4-45.568-102.4-102.4v-358.401c0-28.16 11.264-53.76 30.208-72.192l460.288-460.8c18.944-18.432 44.544-30.208 72.704-30.208s53.76 11.776 72.192 30.208l358.401 358.401c18.944 18.432 30.208 44.032 30.208 72.192 0 28.672-11.776 54.272-30.208 72.704z" />
<glyph unicode="&#xe630;" glyph-name="live-jobs" data-tags="live-jobs" d="M930.91 610.91c-69.818 0-107.054-65.163-88.437-116.364l-167.564-167.564c-13.964 4.655-32.582 4.655-46.546 0l-121.018 121.018c18.619 51.2-18.619 116.364-88.437 116.364-65.163 0-107.054-65.163-88.437-116.364l-214.109-209.454c-51.2 13.964-116.364-23.272-116.364-93.091 0-51.2 41.891-93.091 93.091-93.091 65.163 0 107.054 65.163 88.437 116.364l209.454 214.109c13.964-4.655 32.582-4.655 46.546 0l121.018-121.018c-13.964-46.546 23.272-116.364 93.091-116.364s107.054 65.163 88.437 116.364l167.564 167.564c51.2-13.964 116.364 23.272 116.364 88.437 0 51.2-41.891 93.091-93.091 93.091zM651.637 564.364l41.891 97.745 97.745 41.891-97.745 41.891-41.891 97.745-41.891-97.745-97.745-41.891 97.745-41.891 41.891-97.745zM116.365 471.273l23.272 93.091 93.091 23.272-93.091 23.272-23.272 93.091-23.272-93.091-93.091-23.272 93.091-23.272 23.272-93.091z" />
<glyph unicode="&#xe631;" glyph-name="magnifier" data-tags="magnifier" d="M358.4 396.8c0-84.83 68.77-153.6 153.6-153.6v0c84.83 0 153.6 68.77 153.6 153.6v0c0 84.83-68.77 153.6-153.6 153.6v0c-84.83 0-153.6-68.77-153.6-153.6v0zM921.6 59.392v593.409l-307.2 307.2h-409.6c-56.554 0-102.4-45.846-102.4-102.4v0-819.201c0-56.554 45.846-102.4 102.4-102.4v0h614.4c23.040 0 43.52 7.68 60.928 20.48l-226.816 226.816c-40.96-26.624-90.112-42.496-141.312-42.496-141.385 0-256 114.616-256 256v0c0 141.385 114.616 256 256 256v0c141.385 0 256-114.616 256-256v0c0-51.2-15.872-100.352-42.496-140.8l196.096-196.608z" />
<glyph unicode="&#xe632;" glyph-name="mouse-click" data-tags="mouse-click" d="M495.436 589.227c-17.909 0-32.427-14.518-32.427-32.427v0-488.533c0-17.92 14.507-32.427 32.427-32.427 8.107 0 14.933 2.56 20.48 6.827l81.493 66.133 70.827-154.453c5.547-11.52 17.067-18.347 29.44-18.347 4.693 0 9.387 0 14.080 3.413l117.76 54.613c16.213 7.68 23.893 27.307 15.36 43.093l-71.253 154.88 102.827 19.2c6.827 2.133 13.227 5.12 18.347 11.093 11.52 13.653 9.813 33.707-5.12 46.080l-372.907 313.6-0.427-0.427c-5.547 4.693-12.8 7.68-20.907 7.68zM676.343 533.333v85.333h213.333v-85.333h-213.333zM626.423 756.907l120.747 120.747 60.16-60.16-120.747-120.747-60.16 60.16zM463.010 960h85.333v-213.333h-85.333v213.333zM204.023 334.507l120.747 120.747 60.16-60.16-120.747-120.747-60.16 60.16zM204.023 817.493l60.16 60.16 120.747-120.747-60.16-60.16-120.747 120.747zM335.010 533.333h-213.333v85.333h213.333v-85.333z" />
<glyph unicode="&#xe633;" glyph-name="ms-excell" data-tags="ms-excell" d="M614.4 960.001h-409.6c-56.554 0-102.4-45.846-102.4-102.4v0-819.201c0-56.554 45.846-102.4 102.4-102.4v0h614.4c56.554 0 102.4 45.846 102.4 102.4v0 614.4l-307.2 307.2zM706.56 38.4h-92.16l-102.4 174.080-102.4-174.080h-92.16l148.48 230.4-148.48 230.4h92.16l102.4-174.080 102.4 174.080h92.16l-148.48-230.4 148.48-230.4zM563.2 601.6v281.601l281.601-281.601h-281.601z" />
<glyph unicode="&#xe634;" glyph-name="check-sign" data-tags="check-sign" d="M336.101 27.468l-336.101 336.101 153.167 153.167 182.934-183.476 534.731 535.272 153.167-153.167-687.897-687.897z" />
<glyph unicode="&#xe635;" glyph-name="ms-word" data-tags="ms-word" d="M614.4 960.001h-409.6c-56.554 0-102.4-45.846-102.4-102.4v0-819.201c0-56.554 45.846-102.4 102.4-102.4v0h614.4c56.554 0 102.4 45.846 102.4 102.4v0 614.4l-307.2 307.2zM675.84 38.4h-71.68l-92.16 348.16-92.16-348.16h-71.68l-112.64 460.8h76.8l71.68-348.16 92.16 348.16h66.56l92.16-348.16 71.68 348.16h76.8l-107.52-460.8zM563.2 601.6v281.601l281.601-281.601h-281.601z" />
<glyph unicode="&#xe636;" glyph-name="search" data-tags="search" d="M380.343 960c210.058 0 380.343-170.285 380.343-380.343v0c0-94.208-34.523-180.809-91.282-247.516l15.799-15.799h46.227l292.571-292.571-87.771-87.771-292.571 292.571v46.227l-15.799 15.799c-66.706-56.759-153.308-91.282-247.516-91.282-210.058 0-380.343 170.285-380.343 380.343v0c0 210.058 170.285 380.343 380.343 380.343v0zM380.343 842.972c-146.286 0-263.314-117.028-263.314-263.314s117.028-263.314 263.314-263.314c146.286 0 263.314 117.028 263.314 263.314s-117.028 263.314-263.314 263.314z" />
<glyph unicode="&#xe637;" glyph-name="taka" data-tags="taka" d="M803.497 68.436c-81.92-88.747-178.859-132.437-292.181-132.437-40.96 0-94.208 17.749-141.995 53.248-45.056 36.864-62.805 73.728-90.112 107.861v327.68h-86.016l-98.304 122.88h184.32v195.243c0 40.96-16.384 65.536-66.901 72.363-23.211 0-39.595-4.096-46.421-10.923-12.288 21.845-38.229 47.787-38.229 77.824v10.923c0 19.115 19.115 34.133 47.787 47.787 28.672 12.288 57.344 19.115 80.555 19.115 42.325 0 76.459-17.749 101.035-53.248 25.941-34.133 43.691-81.92 43.691-141.995v-217.088h61.44l101.035-122.88h-161.109v-281.259c0-23.211 9.557-43.691 27.307-62.805s45.056-27.307 84.651-27.307c50.517 0 103.765 27.307 159.744 83.285 57.344 57.344 87.381 116.053 90.112 176.128l-25.941-2.731c-91.477 0-137.899 49.152-137.899 146.091 0 32.768 10.923 62.805 32.768 87.381 21.845 25.941 57.344 38.229 107.861 38.229 53.248 0 96.939-23.211 132.437-68.267 36.864-46.421 55.979-101.035 55.979-167.936-1.365-95.573-42.325-188.416-125.611-277.163z" />
<glyph unicode="&#xe638;" glyph-name="quote-end" data-tags="quote-end" d="M658.285 82.285h219.429l146.285 292.572v438.857h-438.857v-438.857h219.429zM73.143 82.285h219.429l146.285 292.572v438.857h-438.857v-438.857h219.429l-146.285-292.572z" />
<glyph unicode="&#xe639;" glyph-name="times" data-tags="times" d="M1024 773.76l-186.24 186.24-325.76-325.76-325.76 325.76-186.24-186.24 325.76-325.76-325.76-325.76 186.24-186.24 325.76 325.76 325.76-325.76 186.24 186.24-325.76 325.76 325.76 325.76z" />
<glyph unicode="&#xe63a;" glyph-name="quote-start" data-tags="quote-start" d="M365.713 813.715l-146.285-292.572h219.429v-438.857h-438.857v438.857l146.285 292.572h219.429zM950.855 813.715l-146.285-292.572h219.429v-438.857h-438.857v438.857l146.285 292.572h219.429z" />
<glyph unicode="&#xe63b;" glyph-name="shortlist" data-tags="shortlist" d="M651.635 354.909c-124.276 0-372.363-61.906-372.363-186.182v-93.091h744.727v93.091c0 124.276-248.087 186.182-372.363 186.182zM651.635 448c102.826 0 186.182 83.356 186.182 186.182v0c0 102.826-83.356 186.182-186.182 186.182v0c-102.826 0-186.182-83.356-186.182-186.182v0c0-102.826 83.356-186.182 186.182-186.182v0zM186.181 388.422l114.036-69.352-30.254 130.792 102.4 87.505-134.517 11.637-51.665 122.88-52.596-122.88-133.585-11.637 101.469-87.505-31.651-130.792 116.364 69.352z" />
<glyph unicode="&#xe63c;" glyph-name="ap-repeat" data-tags="ap-repeat" d="M884.364 866.909h-148.945c-18.619 55.855-69.818 93.091-130.328 93.091s-111.709-37.236-130.328-93.091h-148.945c-51.2 0-93.091-41.891-93.091-93.091v-558.546c0-51.2 41.891-93.091 93.091-93.091h558.546c51.2 0 93.091 41.891 93.091 93.091v558.546c0 51.2-41.891 93.091-93.091 93.091zM605.091 866.909c27.927 0 46.546-23.272 46.546-46.546s-23.272-46.546-46.546-46.546c-23.272 0-46.546 23.272-46.546 46.546s18.619 46.546 46.546 46.546zM698.182 354.909h-325.819v93.091h325.819zM837.819 541.091h-465.455v93.091h465.455zM139.637 29.091h651.636v-93.091h-651.636c-51.2 0-93.091 41.891-93.091 93.091v651.636h93.091z" />
<glyph unicode="&#xe63d;" glyph-name="refresh" data-tags="refresh" d="M873.602 809.599c-92.801 92.801-220.16 150.401-361.601 150.401-282.77 0-512-229.23-512-512v0c0-282.77 229.23-512 512-512v0c238.721 0 437.76 163.2 494.72 384h-133.121c-52.481-149.12-194.561-256.001-361.601-256.001-212.078 0-384 171.923-384 384v0c0 212.078 171.923 384 384 384v0c106.241 0 200.96-44.16 270.080-113.921l-206.081-206.081h448.001v448.001l-150.401-150.401z" />
<glyph unicode="&#xe63e;" glyph-name="star-2" data-tags="star-2" d="M537.065 95.329l-290.014-152.167c-8.951-5.371-16.112-7.161-25.064-7.161-17.903 0-26.854 16.112-26.854 32.225 0 5.371 0 8.951 1.79 12.532l55.495 322.236-236.306 229.145c-7.161 8.951-16.112 19.693-16.112 30.434 0 19.693 19.693 26.854 35.805 30.434l324.027 46.544 145.006 293.595c5.371 12.532 16.112 26.854 32.225 26.854v-864.669z" />
<glyph unicode="&#xe63f;" glyph-name="star-4" data-tags="star-4" d="M1008.638 528.214l-223.573-218.453 52.907-307.2c0-5.12 0-8.533 0-11.947 0-15.36-6.827-30.72-25.6-30.72-8.533 0-17.067 3.413-23.893 6.827l-276.48 145.067-276.48-145.067c-8.533-5.12-15.36-6.827-23.893-6.827-17.067 0-25.6 15.36-25.6 30.72 0 5.12 0 8.533 1.707 11.947l52.907 307.2-225.28 218.453c-6.827 8.533-15.36 18.773-15.36 29.013 0 18.773 18.773 25.6 34.133 29.013l308.907 44.373 138.24 279.893c5.12 11.947 15.36 25.6 30.72 25.6s23.893-13.653 30.72-25.6l138.24-279.893 308.907-44.373c15.36-1.707 34.133-10.24 34.133-29.013 0-10.24-8.533-20.48-15.36-29.013z" />
<glyph unicode="&#xe640;" glyph-name="star-3" data-tags="star-3" d="M805.595 627.021l-91.301 12.531-145.007 293.594c-5.371 12.531-16.112 26.853-32.224 26.853s-25.063-14.322-32.224-26.853l-145.007-293.594-324.028-46.545c-16.112-1.79-35.804-10.741-35.804-30.434 0-10.741 8.951-23.273 16.112-30.434l234.517-229.147-55.497-322.238c0-5.371-1.79-8.951-1.79-12.531 0-16.112 8.951-32.224 26.853-32.224 8.951 0 17.902 3.58 25.063 7.161l291.804 152.168 268.531-141.427v673.119z" />
<glyph unicode="&#xe641;" glyph-name="star-1" data-tags="star-1" d="M195.131-31.772c0 5.371 0 8.95 1.789 12.531l55.498 322.236-236.306 229.146c-7.16 8.952-16.112 19.693-16.112 30.434 0 19.691 19.691 26.853 35.805 30.432l232.725 33.426v-671.993l-21.482-11.272c-6.86-4.495-15.263-7.169-24.292-7.169-0.271 0-0.542 0.002-0.812 0.007l0.041-0.001c-17.903 0-26.853 16.112-26.853 32.224z" />
<glyph unicode="&#xe642;" glyph-name="print" data-tags="print" d="M819.199 908.8h-614.4v-204.8h614.4zM870.399 448c-28.277 0-51.2 22.924-51.2 51.2v0c0 28.277 22.924 51.2 51.2 51.2v0c28.277 0 51.2-22.924 51.2-51.2v0c0-28.277-22.924-51.2-51.2-51.2v0zM716.799 89.6h-409.599v255.999h409.599zM870.399 652.8h-716.799c-84.83 0-153.6-68.77-153.6-153.6v0-307.2h204.8v-204.8h614.4v204.8h204.8v307.2c0 84.83-68.77 153.6-153.6 153.6v0z" />
<glyph unicode="&#xe643;" glyph-name="comments" data-tags="comments" d="M512-64c-25.706 0-46.546 20.84-46.546 46.546v0 139.636h-186.182c-51.412 0-93.091 41.678-93.091 93.091v0 465.455c0 51.412 41.678 93.091 93.091 93.091v0h651.636c51.412 0 93.091-41.678 93.091-93.091v0-465.455c0-51.412-41.678-93.091-93.091-93.091v0h-190.836l-172.219-172.683c-9.309-8.378-20.48-13.498-32.582-13.498h-23.272zM558.546 215.273v-143.36l143.36 143.36h229.004v465.455h-651.636v-465.455h279.273zM93.091 308.364h-93.091v558.546c0 51.412 41.678 93.091 93.091 93.091v0h744.728v-93.091h-744.728v-558.546zM372.364 587.637h465.455v-93.091h-465.455v93.091zM372.364 401.454h372.364v-93.091h-372.364v93.091z" />
<glyph unicode="&#xe644;" glyph-name="download" data-tags="download" d="M90.352-64h843.294v120.47h-843.294zM933.648 598.588h-240.942v361.412h-361.412v-361.412h-240.942l421.648-421.648 421.648 421.648z" />
<glyph unicode="&#xe645;" glyph-name="com" data-tags="com" d="M358.4-64c-28.277 0-51.2 22.924-51.2 51.2v0 153.6h-204.8c-56.554 0-102.4 45.846-102.4 102.4v0 614.4c0 56.832 46.080 102.4 102.4 102.4h819.201c56.554 0 102.4-45.846 102.4-102.4v0-614.4c0-56.554-45.846-102.4-102.4-102.4v0h-312.321l-189.44-189.952c-10.24-9.728-23.040-14.848-35.84-14.848v0h-25.6zM409.6 243.201v-157.696l157.696 157.696h354.304v614.4h-819.201v-614.4h307.2zM204.8 704.001h614.4v-102.4h-614.4v102.4zM204.8 499.201h460.8v-102.4h-460.8v102.4z" />
<glyph unicode="&#xe646;" glyph-name="trash" data-tags="trash" d="M341.333 960v-56.889h-284.444v-113.777h56.889v-739.556c0-62.837 50.94-113.777 113.777-113.777v0h568.889c62.837 0 113.777 50.94 113.777 113.777v0 739.556h56.889v113.777h-284.444v56.889h-341.333zM227.556 789.333h568.889v-739.556h-568.889v739.556zM341.333 675.556v-512h113.777v512h-113.777zM568.889 675.556v-512h113.777v512h-113.777z" />
<glyph unicode="&#xe647;" glyph-name="mail-sent" data-tags="mail-sent" d="M625.777 334.222h-227.556v170.667h-113.777l227.556 227.556 227.556-227.556h-113.777v-170.667zM113.776 277.333v568.89h796.445v-568.89h-227.556c0-94.256-76.411-170.667-170.667-170.667v0c-94.256 0-170.667 76.411-170.667 170.667v0h-227.556zM910.222 960h-796.445c-63.147 0-113.777-51.2-113.777-113.777v-796.445c0-62.837 50.94-113.777 113.777-113.777v0h796.445c62.837 0 113.777 50.94 113.777 113.777v0 796.445c0 62.837-50.94 113.777-113.777 113.777v0z" />
<glyph unicode="&#xe648;" glyph-name="user" data-tags="user" d="M512.001 959.999c141.385 0 256-114.615 256-256v0c0-141.385-114.615-256-256-256v0c-141.385 0-256 114.615-256 256v0c0 141.385 114.615 256 256 256v0zM512.001 320.001c282.88 0 511.999-114.559 511.999-256v-127.999h-1024v127.999c0 141.439 229.12 256 511.999 256z" />
<glyph unicode="&#xe800;" glyph-name="thumb-down" data-tags="thumb-down" d="M810.667 320h170.667v512h-170.667zM640 832h-384c-35.413 0-65.707-21.333-78.507-52.053l-128.853-300.8c-3.84-9.813-5.973-20.053-5.973-31.147v-85.333c0-47.128 38.205-85.333 85.333-85.333v0h269.227l-40.533-194.987c-0.853-4.267-1.28-8.533-1.28-13.227 0-17.92 7.253-33.707 18.773-45.227l45.227-45.227 280.747 281.173c15.787 15.36 25.173 36.693 25.173 60.16v426.667c0 47.36-38.4 85.333-85.333 85.333z" />
<glyph unicode="&#xe801;" glyph-name="thumb-up" data-tags="thumb-up" d="M1024 494.546c0 51.665-41.891 93.091-93.091 93.091h-294.167l44.684 212.713c0.931 4.655 1.396 9.775 1.396 14.894 0 19.083-7.912 36.771-20.48 49.339l-49.339 48.873-306.27-306.27c-17.222-17.222-27.461-40.495-27.461-66.095v-465.455c0-51.412 41.678-93.091 93.091-93.091v0h418.909c38.632 0 71.68 23.272 85.644 56.785l140.567 328.146c4.189 10.705 6.516 21.876 6.516 33.979v93.091zM0-17.454h186.182v558.546h-186.182v-558.546z" />
<glyph unicode="&#xe802;" glyph-name="bars" data-tags="bars" d="M0 789.333h1024v-113.777h-1024v113.777zM0 504.889h1024v-113.777h-1024v113.777zM0 220.444h1024v-113.777h-1024v113.777z" />
<glyph unicode="&#xe900;" glyph-name="file-times" data-tags="file-times" d="M614.4 960h-409.6c-56.832 0-102.4-46.080-102.4-102.4v-819.201c0-56.832 45.568-102.4 102.4-102.4h614.4c56.832 0 102.4 45.568 102.4 102.4v614.4l-307.2 307.2zM819.2 38.399h-614.4v819.201h358.401v-256h256v-563.2zM509.44 270.847l109.056-108.544-72.704-72.704-108.544 109.056-108.544-109.056-72.704 72.704 109.056 108.544-109.056 108.544 72.704 72.704 108.544-109.056 108.544 109.056 72.704-72.704-109.056-108.544z" />
<glyph unicode="&#xe901;" glyph-name="file-download" data-tags="file-download" d="M614.4 959.999l307.2-307.2v-614.4c0-56.554-45.846-102.4-102.4-102.4v0h-614.4c-56.554 0-102.4 45.846-102.4 102.4v0 819.201c0 56.554 45.846 102.4 102.4 102.4v0h409.6zM819.2 38.399v563.2h-256v256h-358.401v-819.201h614.4zM512 89.598l-204.8 204.8h128v153.6h153.6v-153.6h128l-204.8-204.8z" />
<glyph unicode="&#xe902;" glyph-name="file-arrows" data-tags="file-arrows" d="M536.381 960h-390.095c-53.638 0-97.523-43.886-97.523-97.523v-780.191c0-19.992 5.851-39.009 16.579-54.614 3.414-5.363 7.802-10.24 12.191-14.141 17.554-18.042 41.935-28.769 68.754-28.769h367.177c-25.843 28.282-44.861 60.952-57.539 97.523h-309.638v780.191h341.334v-243.809h243.809v-146.286c34.134 0 66.803-5.851 97.523-16.579v211.626l-292.571 292.571zM731.429-64l243.809 219.429-243.809 219.429v-146.286h-195.048v-146.286h195.048v-146.286z" />
<glyph unicode="&#xe903;" glyph-name="assessment" data-tags="assessment" d="M168.719 772.291h194.282v-39.441h-194.282v39.441zM0.73 814.653h125.626v-125.626h-125.626v125.626zM168.719 602.842h194.282v-39.441h-194.282v39.441zM0.73 645.204h125.626v-125.626h-125.626v125.626zM427.275 814.653h125.626v-125.626h-125.626v125.626zM595.264 772.291h194.282v-39.441h-194.282v39.441zM595.264 602.842h194.282v-39.441h-194.282v39.441zM427.275 645.204h125.626v-125.626h-125.626v125.626zM0.73 446.539h286.311l115.401-125.626c21.912-23.372 56.97-26.294 81.803-5.843l425.084 356.428c32.137 27.755 73.039 42.362 115.401 42.362v0l-544.867-609.141c-26.294-29.215-71.578-32.137-100.793-4.382l-378.34 346.203z" />
<glyph unicode="&#xe904;" glyph-name="right-arrow-big" data-tags="right-arrow-big" d="M0 512.647v-129.292h775.758l-355.556-355.556 91.798-91.798 512 512-512 512-91.798-91.798 355.556-355.556h-775.758z" />
<glyph unicode="&#xe905;" glyph-name="details" data-tags="details" d="M870.402 857.6h-214.017c-21.504 59.392-77.824 102.4-144.384 102.4s-122.88-43.008-144.384-102.4h-214.017c-56.32 0-102.4-46.080-102.4-102.4v-716.801c0-56.32 46.080-102.4 102.4-102.4h716.801c56.32 0 102.4 46.080 102.4 102.4v716.801c0 56.32-46.080 102.4-102.4 102.4zM512.001 857.6c28.16 0 51.2-23.040 51.2-51.2s-23.040-51.2-51.2-51.2-51.2 23.040-51.2 51.2 23.040 51.2 51.2 51.2zM256.001 652.8h512.001v102.4h102.4v-716.801h-716.801v716.801h102.4v-102.4zM512.001 140.8v102.4h256v-102.4h-256zM512.001 448v102.4h256v-102.4h-256zM307.2 396.8v153.6h-51.2v51.2h102.4v-204.801h-51.2zM371.201 294.4c20.992 0 38.4-17.408 38.4-38.4 0-10.24-4.096-19.968-10.752-26.624l-85.504-88.576h96.256v-51.2h-153.6v47.104l102.4 106.497h-102.4v51.2h115.2z" />
<glyph unicode="&#xe906;" glyph-name="phone" data-tags="phone" d="M205.937 516.835c81.92-160.996 213.903-292.977 374.897-374.897l125.156 125.156c15.929 15.929 38.116 20.48 58.027 14.223 63.716-21.049 131.983-32.427 203.093-32.427 31.419 0 56.889-25.471 56.889-56.889v0-199.111c0-31.419-25.471-56.889-56.889-56.889v0c-534.121 0-967.111 432.991-967.111 967.111v0c0 31.419 25.471 56.889 56.889 56.889v0h199.111c31.419 0 56.889-25.471 56.889-56.889v0c0-71.111 11.377-139.377 32.427-203.093 6.257-19.911 1.707-42.097-14.223-58.027l-125.156-125.156z" />
<glyph unicode="&#xe907;" glyph-name="university" data-tags="university" d="M287.129 317.911c0 120.799 0 243.455 0 364.254 0 7.433 1.858 14.868 7.433 20.443 68.761 81.771 137.525 165.4 206.286 247.172 9.291 9.291 9.291 9.291 16.726 0 70.619-83.629 141.241-167.259 213.719-250.888 5.575-5.575 5.575-11.152 5.575-18.585 0-146.816 0-291.773 0-438.589 0-96.639 0-193.276 0-289.915 0-14.868 0-14.868-14.868-14.868-29.734 0-59.47 0-91.062 0-14.868 0-14.868 0-14.868 14.868 0 72.48 0 146.816 0 219.296 0 59.47-44.602 104.072-104.072 104.072-55.754 0-102.214-46.46-102.214-104.072 0-72.48 0-144.958 0-219.296 0-14.868 0-14.868-14.868-14.868-31.595 0-63.187 0-92.923 0-14.868 0-14.868 0-14.868 14.868 0 122.657 0 243.455 0 366.112zM512 384.813c42.744 0 85.487 0 126.373 0 7.433 0 11.152 1.858 11.152 11.152 0 20.443 0 42.744 0 63.187 0 7.433-1.858 9.291-9.291 9.291-85.487 0-170.975 0-256.465 0-7.433 0-9.291-3.716-9.291-11.152 0-20.443 0-40.886 0-61.328 0-9.291 3.716-11.152 11.152-11.152 42.744 0 83.629 0 126.373 0zM512 609.684c35.311 0 65.045 27.876 65.045 63.187s-29.734 65.045-65.045 65.045c-35.311 0-65.045-29.734-65.045-63.187 0-35.311 27.876-65.045 65.045-65.045zM0.93 254.724c0 100.356 0 198.853 0 299.209 0 14.868 0 14.868 14.868 14.868 72.48 0 144.958 0 217.438 0 13.010 0 13.010 0 13.010-13.010 0-200.711 0-401.423 0-602.132 0-13.010 0-13.010-13.010-13.010-72.48 0-144.958 0-217.438 0-14.868 0-14.868 0-14.868 14.868 0 98.498 0 198.853 0 299.209zM73.411 375.52c0-13.010 0-26.017 0-39.027 0-9.291 1.858-11.152 11.152-11.152 22.301 0 46.46 0 68.761 0 20.443 0 20.443 0 22.301 20.443 0 22.301 0 44.602 0 68.761 0 5.575 0 13.010-9.291 13.010-27.876 0-55.754 0-83.629 0-7.433 0-9.291-1.858-9.291-9.291 0-14.868 0-27.876 0-42.744zM123.587 178.527c-13.010 0-26.017 0-39.027 0-7.433 0-11.152-1.858-11.152-11.152 0-26.017 0-52.037 0-78.055 0-9.291 3.716-11.152 11.152-11.152 24.159 0 46.46 0 70.619 0 18.585 0 18.585 0 20.443 18.585 0 1.858 0 1.858 0 3.716 0 22.301 0 44.602 0 66.903 0 7.433-3.716 11.152-11.152 11.152-13.010 0-27.876 0-40.886 0zM1023.070 252.863c0-100.356 0-200.711 0-299.209 0-14.868 0-14.868-14.868-14.868-70.619 0-143.099 0-213.719 0-14.868 0-14.868 0-14.868 14.868 0 200.711 0 401.423 0 600.273 0 13.010 0 14.868 14.868 14.868 72.48 0 144.958 0 217.438 0 13.010 0 13.010 0 13.010-14.868-1.858-100.356-1.858-200.711-1.858-301.067zM898.555 327.201c14.868 0 27.876 0 42.744 0 5.575 0 9.291 1.858 9.291 9.291 0 27.876 0 55.754 0 83.629 0 7.433-1.858 9.291-9.291 9.291-27.876 0-55.754 0-83.629 0-5.575 0-9.291-1.858-9.291-9.291 0-27.876 0-55.754 0-83.629 0-7.433 1.858-9.291 9.291-9.291 13.010 0 27.876 0 40.886 0zM900.413 180.386c-14.868 0-27.876 0-42.744 0-5.575 0-9.291-1.858-9.291-9.291 0-27.876 0-55.754 0-83.629 0-5.575 1.858-9.291 9.291-9.291 27.876 0 55.754 0 83.629 0 5.575 0 9.291 1.858 9.291 9.291 0 27.876 0 55.754 0 83.629 0 7.433-1.858 9.291-9.291 9.291-13.010 0-27.876 0-40.886 0z" />
<glyph unicode="&#xe908;" glyph-name="facebook" data-tags="facebook" d="M777.19 790.646h-95.836c-73.518 0-87.959-36.759-87.959-87.959v-118.154h177.231l-22.318-183.795h-154.913v-464.738h-183.795v464.738h-162.79v183.795h154.913v132.595c0 154.913 95.836 242.872 234.995 242.872 66.954 0 124.718-7.877 140.472-7.877 0 0 0-161.477 0-161.477z" />
<glyph unicode="&#xe909;" glyph-name="youtube" data-tags="youtube" d="M1002.603 695.327c-11.787 44.335-46.478 79.261-90.546 91.082-79.864 21.531-400.057 21.531-400.057 21.531s-320.193 0-400.057-21.531c-44.067-11.854-78.76-46.78-90.546-91.082-21.398-80.366-21.398-248.030-21.398-248.030s0-167.698 21.398-248.030c11.787-44.335 46.478-77.821 90.546-89.675 79.864-21.531 400.057-21.531 400.057-21.531s320.193 0 400.057 21.531c44.067 11.854 78.76 45.34 90.546 89.675 21.398 80.366 21.398 248.030 21.398 248.030s0 167.698-21.398 248.030zM407.324 295.036v304.454l267.62-152.227-267.62-152.227z" />
<glyph unicode="&#xe90a;" glyph-name="alt-inv" data-tags="alt-inv" d="M870.4 704h153.6l-204.8 204.8-204.8-204.8h153.6v-716.799h102.4zM0 192.002h512v-102.4h-512zM204.8 806.401v-102.4h-204.8v102.4zM0 499.201h358.4v-102.4h-358.4v102.4z" />
<glyph unicode="&#xe90b;" glyph-name="list-angle-right" data-tags="list-angle-right" d="M1024 296l-384 300.8v-254.4h-547.2v556.8h-92.8v-649.6h640v-252.8z" />
<glyph unicode="&#xe90c;" glyph-name="minus" data-tags="minus" d="M1024 320h-1024v256h1024v-256z" />
<glyph unicode="&#xe90d;" glyph-name="plus" data-tags="plus" d="M1024 320h-384v-384h-256v384h-384v256h384v384h256v-384h384v-256z" />
<glyph unicode="&#xe90e;" glyph-name="alt" data-tags="alt" d="M819.2-12.8l-204.8 204.8h153.6v512h-153.6l204.8 204.8 204.8-204.8h-153.6v-512h153.6zM0 89.599v102.4h512v-102.4zM0 396.799v102.4h358.4v-102.4zM0 703.999v102.4h204.8v-102.4h-204.8z" />
<glyph unicode="&#xe90f;" glyph-name="age" data-tags="age" d="M609.523 643.049h-73.143v-243.809l208.701-123.855 35.109 59.002-170.666 101.425v207.238zM585.142 886.858c-242.374 0-438.857-196.483-438.857-438.857v0h-146.286l193.097-196.511 196.998 196.511h-146.286c0 188.513 152.821 341.334 341.334 341.334v0c188.513 0 341.334-152.821 341.334-341.334v0c0-188.513-152.821-341.334-341.334-341.334v0c-94.111 0-179.443 38.522-240.883 100.449l-69.242-69.242c79.482-79.969 188.221-128.731 310.126-128.731 242.374 0 438.857 196.483 438.857 438.857v0c0 242.374-196.483 438.857-438.857 438.857v0z" />
<glyph unicode="&#xe910;" glyph-name="location" data-tags="location" d="M512 473.6c-70.692 0-128 57.307-128 128v0c0 70.692 57.307 128 128 128v0c70.692 0 128-57.307 128-128v0c0-70.692-57.307-128-128-128v0zM512 960c-197.939 0-358.4-160.461-358.4-358.4v0c0-268.8 358.4-665.6 358.4-665.6s358.4 396.8 358.4 665.6c0 197.939-160.461 358.4-358.4 358.4v0z" />
<glyph unicode="&#xe911;" glyph-name="gender" data-tags="gender" d="M483.56-64c0 3.344 0 6.697 5.016 6.697s5.016-3.344 5.016-6.697c-3.344 0-6.697 0-10.040 0zM488.575-58.984c0-1.672 0-1.672 0 0 0-1.672 0-1.672 0-1.672 0-1.672 1.672 0 0 1.672 0-1.672 0-1.672 0 0zM470.166-64c0 5.016 1.672 10.040 8.369 5.016-1.672 0-3.344 0-3.344-1.672s1.672-1.672 3.344-1.672c0 0 0-1.672 0-1.672-3.344 0-6.697 0-8.369 0zM123.82 566.795c-8.369-25.097-15.056-50.193-23.425-75.29-10.040-31.793-20.081-63.578-28.44-95.371-5.016-18.409-21.753-28.44-38.481-25.097-18.409 5.016-26.769 20.081-21.753 40.153 18.409 78.643 38.481 157.285 65.258 234.247 5.016 13.384 11.712 28.44 16.728 41.834 13.384 28.44 36.809 40.153 66.93 41.834 36.809 1.672 75.29 1.672 112.108 0 30.121-1.672 53.546-13.384 66.93-41.834 23.425-51.865 40.153-107.083 55.218-163.973 10.040-36.809 20.081-75.29 28.44-112.108 5.016-18.409-3.344-35.137-21.753-40.153-16.728-5.016-33.465 5.016-40.153 23.425-16.728 53.546-33.465 108.755-50.193 162.301 0 5.016 0 8.369-3.344 11.712 0-23.425-3.344-45.178 3.344-68.602 26.769-85.33 53.546-170.67 80.315-256 3.344-10.040 1.672-11.712-8.369-11.712-23.425 0-48.521 0-71.946 0-10.040 0-13.384-3.344-13.384-13.384 0-21.753 0-45.178 0-66.93 0-16.728 0-33.465 0-50.193 0-21.753 0-41.834 0-63.578 0-23.425-15.056-40.153-36.809-40.153s-38.481 16.728-38.481 40.153c0 58.562 0 117.124 0 175.685 0 6.697 1.672 15.056-8.369 15.056-8.369 0-6.697-8.369-6.697-15.056 0-58.562 0-117.124 0-174.013 0-25.097-15.056-41.834-36.809-41.834s-38.481 16.728-38.481 41.834c0 58.562 0 118.795 0 177.357 0 13.384 0 13.384-13.384 13.384-23.425 0-46.849 0-70.274 0-11.712 0-11.712 0-8.369 11.712 23.425 73.618 46.849 147.245 68.602 219.191 5.016 13.384 10.040 28.44 13.384 41.834 6.697 23.425 1.672 43.506 1.672 63.578zM933.645 300.755c0-83.658 0-168.998 0-252.656 0-5.016 0-10.040-1.672-15.056-3.344-16.728-11.712-26.769-28.44-30.121-18.409-3.344-33.465-1.672-46.849 13.384-6.697 8.369-6.697 16.728-6.697 25.097 0 100.395 0 199.11 0 299.506 0 3.344 0 8.369-1.672 11.712s-3.344 5.016-6.697 5.016c-3.344 0-5.016-3.344-5.016-5.016 0-3.344 0-5.016 0-8.369 0-98.715 0-195.766 0-294.481 0-5.016 0-8.369 0-13.384-3.344-25.097-21.753-38.481-46.849-35.137-23.425 3.344-36.809 20.081-36.809 45.178 1.672 23.425 0 46.849 0 70.274 0 15.056 0 30.121 0 45.178 0 40.153 0 78.643 0 118.795 0 30.121 0 61.906 0 92.027 0 36.809-1.672 71.946 0 108.755 0 21.753 0 43.506 0 65.258 0 6.697 0 11.712-1.672 18.409 0 1.672-1.672 5.016-3.344 5.016-3.344 0-5.016-1.672-5.016-5.016s0-6.697 0-8.369c0-55.218 0-110.427 0-167.317 0-20.081-10.040-35.137-25.097-38.481-23.425-6.697-45.178 10.040-45.178 36.809 0 46.849 0 92.027 0 138.876 0 18.409 0 36.809 0 53.546-1.672 61.906 26.769 107.083 83.658 130.508 68.602 30.121 137.204 26.769 202.454-15.056 36.809-23.425 56.89-60.234 56.89-105.411 0-66.93 0-133.861 0-200.782 0-26.769-21.753-43.506-45.178-36.809-15.056 5.016-25.097 18.409-25.097 36.809 0 43.506 0 85.33 0 128.836 0 13.384 0 28.44 0 41.834 0 5.016 1.672 11.712-5.016 10.040-6.697 0-5.016-6.697-5.016-10.040 0-70.274 0-140.548 0-210.822-1.672-16.728-1.672-31.793-1.672-48.521 0 0 0 0 0 0zM515.344 478.121c0 152.261 0 306.193 0 458.454 0 18.409 5.016 23.425 23.425 23.425 31.793 0 31.793-1.672 33.465-31.793 1.672-35.137 0-68.602 0-103.739 0-31.793 0-61.906 0-93.699 0-35.137 0-70.274 0-105.411 0-16.728 0-35.137 0-51.865 0-21.753 0-45.178 0-66.93 0-16.728 0-33.465 0-50.193 0-23.425 0-45.178 0-68.602 0-15.056 0-30.121 0-45.178 0-25.097 0-51.865 0-76.971 0-16.728 0-33.465 0-50.193 0-35.137 0-71.946 0-108.755 0-30.121 0-60.234 0-90.355 0-13.384-6.697-16.728-20.081-18.409-38.481-1.672-36.809 5.016-36.809 35.137 0 148.917 0 297.834 0 445.070zM132.18 841.204c0 46.849 38.481 85.33 85.33 85.33s83.658-38.481 85.33-85.33c0-45.178-40.153-85.33-85.33-85.33-46.849 0-85.33 38.481-85.33 85.33zM843.29 752.521c-48.521 0-85.33 36.809-85.33 85.33 0 46.849 38.481 83.658 83.658 83.658 48.521 0 85.33-36.809 85.33-85.33 0-46.849-36.809-83.658-83.658-83.658z" />
<glyph unicode="&#xe912;" glyph-name="google-plus" data-tags="google-plus" d="M1015.728 435.995c0-292.087-200.058-499.995-495.472-499.995-282.761 0-511.983 229.223-511.983 511.983s229.223 511.983 511.983 511.983v0c1.692 0.021 3.691 0.033 5.693 0.033 130.809 0 249.703-51.011 337.875-134.227l-0.24 0.224-139.345-133.969c-182.309 175.866-521.286 43.732-521.286-244.045-0.007-0.766-0.010-1.672-0.010-2.578 0-175.929 141.655-318.774 317.13-320.696l0.182-0.002c202.745 0 278.69 145.318 290.679 220.708h-290.679v176.079h487.408c5.129-25.466 8.064-54.74 8.064-84.699 0-0.222 0-0.444 0-0.666v0.035z" />
<glyph unicode="&#xe913;" glyph-name="question" data-tags="question" d="M669.184 486.4l-46.080-47.104c-36.864-36.864-59.904-68.096-59.904-144.896h-102.4v25.6c0 56.832 23.040 108.032 59.904 144.896l63.488 64.512c18.944 18.432 30.208 44.032 30.208 72.192 0 56.832-46.080 102.4-102.4 102.4-56.554 0-102.4-45.846-102.4-102.4v0h-102.4c0 113.108 91.692 204.8 204.8 204.8v0c113.108 0 204.8-91.692 204.8-204.8v0c0-45.056-18.432-85.504-47.616-115.2zM563.2 89.6h-102.4v102.4h102.4zM512 960c-282.769 0-512-229.23-512-512v0c0-282.769 229.23-512 512-512v0c282.769 0 512 229.23 512 512v0c0 283.136-230.4 512-512 512z" />
<glyph unicode="&#xe914;" glyph-name="basic-file" data-tags="basic-file" d="M614.4 960h-409.6c-56.554 0-102.4-45.846-102.4-102.4v0-819.201c0-56.554 45.846-102.4 102.4-102.4v0h614.4c56.554 0 102.4 45.846 102.4 102.4v0 614.4l-307.2 307.2zM819.2 38.399h-614.4v819.201h358.401v-256h256v-563.2z" />
<glyph unicode="&#xe915;" glyph-name="star-file" data-tags="star-file" d="M614.4 960h-409.6c-56.32 0-102.4-46.080-102.4-102.4v-819.201c0-56.32 46.080-102.4 102.4-102.4h614.4c56.32 0 102.4 46.080 102.4 102.4v614.4l-307.2 307.2zM819.2 38.399h-614.4v819.201h358.401v-256h256v-563.2zM384 140.799l35.84 143.36-112.64 97.28 148.48 10.24 56.32 138.24 56.32-133.12 148.48-10.24-112.64-97.28 35.84-143.36-128 71.68-128-76.8z" />
<glyph unicode="&#xe916;" glyph-name="assessment-badge" data-tags="assessment-badge" d="M638.157 295.629c19.661 31.13 47.514 47.514 83.558 49.152 37.683 0 55.706 19.661 55.706 57.344s16.384 65.536 49.152 83.558c31.13 19.661 39.322 44.237 21.299 77.005s-18.022 63.898 0 96.666c18.022 32.768 11.469 57.344-21.299 77.005-31.13 19.661-47.514 47.514-49.152 83.558 0 37.683-19.661 55.706-55.706 55.706-37.683 0-65.536 16.384-83.558 49.152-19.661 31.13-44.237 39.322-77.005 21.299s-65.536-18.022-96.666 0c-32.768 18.022-57.344 11.469-77.005-21.299-19.661-31.13-47.514-47.514-83.558-49.152-37.683 0-55.706-19.661-55.706-55.706 0-37.683-16.384-65.536-49.152-83.558-31.13-19.661-39.322-44.237-21.299-77.005s18.022-65.536 0-96.666c-18.022-32.768-11.469-57.344 21.299-77.005 31.13-19.661 47.514-47.514 49.152-83.558 0-37.683 19.661-55.706 55.706-57.344 37.683 0 65.536-16.384 83.558-49.152 19.661-31.13 44.237-39.322 77.005-21.299s65.536 18.022 96.666 0c31.13-16.384 57.344-9.83 77.005 21.299zM512 408.678c-113.050 0-203.162 91.75-203.162 203.162s91.75 203.162 203.162 203.162c111.411 0 203.162-91.75 203.162-203.162 0-113.050-90.112-203.162-203.162-203.162zM299.008 315.29c-39.322 0-44.237 18.022-44.237 18.022l-152.371-299.827 122.88 13.107 67.174-101.581c0 0 140.902 293.274 140.902 291.635-73.728 3.277-44.237 77.005-134.349 78.643zM767.59 321.843c-111.411-11.469-88.474-39.322-114.688-60.621-29.491-31.13-65.536-24.576-65.536-24.576l172.032-296.55 42.598 109.773 119.603-16.384-154.010 288.358zM502.17 683.93h126.157v-36.045h-126.157v36.045zM397.312 705.229h80.282v-80.282h-80.282v80.282zM502.17 575.795h126.157v-36.045h-126.157v36.045zM397.312 597.094h80.282v-80.282h-80.282v80.282z" />
<glyph unicode="&#xe917;" glyph-name="file-view" data-tags="file-view" d="M682.666 179.81c27.306 0 48.762-21.455 48.762-48.762s-21.455-48.762-48.762-48.762c-27.306 0-48.762 21.455-48.762 48.762s21.455 48.762 48.762 48.762zM682.666 326.095c-133.12 0-246.734-80.945-292.571-195.048 45.836-114.103 159.451-195.048 292.571-195.048s246.734 80.945 292.571 195.048c-45.836 114.103-159.451 195.048-292.571 195.048zM682.666 9.144c-67.326 0-121.905 54.578-121.905 121.905v0c0 67.326 54.578 121.905 121.905 121.905v0c67.326 0 121.905-54.578 121.905-121.905v0c0-67.326-54.578-121.905-121.905-121.905v0zM305.738 82.287h-159.451v780.189h341.333v-243.809h243.809v-198.46c34.134-3.901 66.316-12.191 97.523-23.894v271.116l-292.571 292.571h-390.094c-53.86 0-97.523-43.663-97.523-97.523v0-780.189c0-53.86 43.663-97.523 97.523-97.523v0h219.428c-24.381 28.769-44.374 61.928-59.977 97.523z" />
<glyph unicode="&#xe918;" glyph-name="assessment-check" data-tags="assessment-check" d="M614.4 960l307.2-307.2v-614.4c0-56.554-45.846-102.4-102.4-102.4v0h-614.4c-56.554 0-102.4 45.846-102.4 102.4v0 819.201c0 56.554 45.846 102.4 102.4 102.4v0h409.6zM819.2 38.4v563.2h-256v256h-358.401v-819.201h614.4zM471.040 117.247l-140.8 153.6 59.392 59.392 81.408-80.896 183.296 183.296 59.904-72.192-243.201-243.201z" />
<glyph unicode="&#xe919;" glyph-name="assessment-empty" data-tags="assessment-empty" d="M409.6 140.799h-102.4v102.4h102.4v-102.4zM409.6 345.599h-102.4v307.2h102.4v-307.2zM614.4 959.999h-409.6c-56.32 0-102.4-46.080-102.4-102.4v-819.201c0-56.32 46.080-102.4 102.4-102.4h614.4c56.32 0 102.4 46.080 102.4 102.4v614.4l-307.2 307.2zM819.2 38.399h-614.4v819.201h358.401v-256h256v-563.2z" />
<glyph unicode="&#xe91a;" glyph-name="assessment-default" data-tags="assessment-default" d="M204.8 960c-56.554 0-102.4-45.846-102.4-102.4v0-819.2c0-56.554 45.846-102.4 102.4-102.4v0h614.399c56.554 0 102.4 45.846 102.4 102.4v0 614.399l-307.2 307.2h-409.6zM204.8 857.599h358.401v-256h256v-563.199h-614.399v819.2zM307.2 447.999v-102.4h409.6v102.4h-409.6zM307.2 243.199v-102.4h256v102.4h-256z" />
<glyph unicode="&#xe91b;" glyph-name="assessment-view" data-tags="assessment-view" d="M614.4 960h-409.6c-56.554 0-102.4-45.846-102.4-102.4v0-819.201c0-56.554 45.846-102.4 102.4-102.4v0h614.4c56.554 0 102.4 45.846 102.4 102.4v0 614.4l-307.2 307.2zM204.8 857.599h358.401l256-256v-439.296l-94.208 94.208c65.536 99.328 54.784 233.984-33.792 321.537-48.64 49.152-113.664 74.752-179.2 74.752s-130.56-25.6-180.736-74.752c-100.864-99.84-100.864-261.633 0-360.448 49.664-51.2 115.2-75.264 180.736-75.264 49.152 0 98.304 14.336 140.8 42.496l145.92-146.432h-593.92v819.201zM620.032 289.279c-28.672-28.672-67.072-46.080-108.032-46.080s-79.36 16.896-108.032 46.080c-28.672 28.672-45.568 67.072-45.568 107.52 0 41.472 16.384 79.872 45.568 108.544 28.672 29.184 67.072 45.056 108.032 45.056s79.36-15.872 108.032-45.056c28.672-28.672 45.568-67.072 45.568-108.544 0-40.448-16.384-78.848-45.568-107.52z" />
<glyph unicode="&#xe91c;" glyph-name="employer" data-tags="employer" d="M660.637 360.909c40.941-20.471 80.518-40.941 121.459-58.682 20.471-9.553 40.941-16.376 62.777-21.835 49.129-12.282 73.694-43.671 81.882-91.435 8.188-46.4 5.459-94.165-1.365-140.565-1.365-9.553-5.459-15.012-13.647-19.106-65.506-35.482-136.471-58.682-208.8-73.694-81.882-16.376-165.13-23.2-249.742-17.741-117.365 8.188-229.271 34.118-334.353 87.341-13.647 6.824-20.471 15.012-21.835 30.024-4.094 49.129-9.553 98.259 2.729 147.388 10.918 39.577 35.482 65.506 76.424 76.424 61.412 16.376 118.73 43.671 173.318 77.788 4.094 2.729 6.824 4.094 12.282 8.188 30.024-94.165 60.047-186.965 90.071-283.859 2.729 5.459 4.094 6.824 4.094 9.553 9.553 27.294 20.471 55.953 28.659 83.247 1.365 4.094 0 10.918-2.729 15.012-12.282 19.106-24.565 39.577-28.659 62.777-2.729 20.471 5.459 35.482 23.2 42.306 21.835 8.188 43.671 8.188 65.506 0 19.106-6.824 28.659-24.565 24.565-45.035-4.094-23.2-16.376-42.306-28.659-61.412-2.729-4.094-4.094-9.553-2.729-12.282 10.918-31.388 21.835-62.777 35.482-94.165 31.388 95.53 60.047 188.33 90.071 279.765zM374.048 919.075c-6.824 12.282-12.282 24.565-19.106 36.847 1.365 1.365 1.365 2.729 2.729 2.729 13.647-1.365 25.929-1.365 39.577-2.729 43.671-2.729 87.341-5.459 131.012 2.729 46.4 8.188 99.624-21.835 117.365-65.506 1.365-2.729 5.459-6.824 9.553-8.188 27.294-2.729 46.4-16.376 58.682-40.941 10.918-21.835 15.012-46.4 12.282-70.965-1.365-25.929-6.824-51.859-9.553-79.153 0-2.729-1.365-5.459-1.365-6.824 23.2-4.094 28.659-9.553 28.659-34.118-1.365-36.847-10.918-69.6-25.929-102.353-6.824-15.012-12.282-16.376-27.294-15.012-10.918-54.588-30.024-103.718-76.424-136.471-31.388-23.2-65.506-35.482-105.082-32.753-69.6 2.729-152.847 39.577-177.412 169.224-13.647-2.729-20.471 5.459-25.929 16.376-16.376 32.753-25.929 66.871-25.929 102.353 0 23.2 5.459 30.024 28.659 32.753-2.729 19.106-6.824 39.577-8.188 58.682-4.094 55.953 6.824 107.812 47.765 150.118 8.188 8.188 17.741 16.376 25.929 23.2z" />
<glyph unicode="&#xe91d;" glyph-name="clock" data-tags="clock" d="M512 38.401c226.215 0 409.599 183.384 409.599 409.599v0c0 226.215-183.384 409.599-409.599 409.599v0c-226.215 0-409.599-183.384-409.599-409.599v0c0-226.215 183.384-409.599 409.599-409.599v0zM512 960c282.769 0 512-229.23 512-512v0c0-282.769-229.23-512-512-512v0c-283.136 0-512 230.4-512 512 0 282.769 229.23 512 512 512v0zM537.6 703.999v-268.8l230.4-136.704-38.4-62.976-268.8 161.28v307.2h76.8z" />
<glyph unicode="&#xe91e;" glyph-name="sort-down" data-tags="sort-down" d="M0.003 703.999l511.999-511.999 511.999 511.999h-1024z" />
<glyph unicode="&#xe91f;" glyph-name="sort-up" data-tags="sort-up" d="M0.003 192.001l511.999 511.999 511.999-511.999h-1024z" />
<glyph unicode="&#xe920;" glyph-name="assessment-none" data-tags="assessment-none" d="M870.402 857.601h-214.017c-21.504 59.392-77.824 102.4-144.384 102.4s-122.88-43.008-144.384-102.4h-214.017c-56.32 0-102.4-46.080-102.4-102.4v-716.801c0-56.832 46.080-102.4 102.4-102.4h716.801c56.832 0 102.4 45.568 102.4 102.4v716.801c0 56.32-45.568 102.4-102.4 102.4zM512.001 857.601c28.16 0 51.2-23.040 51.2-51.2s-23.040-51.2-51.2-51.2-51.2 23.040-51.2 51.2 23.040 51.2 51.2 51.2zM870.402 38.399h-716.801v716.801h102.4v-102.4h512.001v102.4h102.4v-716.801zM693.249 454.144l-109.056-108.544 109.056-108.544-72.704-72.704-108.544 109.056-108.544-109.056-72.192 72.704 108.544 108.544-108.544 108.544 72.192 72.192 108.544-108.544 108.544 108.544 72.704-72.192z" />
<glyph unicode="&#xe921;" glyph-name="pdf-file" data-tags="pdf-file" d="M614.4 960l307.2-307.2v-614.399c0-56.554-45.846-102.4-102.4-102.4v0h-614.399c-56.554 0-102.4 45.846-102.4 102.4v0 819.2c0 56.554 45.846 102.4 102.4 102.4v0h409.6zM819.2 38.399v563.199h-256v256h-358.401v-819.2h614.399zM456.704 432.127c-12.288 39.424-39.424 165.376 32.256 167.424s24.576-159.744 24.576-159.744c19.968-76.288 103.424-131.072 103.424-131.072 25.6 7.68 171.52 24.576 151.040-51.2-22.016-75.776-179.2-4.608-179.2-4.608-99.84-7.168-174.592-33.792-174.592-33.792-57.856-108.032-125.44-155.136-153.088-109.568-34.304 56.832 109.056 130.048 109.056 130.048 74.24 120.32 85.504 190.464 86.528 192.512zM489.984 389.119c-20.48-66.56-61.44-137.728-61.44-137.728 43.52 17.408 138.752 37.376 138.752 37.376-58.368 51.2-76.288 99.84-77.312 100.352zM650.752 278.015c0 0 89.6-33.28 91.648-19.968 3.584 13.824-68.096 26.112-91.648 19.968zM360.96 201.727c-39.424-15.36-77.312-80.896-68.096-80.896 9.216-0.512 46.592 30.72 68.096 80.896zM489.984 485.887c0 2.56 22.016 86.016 0 88.576-15.36 1.536-0.512-86.528 0-88.576z" />
<glyph unicode="&#xe922;" glyph-name="certified-badge" data-tags="certified-badge" d="M875.077 618.738c-16.984 10.19-20.38 33.967-6.793 50.95 0 0 0 0 0 0 13.587 16.984 6.793 40.76-10.19 54.348-3.397 0-6.793 3.397-10.19 3.397-20.38 6.793-30.57 27.173-23.777 47.554 0 0 0 0 0 0v0c6.793 20.38-3.397 40.76-23.777 47.554-3.397 0-6.793 3.397-13.587 3.397-20.38 0-33.967 13.587-33.967 33.967 0 0 0 0 0 0 0 20.38-16.984 37.364-37.364 37.364-3.397 0-6.793 0-10.19-3.397-20.38-6.793-40.76 3.397-47.554 23.777 0 0 0 0 0 0-6.793 20.38-27.173 30.57-47.554 23.777-3.397 0-6.793-3.397-10.19-3.397-16.984-10.19-40.76-6.793-50.95 6.793-13.587 16.984-37.364 20.38-54.348 6.793-3.397-3.397-3.397-3.397-6.793-6.793-13.587-13.587-37.364-16.984-54.348-6.793 0 0 0 0 0 0-16.984 13.587-40.76 10.19-54.348-6.793 0-3.397-3.397-6.793-3.397-10.19-6.793-20.38-27.173-30.57-47.554-23.777 0 0 0 0 0 0v0c-20.38 6.793-40.76-6.793-47.554-23.777 0-3.397-3.397-6.793-3.397-13.587 0-20.38-13.587-33.967-33.967-33.967 0 0 0 0 0 0-20.38 0-37.364-16.984-37.364-37.364 0-3.397 0-6.793 3.397-10.19v0c6.793-20.38-3.397-40.76-23.777-47.554 0 0 0 0 0 0-23.777-10.19-33.967-30.57-27.173-50.95 0-3.397 3.397-6.793 3.397-10.19 13.587-16.984 10.19-40.76-6.793-50.95-16.984-13.587-20.38-37.364-6.793-54.348 3.397-3.397 3.397-3.397 6.793-6.793 16.984-10.19 20.38-33.967 6.793-50.95 0 0 0 0 0 0-13.587-16.984-6.793-40.76 10.19-54.348 3.397 0 6.793-3.397 10.19-3.397 20.38-6.793 30.57-27.173 23.777-47.554 0 0 0 0 0 0-6.793-20.38 3.397-40.76 23.777-47.554 3.397 0 6.793-3.397 13.587-3.397 20.38 0 33.967-13.587 33.967-33.967 0 0 0 0 0 0 0-13.587 6.793-23.777 16.984-30.57l-95.107-244.562 180.025 64.537 88.314-169.835 44.157 112.091 44.157-112.091 88.314 169.835 180.025-64.537-95.107 244.562c10.19 6.793 16.984 16.984 16.984 30.57 0 20.38 16.984 37.364 37.364 37.364 0 0 0 0 0 0 20.38 0 37.364 16.984 37.364 37.364 0 3.397 0 6.793-3.397 10.19-6.793 20.38 3.397 40.76 23.777 47.554 0 0 0 0 0 0 20.38 6.793 30.57 27.173 23.777 47.554 0 3.397-3.397 6.793-3.397 10.19-10.19 16.984-6.793 40.76 6.793 50.95 16.984 10.19 20.38 33.967 10.19 50.95 3.397 3.397 0 6.793-3.397 10.19v0zM515.027 275.672c-173.231 0-312.496 139.264-312.496 312.496s139.264 312.496 312.496 312.496c173.231 0 312.496-139.264 312.496-312.496 0-169.835-139.264-312.496-312.496-312.496 0 0 0 0 0 0v0zM515.027 856.506c-146.058 0-268.338-118.885-268.338-264.942s118.885-268.338 264.942-268.338c146.058 0 268.338 118.885 268.338 264.942 0 0 0 0 0 0 3.397 146.058-115.487 268.338-264.942 268.338 0 0 0 0 0 0v0zM515.027 343.606c-135.868 0-247.959 112.091-247.959 247.959s112.091 244.562 247.959 244.562 247.959-112.091 247.959-247.959c0-135.868-112.091-244.562-247.959-244.562v0zM375.763 669.689h278.529v-20.38h-278.529v20.38zM375.763 598.358h278.529v-20.38h-278.529v20.38zM375.763 530.424h278.529v-20.38h-278.529v20.38z" />
<glyph unicode="&#xe923;" glyph-name="angle-double-right" data-tags="angle-double-right" d="M0 798.497l107.669 107.669 458.166-458.166-458.166-458.166-107.669 107.669 349.732 350.497-349.732 350.497zM458.166 798.497l107.669 107.669 458.166-458.166-458.166-458.166-107.669 107.669 349.732 350.497-349.732 350.497z" />
<glyph unicode="&#xe924;" glyph-name="calendar-info" data-tags="calendar-info" d="M870.401 38.399h-716.8v563.2h716.8zM716.801 960v-102.4h-409.6v102.4h-102.4v-102.4h-51.2c-56.832 0-102.4-45.568-102.4-102.4v-716.8c0-56.554 45.846-102.4 102.4-102.4v0h716.8c56.554 0 102.4 45.846 102.4 102.4v0 716.8c0 56.832-46.080 102.4-102.4 102.4h-51.2v102.4zM768 396.8h-256v-256h256v256z" />
<glyph unicode="&#xe925;" glyph-name="calendar-time" data-tags="calendar-time" d="M870.401 38.399h-716.8v563.2h716.8zM716.801 960v-102.4h-409.6v102.4h-102.4v-102.4h-51.2c-56.832 0-102.4-45.568-102.4-102.4v-716.8c0-56.554 45.846-102.4 102.4-102.4v0h716.8c56.554 0 102.4 45.846 102.4 102.4v0 716.8c0 56.832-46.080 102.4-102.4 102.4h-51.2v102.4zM768 396.8h-256v-256h256v256z" />
<glyph unicode="&#xe926;" glyph-name="notify-bell" data-tags="notify-bell" d="M950.858 131.047v-48.762h-877.716v48.762l97.524 97.524v292.572c0 151.163 98.987 284.283 243.81 327.193 0 4.877 0 9.265 0 14.141 0 53.861 43.663 97.524 97.524 97.524v0c53.861 0 97.524-43.663 97.524-97.524v0c0-4.877 0-9.265 0-14.141 144.823-42.911 243.81-176.031 243.81-327.193v-292.572l97.524-97.524zM609.524 33.524c0-53.861-43.663-97.524-97.524-97.524v0c-53.861 0-97.524 43.663-97.524 97.524v0z" />
<glyph unicode="&#xe927;" glyph-name="notify-bell-tik" data-tags="notify-bell-tik" d="M408.288-20.32c51.52 0 93.632 42.112 93.632 93.696h-187.328c0.064-51.552 42.208-93.696 93.696-93.696zM746.144 314.176c178.304 0 267.584 89.216 267.584 267.616s-89.28 267.584-267.584 267.584c-86.304 0-151.52-21.088-196.096-62.848-22.304 11.584-46.272 20.64-71.52 26.72v32.8c0 37.44-32.768 70.24-70.208 70.24-37.472 0-70.24-32.8-70.24-70.24v-32.768c-135.808-32.768-234.176-149.856-234.176-295.040v-257.536l-93.632-93.664v-46.88h796.16v46.88l-93.728 93.664v54.656c10.752-0.768 21.92-1.184 33.44-1.184zM619.008 213.856h-421.472v304.384c0 117.056 93.696 210.72 210.752 210.72 32.608 0 63.264-7.456 90.72-20.48-13.504-35.552-20.512-77.632-20.512-126.688 0-129.12 47.040-211.264 140.512-246.944v-120.992zM708.384 442.56c-5.248 0-10.272 2.080-14.112 5.952l-28.32 28.288-74.368 74.848c-3.872 3.808-6.048 8.96-6.048 14.112 0 5.088 2.176 10.24 6.048 14.112l28.224 28.224c3.904 3.808 9.056 5.952 14.144 5.952 5.024 0 10.208-2.112 14.080-5.952l60.704-61.184 135.488 135.968c3.904 3.904 9.024 5.952 14.080 5.952s10.272-2.048 14.112-5.952l28.256-28.224c3.872-3.872 5.984-9.024 5.984-14.112-0.384-5.152-2.592-10.24-6.336-14.112l-177.856-177.92c-3.904-3.872-8.992-5.952-14.080-5.952z" />
<glyph unicode="&#xe928;" glyph-name="rockt-btn" data-tags="rockt-btn" d="M0 9.143l1024 438.857-1024 438.857v-341.334l731.429-97.523-731.429-97.523v-341.334z" />
<glyph unicode="&#xe929;" glyph-name="user-remove-mc" data-tags="user-remove-mc" d="M651.636 354.909c-124.276 0-372.363-61.906-372.363-186.182v-93.090h744.727v93.090c0 124.276-248.087 186.182-372.363 186.182zM0 541.089v-93.090h372.363v93.090zM651.636 447.999c102.826 0 186.182 83.356 186.182 186.182v0c0 102.826-83.356 186.182-186.182 186.182v0c-102.826 0-186.182-83.356-186.182-186.182v0c0-102.826 83.356-186.182 186.182-186.182v0z" />
<glyph unicode="&#xe92a;" glyph-name="open-process" data-tags="open-process" d="M630.328 243.768l147.343 147.343h-550.117v113.777h550.117l-147.343 147.343 80.783 80.213 284.444-284.444-284.444-284.444-80.783 80.213zM910.222 960c62.837 0 113.777-50.94 113.777-113.777v0-265.671l-113.777 113.777v151.894h-796.445v-796.445h796.445v151.894l113.777 113.777v-265.671c0-62.837-50.94-113.777-113.777-113.777v0h-796.445c-63.147 0-113.777 51.2-113.777 113.777v796.445c0 63.147 50.631 113.777 113.777 113.777h796.445z" />
<glyph unicode="&#xe92b;" glyph-name="user-hired" data-tags="user-hired" d="M950.482 434.872l73.517-74.043-342.909-346.060-182.219 183.795 73.517 74.043 108.702-109.227 269.391 271.492zM367.59 198.564l157.538-157.538h-525.128v105.025c0 116.053 187.997 210.052 420.102 210.052l99.25-5.776-151.763-151.763zM420.102 881.23c116.008 0 210.052-94.043 210.052-210.052v0c0-116.008-94.043-210.052-210.052-210.052v0c-116.008 0-210.052 94.043-210.052 210.052v0c0 116.008 94.043 210.052 210.052 210.052v0z" />
<glyph unicode="&#xe92c;" glyph-name="sorting-ic" data-tags="sorting-ic" d="M819.2-12.8l-204.8 204.8h153.6v512h-153.6l204.8 204.8 204.8-204.8h-153.6v-512h153.6zM0 89.6v102.4h512v-102.4zM0 396.8v102.4h358.4v-102.4zM0 703.999v102.4h204.8v-102.4h-204.8z" />
<glyph unicode="&#xe92d;" glyph-name="calendar-straight" data-tags="calendar-straight" d="M870.399 38.4h-716.801v563.2h716.801zM716.799 960.001v-102.4h-409.6v102.4h-102.4v-102.4h-51.2c-56.832 0-102.4-45.568-102.4-102.4v-716.801c0-56.554 45.846-102.4 102.4-102.4v0h716.801c56.554 0 102.4 45.846 102.4 102.4v0 716.801c0 56.832-46.080 102.4-102.4 102.4h-51.2v102.4zM767.998 396.801h-256v-256h256v256z" />
<glyph unicode="&#xe92e;" glyph-name="calendar-dot" data-tags="calendar-dot" d="M870.401 38.399h-716.801v563.2h716.801zM716.801 960v-102.4h-409.6v102.4h-102.4v-102.4h-51.2c-56.832 0-102.4-45.568-102.4-102.4v-716.801c0-56.554 45.846-102.4 102.4-102.4v0h716.801c56.554 0 102.4 45.846 102.4 102.4v0 716.801c0 56.832-46.080 102.4-102.4 102.4h-51.2v102.4zM768 396.8h-256v-256h256v256z" />
<glyph unicode="&#xe92f;" glyph-name="clock-style" data-tags="clock-style" d="M512 38.401c226.215 0 409.599 183.384 409.599 409.599v0c0 226.215-183.384 409.599-409.599 409.599v0c-226.215 0-409.599-183.384-409.599-409.599v0c0-226.215 183.384-409.599 409.599-409.599v0zM512 960c282.769 0 512-229.23 512-512v0c0-282.769-229.23-512-512-512v0c-283.136 0-512 230.4-512 512 0 282.769 229.23 512 512 512v0zM537.6 703.999v-268.8l230.4-136.704-38.4-62.976-268.8 161.28v307.2h76.8z" />
<glyph unicode="&#xe930;" glyph-name="direction" data-tags="direction" d="M614.375 319.937v127.968h-204.749v-153.562h-102.374v204.749c0 28.27 22.918 51.188 51.188 51.188v0h255.936v127.968l179.155-179.155zM1009.028 484.247l-460.685 460.685h-0.512c-19.963 19.963-52.211 19.963-72.174 0l-460.685-460.685c-19.963-19.963-19.963-52.723 0-72.686l460.685-460.685c19.963-19.451 52.211-19.963 72.686 0l460.685 460.685c19.963 19.963 19.963 52.723 0 72.686z" />
<glyph unicode="&#xe931;" glyph-name="info" data-tags="info" d="M563.2 601.6h-102.4v102.4h102.4zM563.2 192.001h-102.4v307.2h102.4zM512 960c-282.769 0-512-229.23-512-512v0c0-282.769 229.23-512 512-512v0c282.769 0 512 229.23 512 512v0c0 282.769-229.23 512-512 512v0z" />
<glyph unicode="&#xe932;" glyph-name="location-map" data-tags="location-map" d="M512 473.6c-70.692 0-128 57.307-128 128v0c0 70.692 57.307 128 128 128v0c70.692 0 128-57.307 128-128v0c0-70.692-57.307-128-128-128v0zM512 960c-197.939 0-358.4-160.461-358.4-358.4v0c0-268.8 358.4-665.6 358.4-665.6s358.4 396.8 358.4 665.6c0 197.939-160.461 358.4-358.4 358.4v0z" />
<glyph unicode="&#xe933;" glyph-name="cross-close" data-tags="cross-close" d="M1024 773.76l-186.24 186.24-325.76-325.76-325.76 325.76-186.24-186.24 325.76-325.76-325.76-325.76 186.24-186.24 325.76 325.76 325.76-325.76 186.24 186.24-325.76 325.76 325.76 325.76z" />
<glyph unicode="&#xe934;" glyph-name="comment" data-tags="comment" d="M512.001-63.999c-25.706 0-46.546 20.84-46.546 46.546v0 139.636h-186.182c-51.412 0-93.091 41.678-93.091 93.091v0 465.455c0 51.412 41.678 93.091 93.091 93.091v0h651.636c51.412 0 93.091-41.678 93.091-93.091v0-465.455c0-51.412-41.678-93.091-93.091-93.091v0h-190.836l-172.219-172.683c-9.309-8.378-20.48-13.498-32.582-13.498h-23.272zM558.547 215.273v-143.36l143.36 143.36h229.004v465.455h-651.636v-465.455h279.273zM93.092 308.364h-93.091v558.546c0 51.412 41.678 93.091 93.091 93.091v0h744.728v-93.091h-744.728v-558.546zM372.364 587.636h465.455v-93.091h-465.455v93.091zM372.364 401.454h372.364v-93.091h-372.364v93.091z" />
<glyph unicode="&#xe935;" glyph-name="plus-sign" data-tags="plus-sign" d="M1024 320h-384v-384h-256v384h-384v256h384v384h256v-384h384v-256z" />
<glyph unicode="&#xe936;" glyph-name="recruitment-step" data-tags="recruitment-step" d="M512 960l-384-298.667 69.547-54.187 314.453-244.48 384 298.667-384 298.667zM826.453 502.187l-314.453-244.907-314.88 244.48-69.12-53.76 384-298.667 384 298.667-69.547 54.187zM826.453 288.854l-314.453-244.907-314.88 244.48-69.12-53.76 384-298.667 384 298.667-69.547 54.187z" />
<glyph unicode="&#xe937;" glyph-name="check-list" data-tags="check-list" d="M870.787 858.588h-214.246c-29.215 79.958-117.374 120.961-195.794 92.259-44.079-15.376-76.882-49.205-93.284-92.259h-214.246c-56.614 0-102.51-45.895-102.51-102.51v0-717.569c0-56.614 45.895-102.51 102.51-102.51v0h717.569c56.614 0 102.51 45.895 102.51 102.51v0 717.569c0 56.614-45.895 102.51-102.51 102.51v0zM512.001 858.588c28.307 0 51.255-22.948 51.255-51.255v0c0-28.307-22.948-51.255-51.255-51.255v0c-28.307 0-51.255 22.948-51.255 51.255v0c0 28.307 22.948 51.255 51.255 51.255v0zM255.727 653.568h512.55v102.51h102.51v-717.569h-717.569v717.569h102.51v-102.51zM768.276 448.549h-512.55v102.51h512.55v-102.51zM665.766 243.529h-410.039v102.51h410.039v-102.51z" />
<glyph unicode="&#xe938;" glyph-name="job-analytic" data-tags="job-analytic" d="M791.040 271.103l232.96 402.945v-700.929h-1024v921.6h102.4v-642.048l281.601 488.448 332.8-193.536 217.088 375.297 88.576-51.2-267.777-463.36-333.312 192-303.105-524.8h115.712l224.768 387.072 332.289-191.488z" />
<glyph unicode="&#xe939;" glyph-name="pie-chart" data-tags="pie-chart" d="M460.8 959.999v-1023.998c-261.12 25.6-460.799 245.76-460.799 511.999s199.68 486.399 460.799 511.999zM563.2 959.999v-460.799h460.799c-25.6 245.76-215.040 435.2-460.799 460.799zM563.2 396.8v-460.799c240.639 25.6 435.2 215.040 460.799 460.799h-460.799z" />
<glyph unicode="&#xe93a;" glyph-name="table-view" data-tags="table-view" d="M102.4 934.4h819.201c56.554 0 102.4-45.846 102.4-102.4v0-768c0-56.554-45.846-102.4-102.4-102.4v0h-819.201c-56.554 0-102.4 45.846-102.4 102.4v0 768c0 56.554 45.846 102.4 102.4 102.4v0zM102.4 729.599v-153.6h204.8v153.6h-204.8zM409.6 729.599v-153.6h204.8v153.6h-204.8zM921.6 575.999v153.6h-204.8v-153.6h204.8zM102.4 473.6v-153.6h204.8v153.6h-204.8zM102.4 64h204.8v153.6h-204.8v-153.6zM409.6 473.6v-153.6h204.8v153.6h-204.8zM409.6 64h204.8v153.6h-204.8v-153.6zM921.6 64v153.6h-204.8v-153.6h204.8zM921.6 473.6h-204.8v-153.6h204.8v153.6z" />
<glyph unicode="&#xe93b;" glyph-name="user-friends" data-tags="user-friends" d="M649.953 520.1h-277.8c-6.562 0-13.124-6.562-13.124-15.312v-41.561c0-8.75 4.375-15.311 13.124-15.311h100.621v-468.109h76.561v468.109h100.617c6.562 0 13.124 6.562 13.124 15.311v41.561c-2.184 8.75-6.562 15.312-13.124 15.312zM201.818 719.172c47.115 0.142 85.177 44.327 85.014 98.691s-38.491 98.319-85.605 98.178c-47.115-0.142-85.177-44.327-85.014-98.691s38.491-98.319 85.605-98.177zM394.008 283.886c0 15.313 0 78.747 0 85.309s0 21.876-10.937 21.876c-13.124 0-78.747 13.122-78.747 13.122s-4.375 129.058-8.75 188.118c-4.375 59.060-32.812 100.621-85.309 96.247s-80.935-41.561-78.747-98.434c2.187-56.873 10.937-157.494 15.311-231.864 4.375-74.373 61.248-89.688 85.309-89.688s139.995-6.562 153.119-6.562c10.937 0 8.75 8.751 8.75 21.876zM361.205 207.312h-170.619c-37.187 0-96.247 32.812-104.996 91.872-13.124 72.185-34.999 225.303-34.999 227.491-2.187 15.312-15.312 26.249-28.437 24.062s-24.062-17.499-21.874-30.624c0-6.562 21.874-157.495 34.999-229.68 10.937-67.807 61.247-113.742 111.558-129.056l-45.936-153.121c-2.187-8.746 2.188-19.686 10.937-24.060 2.187 0 4.375 0 4.375 0 6.562 0 15.312 4.373 17.499 13.124l48.123 157.494c2.188 0 6.562 0 8.75 0h102.808l50.31-157.494c2.188-8.751 8.75-13.124 17.499-13.124 2.187 0 4.375 0 6.562 0 8.75 2.189 15.311 13.124 10.937 24.060l-45.936 146.559h30.624c13.124 0 26.249 13.124 26.249 28.438-2.187 13.124-15.311 24.060-28.436 24.060zM906.043 817.502c0.162 54.363-37.898 98.548-85.015 98.691-47.112 0.142-85.441-43.813-85.603-98.177s37.898-98.548 85.010-98.691c47.117-0.142 85.445 43.813 85.609 98.177zM792.138 270.725c24.060 0 80.931 15.313 85.309 89.688 4.373 74.371 15.309 174.992 15.309 231.865 2.189 56.873-26.249 94.059-78.747 98.434s-80.931-37.186-85.309-96.246c-4.373-61.248-8.746-188.118-8.746-188.118s-67.811-13.124-78.747-13.124c-13.124 0-10.941-15.312-10.941-21.874s0-72.185 0-85.309c0-15.313-2.184-21.876 13.124-21.876 8.751-2.184 126.872 6.562 148.748 6.562zM999.942 550.735c-13.124 2.188-26.249-8.75-28.438-24.062 0-2.188-21.871-155.306-34.995-227.491-10.941-61.249-67.811-91.872-104.996-91.872h-170.619c-13.124 0-26.249-13.124-26.249-28.438 0-15.309 10.935-28.433 26.249-28.433h30.622l-45.936-146.559c-2.189-8.751 2.189-19.686 10.935-24.060 2.189 0 4.379 0 6.562 0 6.562 0 15.313 4.373 17.503 13.124l50.309 157.494h102.807c2.189 0 6.562 0 8.751 0l48.125-157.494c2.184-8.751 8.746-13.124 17.498-13.124 2.189 0 4.373 0 4.373 0 8.751 2.184 15.313 13.124 10.941 24.060l-45.936 153.121c52.498 17.498 100.617 63.433 111.558 129.056 13.124 72.185 34.995 223.117 34.995 229.678 0 17.499-10.935 32.812-24.060 34.999z" />
<glyph unicode="&#xe93c;" glyph-name="account-check" data-tags="account-check" d="M1038.304 432.243l88.242-88.873-411.588-415.37-218.715 220.606 88.242 88.873 130.473-131.104 323.346 325.867zM338.666 148.606l189.091-189.091h-630.304v126.060c0 139.297 225.65 252.122 504.243 252.122l119.128-6.933-182.158-182.158zM401.696 968c139.243 0 252.122-112.879 252.122-252.122v0c0-139.243-112.879-252.122-252.122-252.122v0c-139.243 0-252.122 112.879-252.122 252.122v0c0 139.243 112.879 252.122 252.122 252.122v0z" />
<glyph unicode="&#xe93d;" glyph-name="cog" data-tags="cog" d="M512.112 268.801c-98.97 0-179.199 80.23-179.199 179.199v0c0 98.97 80.23 179.199 179.199 179.199v0c98.97 0 179.199-80.23 179.199-179.199v0c0-98.97-80.23-179.199-179.199-179.199v0zM892.527 398.336c2.048 16.384 3.585 32.768 3.585 49.664s-1.536 33.791-3.585 51.2l108.032 83.456c9.729 7.68 12.288 21.503 6.144 32.768l-102.399 177.152c-6.144 11.265-19.968 15.873-31.232 11.265l-127.488-51.2c-26.624 19.968-54.272 37.376-86.528 50.175l-18.944 135.68c-2.048 12.288-12.8 21.503-25.599 21.503h-204.8c-12.8 0-23.553-9.215-25.599-21.503l-18.944-135.68c-32.256-12.8-59.904-30.208-86.528-50.175l-127.488 51.2c-11.265 4.608-25.088 0-31.232-11.265l-102.399-177.152c-6.656-11.265-3.585-25.088 6.144-32.768l108.032-83.456c-2.048-17.409-3.585-34.305-3.585-51.2s1.536-33.279 3.585-49.664l-108.032-84.992c-9.729-7.68-12.8-21.503-6.144-32.768l102.399-177.152c6.144-11.265 19.968-15.359 31.232-11.265l127.488 51.711c26.624-20.48 54.272-37.887 86.528-50.688l18.944-135.68c2.048-12.288 12.8-21.503 25.599-21.503h204.8c12.8 0 23.553 9.215 25.599 21.503l18.944 135.68c32.256 13.311 59.904 30.208 86.528 50.688l127.488-51.711c11.265-4.096 25.088 0 31.232 11.265l102.399 177.152c6.144 11.265 3.585 25.088-6.144 32.768l-108.032 84.992z" />
<glyph unicode="&#xe93e;" glyph-name="user-plus" data-tags="user-plus" d="M651.636 354.909c-124.276 0-372.363-61.906-372.363-186.182v-93.091h744.727v93.091c0 124.276-248.087 186.182-372.363 186.182zM232.727 541.091v139.637h-93.091v-139.637h-139.637v-93.091h139.637v-139.637h93.091v139.637h139.637v93.091zM651.636 448c102.826 0 186.182 83.356 186.182 186.182v0c0 102.826-83.356 186.182-186.182 186.182v0c-102.826 0-186.182-83.356-186.182-186.182v0c0-102.826 83.356-186.182 186.182-186.182v0z" />
<glyph unicode="&#xe93f;" glyph-name="dollar-sign" data-tags="dollar-sign" d="M227.557 277.334h113.777c0-61.44 77.937-113.777 170.666-113.777s170.666 52.337 170.666 113.777c0 62.577-59.164 85.334-184.32 115.484-120.605 30.151-270.791 67.697-270.791 225.849 0 101.83 83.627 188.303 199.111 217.316v124.018h170.666v-124.018c115.484-29.013 199.111-115.484 199.111-217.316h-113.777c0 61.44-77.937 113.777-170.666 113.777s-170.666-52.337-170.666-113.777c0-62.577 59.164-85.334 184.32-115.484 120.605-30.151 270.791-67.697 270.791-225.849 0-101.83-83.627-188.303-199.111-217.316v-124.018h-170.666v124.018c-115.484 29.013-199.111 115.484-199.111 217.316z" />
<glyph unicode="&#xe940;" glyph-name="minus-sign" data-tags="minus-sign" d="M1024 320h-1024v256h1024v-256z" />
<glyph unicode="&#xe941;" glyph-name="files" data-tags="files" d="M682.666 960h-341.333c-46.933 0-85.333-38.4-85.333-85.333v-682.667c0-46.933 38.4-85.333 85.333-85.333h512c46.933 0 85.333 38.4 85.333 85.333v512l-256 256zM853.332 192h-512v682.667h298.667v-213.333h213.333v-469.333zM170.666 789.333v-768h682.667v-85.333h-682.667c-46.933 0-85.333 38.4-85.333 85.333v768h85.333z" />
<glyph unicode="&#xe942;" glyph-name="sms-bubble-speech" data-tags="sms-bubble-speech" d="M921.601 960h-819.201c-56.32 0-102.4-46.080-102.4-102.4v-921.6l204.8 204.8h716.8c56.832 0 102.4 45.568 102.4 102.4v614.4c0 56.32-45.568 102.4-102.4 102.4zM921.601 243.199h-716.8l-102.4-102.4v716.8h819.201zM768.001 499.199h-102.4v102.4h102.4zM563.201 499.199h-102.4v102.4h102.4zM358.401 499.199h-102.4v102.4h102.4z" />
<glyph unicode="&#xe943;" glyph-name="email" data-tags="email" d="M1024 755.2c0 56.32-46.080 102.4-102.4 102.4h-819.2c-56.32 0-102.4-46.080-102.4-102.4v-614.4c0-56.32 46.080-102.4 102.4-102.4h819.2c56.32 0 102.4 46.080 102.4 102.4v614.4zM921.6 755.2l-409.6-256-409.6 256h819.2zM921.6 140.8h-819.2v512l409.6-256 409.6 256v-512z" />
<glyph unicode="&#xe944;" glyph-name="credit-card" data-tags="credit-card" d="M921.6 652.801h-819.2v102.4h819.2zM921.6 140.8h-819.2v307.2h819.2zM921.6 857.6h-819.2c-56.832 0-102.4-45.568-102.4-102.4v-614.4c0-56.554 45.846-102.4 102.4-102.4v0h819.2c56.554 0 102.4 45.846 102.4 102.4v0 614.4c0 56.832-46.080 102.4-102.4 102.4z" />
<glyph unicode="&#xe945;" glyph-name="purchase" data-tags="purchase" d="M307.2 140.8c-56.554 0-102.4-45.846-102.4-102.4s45.846-102.4 102.4-102.4c56.554 0 102.4 45.846 102.4 102.4v0c0 56.554-45.846 102.4-102.4 102.4v0zM0 960v-102.4h102.4l184.32-389.12-71.68-122.88c-5.549-15.1-9.218-32.56-10.219-50.732l-0.021-0.468c0-56.554 45.846-102.4 102.4-102.4v0h614.4v102.4h-593.92c-5.495 0.383-9.857 4.745-10.238 10.205l-0.002 0.035v5.12l46.080 87.040h378.88c1.102-0.047 2.395-0.073 3.695-0.073 36.213 0 67.611 20.614 83.1 50.748l0.245 0.525 184.32 332.8c6.415 5.204 10.482 13.087 10.482 21.919 0 1.298-0.088 2.575-0.258 3.826l0.016-0.146c0.056 0.868 0.087 1.882 0.087 2.903 0 26.722-21.662 48.384-48.384 48.384-1.021 0-2.035-0.032-3.041-0.094l0.138 0.007h-757.76l-46.080 102.4zM819.2 140.8c-56.554 0-102.4-45.846-102.4-102.4s45.846-102.4 102.4-102.4c56.554 0 102.4 45.846 102.4 102.4v0c0 56.554-45.846 102.4-102.4 102.4v0z" />
<glyph unicode="&#xe946;" glyph-name="purchased" data-tags="purchased" d="M324.652 197.64v3.637l32.731 61.773h268.808c0.78-0.033 1.697-0.051 2.617-0.051 25.71 0 48 14.645 58.982 36.047l0.174 0.373 28.251 51.021c-22.732-5.513-48.831-8.674-75.668-8.674-154.075 0-283.811 104.208-322.569 245.989l-0.547 2.345h-65.568l-32.679 72.684h-119.909v-72.684h72.684l130.819-276.187-50.863-87.231c-3.944-10.726-6.549-23.128-7.259-36.037l-0.014-0.331c0.119-40.094 32.59-72.564 72.672-72.684h436.113v72.684h-421.659c-3.856 0.344-6.887 3.448-7.114 7.305l-0.001 0.022zM368.784 60.078c28.385-28.385 28.385-74.405 0-102.79s-74.405-28.385-102.79 0c-28.385 28.385-28.385 74.405 0 102.79s74.405 28.385 102.79 0zM732.149 60.078c28.385-28.385 28.385-74.405 0-102.79s-74.405-28.385-102.79 0c-28.385 28.385-28.385 74.405 0 102.79s74.405 28.385 102.79 0zM640.422 960c-157.017 0-284.304-127.287-284.304-284.304s127.287-284.304 284.304-284.304c157.017 0 284.304 127.287 284.304 284.304v0c-0.18 156.944-127.359 284.124-284.287 284.304h-0.018zM587.714 520.209c-2.668-2.899-6.48-4.709-10.715-4.709-0.254 0-0.506 0.006-0.757 0.020l0.035-0.001c-0.020 0-0.042 0-0.066 0-4.438 0-8.456 1.792-11.372 4.692l0.001-0.001-124.495 134.404-3.11 4.691c-2.755 3.026-4.503 7.010-4.69 11.4l-0.001 0.037c0.286 4.41 2.014 8.369 4.711 11.461l-0.020-0.023 22.401 22.401c2.863 2.873 6.824 4.651 11.2 4.651s8.337-1.778 11.2-4.65v0l1.581-1.581 88.021-94.873c1.475-1.46 3.505-2.362 5.745-2.362s4.27 0.902 5.745 2.362l-0.001-0.001 214.572 222.9h1.581c2.863 2.873 6.824 4.651 11.2 4.651s8.337-1.778 11.2-4.65v0l22.401-22.401c2.873-2.863 4.651-6.824 4.651-11.2s-1.778-8.337-4.65-11.2v0z" />
<glyph unicode="&#xe947;" glyph-name="purchase-plus" data-tags="purchase-plus" d="M650.939 960c-153.437 0-277.823-124.386-277.823-277.823s124.386-277.823 277.823-277.823c153.437 0 277.823 124.386 277.823 277.823v0c0 153.437-124.386 277.823-277.823 277.823v0zM789.85 654.395h-111.128v-111.128h-55.565v111.128h-111.128v55.565h111.128v111.128h55.565v-111.128h111.128zM332.831 211.823v3.834l34.506 65.123h283.379c0.823-0.036 1.789-0.055 2.759-0.055 27.103 0 50.602 15.438 62.18 38.001l0.184 0.393 29.783 53.786c-23.965-5.812-51.478-9.145-79.77-9.145-162.427 0-299.196 109.858-340.055 259.324l-0.576 2.473h-69.122l-34.45 76.623h-126.41v-76.623h76.623l137.912-291.158-53.62-91.96c-4.157-11.307-6.905-24.383-7.653-37.991l-0.015-0.349c0.126-42.267 34.357-76.498 76.611-76.623h459.754v76.623h-444.517c-4.066 0.362-7.26 3.634-7.5 7.701l-0.001 0.022zM379.355 66.805c29.924-29.924 29.924-78.439 0-108.362s-78.439-29.924-108.362 0c-29.924 29.924-29.924 78.439 0 108.362s78.439 29.924 108.362 0zM762.418 66.805c29.924-29.924 29.924-78.439 0-108.362s-78.439-29.924-108.362 0c-29.924 29.924-29.924 78.439 0 108.362s78.439 29.924 108.362 0z" />
<glyph unicode="&#xe948;" glyph-name="view-skill" data-tags="view-skill" d="M902.096 472.381h-73.143v195.048c0 54.126-43.886 97.524-97.524 97.524h-195.048v73.143c0 67.326-54.578 121.905-121.905 121.905v0c-67.326 0-121.905-54.578-121.905-121.905v0-73.143h-195.048c-53.861 0-97.524-43.663-97.524-97.524v0-185.295h73.143c73.143 0 131.657-58.514 131.657-131.657s-58.514-131.657-131.657-131.657h-73.143v-185.295c0-53.861 43.663-97.524 97.524-97.524v0h185.295v73.143c0 73.143 58.514 131.657 131.657 131.657s131.657-58.514 131.657-131.657v-73.143h185.295c53.861 0 97.524 43.663 97.524 97.524v0 195.048h73.143c67.326 0 121.905 54.578 121.905 121.905v0c0 67.326-54.578 121.905-121.905 121.905v0z" />
<glyph unicode="&#xe949;" glyph-name="purch-list" data-tags="purch-list" d="M631.58 881.779v25.598c0 29.042-23.543 52.586-52.586 52.586v0h-329.338c-29.042 0-52.586-23.543-52.586-52.586v0-25.598h-117.021c-44.028 0-79.72-35.691-79.72-79.72 0-0.026 0-0.051 0-0.077v0.004-786.23c0-44.043 35.682-79.751 79.716-79.793h668.995c44.069 0 79.793 35.724 79.793 79.793v0 786.303c0 44.069-35.724 79.793-79.793 79.793v0h-117.021zM748.6 63.223c0-27.104-21.971-49.075-49.075-49.075v0h-570.547c-27.104 0-49.075 21.971-49.075 49.075v0 689.761c0 0.022 0 0.047 0 0.073 0 27.063 21.939 49.002 49.002 49.002 0.026 0 0.051 0 0.077 0h68.014c0-21.569 17.486-39.055 39.055-39.055v0h356.472c21.569 0 39.055 17.486 39.055 39.055v0h67.872c27.104 0 49.075-21.971 49.075-49.075v-689.688zM296.025 624.993c0-38.252-31.010-69.261-69.261-69.261s-69.261 31.010-69.261 69.261c0 38.252 31.010 69.261 69.261 69.261s69.261-31.010 69.261-69.261zM621.048 663.682h-236.308c-21.589 0-39.092-17.502-39.092-39.092s17.502-39.092 39.092-39.092v0h236.381c21.589 0 39.092 17.502 39.092 39.092s-17.502 39.092-39.092 39.092v0zM296.025 428.472c0-38.252-31.010-69.261-69.261-69.261s-69.261 31.010-69.261 69.261c0 38.252 31.010 69.261 69.261 69.261s69.261-31.010 69.261-69.261zM621.048 468.333h-236.308c-22.034 0-39.896-17.863-39.896-39.896s17.863-39.896 39.896-39.896v0h236.381c22.034 0 39.896 17.863 39.896 39.896s-17.863 39.896-39.896 39.896v0zM296.098 218.348c0-38.252-31.010-69.261-69.261-69.261s-69.261 31.010-69.261 69.261c0 38.252 31.010 69.261 69.261 69.261s69.261-31.010 69.261-69.261zM621.048 258.355h-236.308c-22.034 0-39.896-17.863-39.896-39.896s17.863-39.896 39.896-39.896v0h236.381c22.034 0 39.896 17.863 39.896 39.896s-17.863 39.896-39.896 39.896v0z" />
<glyph unicode="&#xe94a;" glyph-name="icon-user-banned" data-tags="icon-user-banned" d="M651.636 354.909c-124.276 0-372.363-61.906-372.363-186.182v-93.090h744.727v93.090c0 124.276-248.087 186.182-372.363 186.182zM0 541.089v-93.090h372.363v93.090zM651.636 447.999c102.826 0 186.182 83.356 186.182 186.182v0c0 102.826-83.356 186.182-186.182 186.182v0c-102.826 0-186.182-83.356-186.182-186.182v0c0-102.826 83.356-186.182 186.182-186.182v0z" />
<glyph unicode="&#xe94b;" glyph-name="forbidden" data-tags="forbidden" d="M512 960c281.6 0 512-230.4 512-512s-230.4-512-512-512-512 230.4-512 512 230.4 512 512 512zM512 857.599c-97.28 0-184.32-30.72-250.88-87.040l573.44-573.44c51.2 71.68 87.040 158.72 87.040 250.88 0 225.279-184.32 409.599-409.599 409.599zM762.88 125.44l-573.44 573.44c-56.32-66.56-87.040-153.6-87.040-250.88 0-225.279 184.32-409.599 409.599-409.599 97.28 0 184.32 30.72 250.88 87.040z" />
<glyph unicode="&#xe94c;" glyph-name="only-shortlist" data-tags="only-shortlist" d="M651.636 354.909c-124.276 0-372.363-61.906-372.363-186.182v-93.091h744.727v93.091c0 124.276-248.087 186.182-372.363 186.182zM651.636 448c102.826 0 186.182 83.356 186.182 186.182v0c0 102.826-83.356 186.182-186.182 186.182v0c-102.826 0-186.182-83.356-186.182-186.182v0c0-102.826 83.356-186.182 186.182-186.182v0zM186.182 388.422l114.036-69.352-30.254 130.792 102.4 87.505-134.517 11.637-51.665 122.88-52.596-122.88-133.585-11.637 101.469-87.505-31.651-130.792 116.364 69.352z" />
<glyph unicode="&#xe94d;" glyph-name="shortlist-written" data-tags="shortlist-written" d="M590.74 718.117c0 9.182-7.652 16.835-16.835 16.835h-399.438c-9.182 0-16.835-7.652-16.835-16.835s7.652-16.835 16.835-16.835h399.438c9.182 0 16.835 7.652 16.835 16.835zM555.541 597.214c0 9.182-7.652 16.835-16.835 16.835h-364.238c-9.182 0-16.835-7.652-16.835-16.835s7.652-16.835 16.835-16.835h364.238c9.182 0 16.835 7.652 16.835 16.835zM174.468 457.947h278.536c9.182 0 16.835 7.652 16.835 16.835s-7.652 16.835-16.835 16.835h-278.536c-9.182 0-16.835-7.652-16.835-16.835s7.652-16.835 16.835-16.835zM174.468 337.044h191.302c9.182 0 16.835 7.652 16.835 16.835s-7.652 16.835-16.835 16.835h-191.302c-9.182 0-16.835-7.652-16.835-16.835s7.652-16.835 16.835-16.835zM526.462 356.94l70.399-71.929 189.772 189.772-71.929 70.399zM1014.665 692.1c16.835 26.017 7.652 64.277-15.304 79.581s-53.564 16.835-79.581-7.652c-26.017-22.957-202.015-192.832-202.015-192.832l94.886-94.886 179.059 189.772c3.061-6.122 3.061-21.425-3.061-36.73s-21.425-30.609-47.442-59.686-81.112-97.946-87.234-104.068c-6.122-6.122-10.713-18.365 0-24.487 9.182-6.122 16.835-1.53 22.957 6.122s93.356 111.721 110.19 128.555c16.835 15.304 35.2 48.974 36.73 73.46s-9.182 42.852-9.182 42.852zM400.969 136.559c6.122 3.061 18.365 0 35.2 6.122s33.669 21.425 33.669 21.425l-62.747 62.747c-24.487-26.017-24.487-48.974-26.017-61.217s-16.835-35.2-13.774-39.791 27.547 7.652 33.669 10.713zM586.149 271.236l-73.46 71.929-96.416-97.946 71.929-70.399 97.946 96.416zM445.35 232.975c-3.061 3.061-3.061 9.182 0 12.243l65.808 67.339c3.061 3.061 9.182 3.061 12.243 0s3.061-9.182 0-12.243l-65.808-67.339c-3.061-3.061-9.182-3.061-12.243 0zM474.429 203.898c-3.061 3.061-3.061 9.182 0 12.243l65.808 67.339c3.061 3.061 9.182 3.061 12.243 0s3.061-9.182 0-12.243l-65.808-67.339c-3.061-3.061-9.182-3.061-12.243 0zM697.869 53.918h-632.061v789.694h630.53v-198.954l65.808 64.277v171.407c1.53 16.835-12.243 29.078-27.547 29.078h-705.521c-16.835 0-29.078-12.243-29.078-29.078v-864.684c0-15.304 12.243-29.078 29.078-29.078h705.521c15.304 0 29.078 12.243 29.078 29.078v313.734l-65.808-47.442v-228.032z" />
<glyph unicode="&#xe94e;" glyph-name="Shortlist-for-Face-to-Face" data-tags="Shortlist-for-Face-to-Face" d="M649.952 520.101h-277.8c-6.562 0-13.124-6.562-13.124-15.312v-41.561c0-8.749 4.375-15.311 13.124-15.311h100.621v-468.109h76.561v468.109h100.617c6.562 0 13.124 6.562 13.124 15.311v41.561c-2.184 8.75-6.562 15.312-13.124 15.312zM201.817 719.172c47.115 0.142 85.177 44.327 85.014 98.691s-38.491 98.319-85.605 98.178c-47.115-0.142-85.177-44.327-85.014-98.691s38.491-98.319 85.605-98.177zM394.007 283.886c0 15.313 0 78.747 0 85.309s0 21.876-10.937 21.876c-13.124 0-78.747 13.122-78.747 13.122s-4.375 129.058-8.749 188.118c-4.375 59.060-32.812 100.621-85.309 96.247s-80.935-41.561-78.747-98.434c2.187-56.873 10.937-157.494 15.311-231.864 4.375-74.373 61.248-89.688 85.309-89.688s139.995-6.562 153.119-6.562c10.937 0 8.75 8.751 8.75 21.876zM361.204 207.313h-170.619c-37.187 0-96.247 32.812-104.996 91.872-13.124 72.185-34.999 225.303-34.999 227.491-2.187 15.312-15.312 26.249-28.437 24.062s-24.062-17.499-21.874-30.624c0-6.562 21.874-157.495 34.999-229.68 10.937-67.807 61.247-113.742 111.558-129.056l-45.936-153.121c-2.187-8.746 2.188-19.686 10.937-24.060 2.187 0 4.375 0 4.375 0 6.562 0 15.312 4.373 17.499 13.124l48.123 157.494c2.188 0 6.562 0 8.75 0h102.808l50.31-157.494c2.188-8.751 8.75-13.124 17.499-13.124 2.187 0 4.375 0 6.562 0 8.749 2.189 15.311 13.124 10.937 24.060l-45.936 146.559h30.624c13.124 0 26.249 13.124 26.249 28.438-2.187 13.124-15.311 24.060-28.436 24.060zM906.043 817.502c0.162 54.363-37.898 98.548-85.015 98.691-47.112 0.142-85.441-43.813-85.603-98.177s37.898-98.548 85.010-98.691c47.117-0.142 85.445 43.813 85.609 98.177zM792.138 270.725c24.060 0 80.931 15.313 85.309 89.688 4.373 74.371 15.309 174.992 15.309 231.865 2.189 56.873-26.249 94.059-78.747 98.434s-80.931-37.186-85.309-96.246c-4.373-61.248-8.746-188.118-8.746-188.118s-67.811-13.124-78.747-13.124c-13.124 0-10.941-15.312-10.941-21.874s0-72.185 0-85.309c0-15.313-2.184-21.876 13.124-21.876 8.751-2.184 126.872 6.562 148.748 6.562zM999.94 550.736c-13.124 2.188-26.249-8.749-28.438-24.062 0-2.188-21.871-155.306-34.995-227.491-10.941-61.249-67.811-91.872-104.996-91.872h-170.619c-13.124 0-26.249-13.124-26.249-28.438 0-15.309 10.935-28.433 26.249-28.433h30.622l-45.936-146.559c-2.189-8.751 2.189-19.686 10.935-24.060 2.189 0 4.379 0 6.562 0 6.562 0 15.313 4.373 17.503 13.124l50.309 157.494h102.807c2.189 0 6.562 0 8.751 0l48.125-157.494c2.184-8.751 8.746-13.124 17.498-13.124 2.189 0 4.373 0 4.373 0 8.751 2.184 15.313 13.124 10.941 24.060l-45.936 153.121c52.498 17.498 100.617 63.433 111.558 129.056 13.124 72.185 34.995 223.116 34.995 229.678 0 17.499-10.935 32.812-24.060 34.999z" />
<glyph unicode="&#xe94f;" glyph-name="Shortlist-for-other" data-tags="Shortlist-for-other" d="M512 208.243l483.272 375.879-483.272 375.879-483.272-375.879 87.527-68.196zM512 71.853l-396.283 307.684-86.989-67.658 483.272-375.879 483.272 375.879-87.527 68.196-395.747-308.221z" />
<glyph unicode="&#xe950;" glyph-name="maximize" data-tags="maximize" d="M369.778 385.991l80.213-80.213-255.999-255.999h204.23v-113.777h-398.222v398.222h113.777v-204.23l255.999 255.999zM449.991 590.222l-80.213-80.213-255.999 255.999v-204.23h-113.777v398.222h398.222v-113.777h-204.23l255.999-255.999zM654.222 385.991l255.999-255.999v204.23h113.777v-398.222h-398.222v113.777h204.23l-255.999 255.999 80.213 80.213zM574.009 590.222l255.999 255.999h-204.23v113.777h398.222v-398.222h-113.777v204.23l-255.999-255.999-80.213 80.213z" />
<glyph unicode="&#xe951;" glyph-name="video-camera" data-tags="video-camera" d="M994.839 912.204h-965.677c-16.205 0-29.162-12.966-29.162-29.162v-870.077c0-16.205 12.966-29.162 29.162-29.162h965.677c14.586 0 27.541 12.966 29.162 27.541v871.697c0 16.205-12.966 29.162-29.162 29.162zM166.888 81.015h-97.219v30.782h97.219v-30.782zM194.429 34.020v121.521l58.331-59.951-58.331-61.57zM951.092 81.015h-672.41v30.782h672.41v-30.782zM951.092 259.24c0-11.343-8.097-19.444-19.444-19.444h-844.156c-11.343 0-19.444 8.097-19.444 19.444v565.473c0 11.343 8.097 19.444 19.444 19.444h844.156c11.343 0 19.444-8.097 19.444-19.444v-565.473zM614.077 649.724c0-58.169-47.148-105.317-105.317-105.317s-105.317 47.148-105.317 105.317c0 58.169 47.148 105.317 105.317 105.317s105.317-47.148 105.317-105.317zM591.395 508.761h-170.127c-51.845 0-93.972-42.127-93.972-93.972l-4.858-113.415h367.794l-4.858 113.415c0 51.845-42.127 93.972-93.972 93.972z" />
<glyph unicode="&#xe952;" glyph-name="play-video" data-tags="play-video" d="M955.477 703.488c-90.188 154.062-254.874 255.896-443.345 255.896-282.77 0-512-229.23-512-512s229.23-512 512-512c94.099 0 182.269 25.385 258.035 69.68l-2.424-1.309c154.165 90.395 256.046 255.286 256.046 443.973 0 94.142-25.361 182.36-69.625 258.195l1.313-2.435zM716.544 92.843c-58.716-34.451-129.314-54.798-204.664-54.798-226.216 0-409.6 183.384-409.6 409.6s183.384 409.6 409.6 409.6c150.839 0 282.635-81.535 353.718-202.937l1.047-1.935c34.474-58.731 54.835-129.352 54.835-204.728 0-150.866-81.564-282.681-203.001-353.756l-1.935-1.047zM696.064 468.309l-267.691 157.099c-23.893 13.653-44.373 3.413-44.373-25.6l1.707-310.443c0-29.013 20.48-39.253 44.373-25.6l266.069 153.6c10.568 3.9 17.967 13.886 17.967 25.6s-7.399 21.7-17.779 25.539l-0.189 0.061z" />
<glyph unicode="&#xe953;" glyph-name="comment-text" data-tags="comment -text" d="M512.001-72.001c-26.108 0-47.273 21.166-47.273 47.273v0 141.818h-189.091c-52.215 0-94.546 42.329-94.546 94.546v0 472.728c0 52.215 42.329 94.546 94.546 94.546v0h661.818c52.215 0 94.546-42.329 94.546-94.546v0-472.728c0-52.215-42.329-94.546-94.546-94.546v0h-193.818l-174.91-175.381c-9.454-8.509-20.8-13.709-33.091-13.709h-23.636zM559.273 211.636v-145.6l145.6 145.6h232.582v472.728h-661.818v-472.728h283.637zM86.546 306.181h-94.546v567.273c0 52.215 42.329 94.546 94.546 94.546v0h756.364v-94.546h-756.364v-567.273zM370.182 589.817h472.728v-94.546h-472.728v94.546zM370.182 400.726h378.182v-94.546h-378.182v94.546z" />
<glyph unicode="&#xe954;" glyph-name="question-fill" data-tags="question-fill" d="M669.184 486.4l-46.080-47.104c-36.864-36.864-59.904-68.096-59.904-144.896h-102.4v25.6c0 56.832 23.040 108.032 59.904 144.896l63.488 64.512c18.944 18.432 30.208 44.032 30.208 72.192 0 56.832-46.080 102.4-102.4 102.4-56.554 0-102.4-45.846-102.4-102.4v0h-102.4c0 113.108 91.692 204.8 204.8 204.8v0c113.108 0 204.8-91.692 204.8-204.8v0c0-45.056-18.432-85.504-47.616-115.2zM563.2 89.6h-102.4v102.4h102.4zM512 960c-282.769 0-512-229.23-512-512v0c0-282.769 229.23-512 512-512v0c282.769 0 512 229.23 512 512v0c0 283.136-230.4 512-512 512z" />
<glyph unicode="&#xe955;" glyph-name="redo" data-tags="redo" d="M0 448c0-242.346 196.511-438.857 438.857-438.857 116.54 0 228.205 45.837 312.076 126.78l-73.143 73.143c-61.928-65.828-148.236-102.4-238.933-102.4-304.274 0-456.411 367.665-241.371 582.704s582.704 62.415 582.704-241.371h-146.286l195.048-195.048h4.877l190.171 195.048h-146.286c0 242.346-196.511 438.857-438.857 438.857s-438.857-196.511-438.857-438.857z" />
<glyph unicode="&#xe956;" glyph-name="envelop-stroke" data-tags="envelop-stroke" d="M1024 755.2c0 56.32-46.080 102.4-102.4 102.4h-819.2c-56.32 0-102.4-46.080-102.4-102.4v-614.4c0-56.32 46.080-102.4 102.4-102.4h819.2c56.32 0 102.4 46.080 102.4 102.4v614.4zM921.599 755.2l-409.599-256-409.599 256h819.2zM921.599 140.8h-819.2v512l409.599-256 409.599 256v-512z" />
<glyph unicode="&#xe957;" glyph-name="sms-to-selected" data-tags="sms-to-selected" d="M921.6 960c56.554 0 102.4-45.846 102.4-102.4v0-614.4c0-56.554-45.846-102.4-102.4-102.4v0h-716.8l-204.8-204.8v921.6c0 56.832 46.080 102.4 102.4 102.4h819.201zM102.4 857.599v-674.304l59.904 59.904h759.297v614.4h-819.201zM204.8 703.999h614.4v-102.4h-614.4v102.4zM204.8 499.199h460.8v-102.4h-460.8v102.4z" />
<glyph unicode="&#xe958;" glyph-name="livevideo" data-tags="livevideo" d="M154.465 368.77c110.523 0 219.714 0 330.236 0 2.663 69.243-43.943 123.839-107.86 125.17-5.326 0-10.653-5.326-14.647-9.321-27.964-27.964-57.259-27.964-86.554 0-3.995 3.995-11.984 9.321-17.311 7.989-71.907-10.653-105.197-50.601-103.865-123.839zM319.584 517.909c30.627-1.332 55.927 18.642 63.917 49.269 3.995 15.979 6.658 31.959 9.321 47.937 6.658 46.606-23.969 82.559-71.907 82.559-46.606 0-79.896-33.29-73.238-74.57 2.663-18.642 6.658-37.285 10.653-55.927 6.658-29.295 31.959-47.937 61.254-49.269zM58.59 302.19c-2.663 6.658-3.995 7.989-3.995 9.321 0 146.476 0 292.952 0 439.428 0 18.642 9.321 23.969 26.632 23.969 230.367 0 459.402 0 689.769 0 18.642 0 25.301-6.658 25.301-25.301 0-5.326 0-10.653 0-15.979 19.974-2.663 37.285-7.989 54.595-15.979 0 18.642 0 37.285 0 55.927-1.332 39.948-19.974 58.59-61.254 58.59-243.683 1.332-487.365 1.332-729.717 1.332-39.948 0-59.922-18.642-59.922-58.59 0-167.781 0-335.563 0-502.014 0-39.948 18.642-58.59 59.922-58.59 70.575 0 141.15 0 213.056 0 9.321 0 19.974-1.332 34.622-1.332-15.979-39.948-29.295-75.901-43.943-110.523-5.326-14.647-6.658-26.632 13.316-26.632 55.927 0 89.217 0 147.808 0v1.332c1.332 11.984 2.663 25.301 2.663 38.616 2.663 34.622 5.326 70.575 11.984 105.197 5.326 31.959 34.622 59.922 59.922 71.907 6.658 2.663 13.316 5.326 19.974 9.321-150.471 0-278.304 0-430.107 0-10.653 0-21.306 0-30.627 0zM926.793 508.588c0-83.103-62.003-150.471-138.486-150.471s-138.486 67.368-138.486 150.471c0 83.103 62.003 150.471 138.486 150.471s138.486-67.368 138.486-150.471zM1017.342 195.662c0 61.254-54.595 110.523-122.507 110.523h-222.378c-67.912 0-123.839-49.269-123.839-110.523l-6.658-133.16h482.039l-6.658 133.16z" />
</font>
</defs>
</svg>
